NotoSansKhmer-CondensedLight.ufo
<glyph name="quotesingle" format="2">
  <advance width="161"/>
  <unicode hex="0027"/>
  <note>
quotesingle
</note>
  <outline>
    <contour>
      <point x="71" y="456" type="line"/>
      <point x="93" y="456" type="line"/>
      <point x="97" y="714" type="line"/>
      <point x="65" y="714" type="line"/>
    </contour>
  </outline>
</glyph>
<glyph name="hyphen" format="2">
  <advance width="263"/>
  <unicode hex="002D"/>
  <note>
hyphen
</note>
  <outline>
    <contour>
      <point x="26" y="259" type="line"/>
      <point x="237" y="259" type="line"/>
      <point x="237" y="286" type="line"/>
      <point x="26" y="286" type="line"/>
    </contour>
  </outline>
</glyph>
<glyph name="uni00AD" format="2">
  <advance width="263"/>
  <unicode hex="00AD"/>
  <note>
uni00AD
</note>
  <outline>
    <contour>
      <point x="26" y="259" type="line"/>
      <point x="237" y="259" type="line"/>
      <point x="237" y="286" type="line"/>
      <point x="26" y="286" type="line"/>
    </contour>
  </outline>
</glyph>
<glyph name="uni1780" format="2">
  <advance width="489"/>
  <unicode hex="1780"/>
  <note>
uni1780
</note>
  <outline>
    <contour>
      <point x="90" y="560" type="line"/>
      <point x="399" y="560" type="line"/>
      <point x="399" y="586" type="line"/>
      <point x="90" y="586" type="line"/>
    </contour>
    <contour>
      <point x="90" y="0" type="line"/>
      <point x="116" y="0" type="line"/>
      <point x="116" y="312" type="line" smooth="yes"/>
      <point x="116" y="389"/>
      <point x="143" y="433"/>
      <point x="243" y="433" type="curve" smooth="yes"/>
      <point x="343" y="433"/>
      <point x="373" y="389"/>
      <point x="373" y="312" type="curve" smooth="yes"/>
      <point x="373" y="0" type="line"/>
      <point x="399" y="0" type="line"/>
      <point x="399" y="312" type="line" smooth="yes"/>
      <point x="399" y="415"/>
      <point x="339" y="459"/>
      <point x="243" y="459" type="curve" smooth="yes"/>
      <point x="147" y="459"/>
      <point x="90" y="415"/>
      <point x="90" y="312" type="curve" smooth="yes"/>
    </contour>
  </outline>
</glyph>
<glyph name="uni1781" format="2">
  <advance width="489"/>
  <unicode hex="1781"/>
  <note>
uni1781
</note>
  <outline>
    <contour>
      <point x="243" y="0" type="curve" smooth="yes"/>
      <point x="356" y="0"/>
      <point x="399" y="53"/>
      <point x="399" y="158" type="curve" smooth="yes"/>
      <point x="399" y="234" type="line"/>
      <point x="373" y="234" type="line"/>
      <point x="373" y="158" type="line" smooth="yes"/>
      <point x="373" y="69"/>
      <point x="343" y="26"/>
      <point x="243" y="26" type="curve" smooth="yes"/>
      <point x="157" y="26"/>
      <point x="116" y="67"/>
      <point x="116" y="158" type="curve" smooth="yes"/>
      <point x="116" y="262" type="line"/>
      <point x="209" y="274" type="line" smooth="yes"/>
      <point x="336" y="290"/>
      <point x="399" y="335"/>
      <point x="399" y="448" type="curve" smooth="yes"/>
      <point x="399" y="533"/>
      <point x="348" y="586"/>
      <point x="243" y="586" type="curve" smooth="yes"/>
      <point x="143" y="586"/>
      <point x="83" y="526"/>
      <point x="83" y="440" type="curve" smooth="yes"/>
      <point x="83" y="391"/>
      <point x="116" y="351"/>
      <point x="144" y="351" type="curve" smooth="yes"/>
      <point x="150" y="351" type="line"/>
      <point x="150" y="377" type="line"/>
      <point x="133" y="377"/>
      <point x="109" y="393"/>
      <point x="109" y="440" type="curve" smooth="yes"/>
      <point x="109" y="518"/>
      <point x="154" y="560"/>
      <point x="243" y="560" type="curve" smooth="yes"/>
      <point x="343" y="560"/>
      <point x="373" y="517"/>
      <point x="373" y="448" type="curve" smooth="yes"/>
      <point x="373" y="353"/>
      <point x="320" y="312"/>
      <point x="205" y="299" type="curve" smooth="yes"/>
      <point x="90" y="286" type="line"/>
      <point x="90" y="158" type="line" smooth="yes"/>
      <point x="90" y="53"/>
      <point x="142" y="0"/>
    </contour>
  </outline>
</glyph>
<glyph name="uni1782" format="2">
  <advance width="489"/>
  <unicode hex="1782"/>
  <note>
uni1782
</note>
  <outline>
    <contour>
      <point x="90" y="560" type="line"/>
      <point x="399" y="560" type="line"/>
      <point x="399" y="586" type="line"/>
      <point x="90" y="586" type="line"/>
    </contour>
    <contour>
      <point x="90" y="0" type="line"/>
      <point x="116" y="0" type="line"/>
      <point x="116" y="53" type="line"/>
      <point x="123" y="111"/>
      <point x="155" y="132"/>
      <point x="229" y="132" type="curve" smooth="yes"/>
      <point x="271" y="132" type="line"/>
      <point x="271" y="158" type="line"/>
      <point x="220" y="158" type="line" smooth="yes"/>
      <point x="176" y="158"/>
      <point x="141" y="148"/>
      <point x="116" y="114" type="curve"/>
      <point x="116" y="312" type="line" smooth="yes"/>
      <point x="116" y="389"/>
      <point x="151" y="431"/>
      <point x="243" y="431" type="curve" smooth="yes"/>
      <point x="338" y="431"/>
      <point x="373" y="392"/>
      <point x="373" y="312" type="curve" smooth="yes"/>
      <point x="373" y="0" type="line"/>
      <point x="399" y="0" type="line"/>
      <point x="399" y="312" type="line" smooth="yes"/>
      <point x="399" y="413"/>
      <point x="343" y="457"/>
      <point x="243" y="457" type="curve" smooth="yes"/>
      <point x="145" y="457"/>
      <point x="90" y="415"/>
      <point x="90" y="312" type="curve" smooth="yes"/>
    </contour>
  </outline>
</glyph>
<glyph name="uni1785" format="2">
  <advance width="517"/>
  <unicode hex="1785"/>
  <note>
uni1785
</note>
  <outline>
    <contour>
      <point x="427" y="263" type="line"/>
      <point x="401" y="263" type="line"/>
      <point x="401" y="159" type="line" smooth="yes"/>
      <point x="401" y="69"/>
      <point x="343" y="26"/>
      <point x="265" y="26" type="curve" smooth="yes"/>
      <point x="163" y="26"/>
      <point x="128" y="69"/>
      <point x="128" y="159" type="curve" smooth="yes"/>
      <point x="128" y="394" type="line"/>
      <point x="98" y="436"/>
      <point x="83" y="457"/>
      <point x="83" y="476" type="curve" smooth="yes"/>
      <point x="83" y="504"/>
      <point x="114" y="543"/>
      <point x="128" y="560" type="curve"/>
      <point x="425" y="560" type="line"/>
      <point x="425" y="586" type="line"/>
      <point x="122" y="586" type="line"/>
      <point x="77" y="521"/>
      <point x="60" y="493"/>
      <point x="60" y="470" type="curve" smooth="yes"/>
      <point x="60" y="454"/>
      <point x="71" y="436"/>
      <point x="102" y="384" type="curve"/>
      <point x="102" y="158" type="line" smooth="yes"/>
      <point x="102" y="53"/>
      <point x="151" y="0"/>
      <point x="265" y="0" type="curve" smooth="yes"/>
      <point x="357" y="0"/>
      <point x="427" y="53"/>
      <point x="427" y="158" type="curve" smooth="yes"/>
    </contour>
    <contour>
      <point x="427" y="226" type="line"/>
      <point x="427" y="412" type="line" smooth="yes"/>
      <point x="427" y="431"/>
      <point x="420" y="439"/>
      <point x="391" y="439" type="curve" smooth="yes"/>
      <point x="346" y="439"/>
      <point x="318" y="396"/>
      <point x="318" y="354" type="curve" smooth="yes"/>
      <point x="318" y="297"/>
      <point x="363" y="268"/>
      <point x="401" y="268" type="curve"/>
      <point x="401" y="226" type="line"/>
    </contour>
    <contour>
      <point x="401" y="295" type="line"/>
      <point x="362" y="295"/>
      <point x="344" y="329"/>
      <point x="344" y="354" type="curve" smooth="yes"/>
      <point x="344" y="377"/>
      <point x="353" y="413"/>
      <point x="401" y="413" type="curve"/>
    </contour>
  </outline>
</glyph>
<glyph name="uni1786" format="2">
  <advance width="533"/>
  <unicode hex="1786"/>
  <note>
uni1786
</note>
  <outline>
    <contour>
      <point x="443" y="268" type="line"/>
      <point x="417" y="268" type="line"/>
      <point x="417" y="158" type="line" smooth="yes"/>
      <point x="417" y="97"/>
      <point x="400" y="26"/>
      <point x="354" y="26" type="curve" smooth="yes"/>
      <point x="321" y="26"/>
      <point x="303" y="50"/>
      <point x="283" y="102" type="curve" smooth="yes"/>
      <point x="256" y="172"/>
      <point x="215" y="188"/>
      <point x="136" y="188" type="curve"/>
      <point x="136" y="394" type="line"/>
      <point x="106" y="436"/>
      <point x="91" y="457"/>
      <point x="91" y="476" type="curve" smooth="yes"/>
      <point x="91" y="504"/>
      <point x="122" y="543"/>
      <point x="136" y="560" type="curve"/>
      <point x="443" y="560" type="line"/>
      <point x="443" y="586" type="line"/>
      <point x="130" y="586" type="line"/>
      <point x="85" y="521"/>
      <point x="68" y="493"/>
      <point x="68" y="470" type="curve" smooth="yes"/>
      <point x="68" y="454"/>
      <point x="79" y="436"/>
      <point x="110" y="384" type="curve"/>
      <point x="110" y="188" type="line"/>
      <point x="96" y="183"/>
      <point x="83" y="165"/>
      <point x="83" y="128" type="curve" smooth="yes"/>
      <point x="83" y="85"/>
      <point x="90" y="45"/>
      <point x="110" y="0" type="curve"/>
      <point x="136" y="0" type="line"/>
      <point x="136" y="161" type="line"/>
      <point x="206" y="161"/>
      <point x="233" y="155"/>
      <point x="261" y="86" type="curve" smooth="yes"/>
      <point x="282" y="33"/>
      <point x="302" y="0"/>
      <point x="356" y="0" type="curve" smooth="yes"/>
      <point x="407" y="0"/>
      <point x="443" y="55"/>
      <point x="443" y="158" type="curve" smooth="yes"/>
    </contour>
    <contour>
      <point x="443" y="226" type="line"/>
      <point x="443" y="412" type="line" smooth="yes"/>
      <point x="443" y="431"/>
      <point x="436" y="439"/>
      <point x="407" y="439" type="curve" smooth="yes"/>
      <point x="362" y="439"/>
      <point x="334" y="396"/>
      <point x="334" y="354" type="curve" smooth="yes"/>
      <point x="334" y="297"/>
      <point x="379" y="268"/>
      <point x="417" y="268" type="curve"/>
      <point x="417" y="226" type="line"/>
    </contour>
    <contour>
      <point x="417" y="295" type="line"/>
      <point x="378" y="295"/>
      <point x="360" y="329"/>
      <point x="360" y="354" type="curve" smooth="yes"/>
      <point x="360" y="377"/>
      <point x="369" y="413"/>
      <point x="417" y="413" type="curve"/>
    </contour>
  </outline>
</glyph>
<glyph name="uni1787" format="2">
  <advance width="527"/>
  <unicode hex="1787"/>
  <note>
uni1787
</note>
  <outline>
    <contour>
      <point x="110" y="0" type="line"/>
      <point x="143" y="0" type="line"/>
      <point x="274" y="134" type="line"/>
      <point x="404" y="0" type="line"/>
      <point x="437" y="0" type="line"/>
      <point x="437" y="470" type="line"/>
      <point x="411" y="470" type="line"/>
      <point x="411" y="28" type="line"/>
      <point x="274" y="169" type="line"/>
      <point x="136" y="28" type="line"/>
      <point x="136" y="394" type="line"/>
      <point x="106" y="436"/>
      <point x="91" y="457"/>
      <point x="91" y="476" type="curve" smooth="yes"/>
      <point x="91" y="504"/>
      <point x="122" y="543"/>
      <point x="136" y="560" type="curve"/>
      <point x="374" y="560" type="line" smooth="yes"/>
      <point x="435" y="560"/>
      <point x="437" y="575"/>
      <point x="437" y="610" type="curve" smooth="yes"/>
      <point x="437" y="674" type="line"/>
      <point x="411" y="674" type="line"/>
      <point x="411" y="610" type="line" smooth="yes"/>
      <point x="411" y="593"/>
      <point x="406" y="586"/>
      <point x="381" y="586" type="curve" smooth="yes"/>
      <point x="130" y="586" type="line"/>
      <point x="85" y="521"/>
      <point x="68" y="493"/>
      <point x="68" y="470" type="curve" smooth="yes"/>
      <point x="68" y="454"/>
      <point x="79" y="436"/>
      <point x="110" y="384" type="curve"/>
    </contour>
  </outline>
</glyph>
<glyph name="uni178A" format="2">
  <advance width="494"/>
  <unicode hex="178A"/>
  <note>
uni178A
</note>
  <outline>
    <contour>
      <point x="93" y="489" type="line"/>
      <point x="329" y="489" type="line" smooth="yes"/>
      <point x="361" y="489"/>
      <point x="404" y="498"/>
      <point x="404" y="566" type="curve" smooth="yes"/>
      <point x="404" y="674" type="line"/>
      <point x="378" y="674" type="line"/>
      <point x="378" y="567" type="line" smooth="yes"/>
      <point x="378" y="533"/>
      <point x="369" y="513"/>
      <point x="312" y="513" type="curve" smooth="yes"/>
      <point x="117" y="513" type="line"/>
      <point x="117" y="610" type="line"/>
      <point x="93" y="610" type="line"/>
    </contour>
    <contour>
      <point x="90" y="0" type="line"/>
      <point x="125" y="0" type="line"/>
      <point x="248" y="132" type="line"/>
      <point x="369" y="0" type="line"/>
      <point x="404" y="0" type="line"/>
      <point x="404" y="402" type="line"/>
      <point x="378" y="402" type="line"/>
      <point x="378" y="29" type="line"/>
      <point x="248" y="170" type="line"/>
      <point x="116" y="29" type="line"/>
      <point x="116" y="402" type="line"/>
      <point x="90" y="402" type="line"/>
    </contour>
  </outline>
</glyph>
<glyph name="uni178B" format="2">
  <advance width="540"/>
  <unicode hex="178B"/>
  <note>
uni178B
</note>
  <outline>
    <contour>
      <point x="280" y="0" type="curve" smooth="yes"/>
      <point x="375" y="0"/>
      <point x="437" y="53"/>
      <point x="437" y="158" type="curve" smooth="yes"/>
      <point x="437" y="395" type="line"/>
      <point x="315" y="506" type="line"/>
      <point x="353" y="560" type="line"/>
      <point x="403" y="560" type="line" smooth="yes"/>
      <point x="441" y="560"/>
      <point x="450" y="575"/>
      <point x="450" y="611" type="curve" smooth="yes"/>
      <point x="450" y="674" type="line"/>
      <point x="424" y="674" type="line"/>
      <point x="424" y="615" type="line" smooth="yes"/>
      <point x="424" y="593"/>
      <point x="418" y="586"/>
      <point x="400" y="586" type="curve" smooth="yes"/>
      <point x="345" y="586" type="line"/>
      <point x="334" y="572"/>
      <point x="293" y="526"/>
      <point x="293" y="506" type="curve" smooth="yes"/>
      <point x="293" y="491"/>
      <point x="313" y="473"/>
      <point x="411" y="384" type="curve"/>
      <point x="411" y="158" type="line" smooth="yes"/>
      <point x="411" y="64"/>
      <point x="358" y="26"/>
      <point x="280" y="26" type="curve" smooth="yes"/>
      <point x="211" y="26"/>
      <point x="150" y="64"/>
      <point x="150" y="157" type="curve" smooth="yes"/>
      <point x="150" y="553" type="line" smooth="yes"/>
      <point x="150" y="582"/>
      <point x="136" y="586"/>
      <point x="109" y="586" type="curve" smooth="yes"/>
      <point x="60" y="586" type="line"/>
      <point x="60" y="560" type="line"/>
      <point x="108" y="560"/>
      <point x="124" y="560"/>
      <point x="124" y="545" type="curve" smooth="yes"/>
      <point x="124" y="158" type="line" smooth="yes"/>
      <point x="124" y="53"/>
      <point x="186" y="0"/>
    </contour>
  </outline>
</glyph>
<glyph name="uni178C" format="2">
  <advance width="513"/>
  <unicode hex="178C"/>
  <note>
uni178C
</note>
  <outline>
    <contour>
      <point x="387" y="-10" type="line"/>
      <point x="413" y="-10" type="line"/>
      <point x="413" y="234" type="line"/>
      <point x="387" y="234" type="line"/>
      <point x="387" y="158" type="line" smooth="yes"/>
      <point x="387" y="111"/>
      <point x="266" y="26"/>
      <point x="210" y="26" type="curve" smooth="yes"/>
      <point x="152" y="26"/>
      <point x="125" y="73"/>
      <point x="125" y="158" type="curve" smooth="yes"/>
      <point x="125" y="258" type="line"/>
      <point x="245" y="274" type="line" smooth="yes"/>
      <point x="346" y="287"/>
      <point x="423" y="346"/>
      <point x="423" y="466" type="curve" smooth="yes"/>
      <point x="423" y="537"/>
      <point x="385" y="586"/>
      <point x="340" y="586" type="curve" smooth="yes"/>
      <point x="306" y="586"/>
      <point x="291" y="572"/>
      <point x="257" y="534" type="curve"/>
      <point x="256" y="534" type="line"/>
      <point x="224" y="571"/>
      <point x="210" y="586"/>
      <point x="182" y="586" type="curve" smooth="yes"/>
      <point x="140" y="586"/>
      <point x="90" y="534"/>
      <point x="90" y="466" type="curve" smooth="yes"/>
      <point x="90" y="402"/>
      <point x="127" y="351"/>
      <point x="189" y="351" type="curve" smooth="yes"/>
      <point x="197" y="351" type="line"/>
      <point x="197" y="377" type="line"/>
      <point x="139" y="377"/>
      <point x="116" y="417"/>
      <point x="116" y="467" type="curve" smooth="yes"/>
      <point x="116" y="512"/>
      <point x="146" y="560"/>
      <point x="180" y="560" type="curve" smooth="yes"/>
      <point x="216" y="560"/>
      <point x="231" y="506"/>
      <point x="257" y="506" type="curve" smooth="yes"/>
      <point x="270" y="506"/>
      <point x="280" y="522"/>
      <point x="293" y="535" type="curve" smooth="yes"/>
      <point x="309" y="551"/>
      <point x="319" y="560"/>
      <point x="339" y="560" type="curve" smooth="yes"/>
      <point x="371" y="560"/>
      <point x="397" y="522"/>
      <point x="397" y="458" type="curve" smooth="yes"/>
      <point x="397" y="360"/>
      <point x="327" y="310"/>
      <point x="240" y="299" type="curve" smooth="yes"/>
      <point x="99" y="281" type="line"/>
      <point x="99" y="158" type="line" smooth="yes"/>
      <point x="99" y="45"/>
      <point x="139" y="0"/>
      <point x="211" y="0" type="curve" smooth="yes"/>
      <point x="253" y="0"/>
      <point x="324" y="35"/>
      <point x="386" y="101" type="curve"/>
      <point x="387" y="101" type="line"/>
    </contour>
  </outline>
</glyph>
<glyph name="uni178D" format="2">
  <advance width="745"/>
  <unicode hex="178D"/>
  <note>
uni178D
</note>
  <outline>
    <contour>
      <point x="645" y="367" type="line"/>
      <point x="619" y="367" type="line"/>
      <point x="619" y="138" type="line" smooth="yes"/>
      <point x="619" y="69"/>
      <point x="588" y="26"/>
      <point x="536" y="26" type="curve" smooth="yes"/>
      <point x="475" y="26"/>
      <point x="450" y="80"/>
      <point x="424" y="171" type="curve"/>
      <point x="389" y="171" type="line"/>
      <point x="389" y="145" type="line"/>
      <point x="406" y="145" type="line"/>
      <point x="432" y="49"/>
      <point x="466" y="0"/>
      <point x="536" y="0" type="curve" smooth="yes"/>
      <point x="605" y="0"/>
      <point x="645" y="50"/>
      <point x="645" y="148" type="curve" smooth="yes"/>
    </contour>
    <contour>
      <point x="90" y="184" type="line"/>
      <point x="116" y="184" type="line"/>
      <point x="116" y="461" type="line" smooth="yes"/>
      <point x="116" y="538"/>
      <point x="135" y="560"/>
      <point x="163" y="560" type="curve" smooth="yes"/>
      <point x="201" y="560"/>
      <point x="216" y="497"/>
      <point x="245" y="497" type="curve" smooth="yes"/>
      <point x="274" y="497"/>
      <point x="286" y="560"/>
      <point x="331" y="560" type="curve" smooth="yes"/>
      <point x="360" y="560"/>
      <point x="375" y="534"/>
      <point x="375" y="461" type="curve" smooth="yes"/>
      <point x="375" y="0" type="line"/>
      <point x="401" y="0" type="line"/>
      <point x="401" y="466" type="line" smooth="yes"/>
      <point x="401" y="546"/>
      <point x="380" y="586"/>
      <point x="333" y="586" type="curve" smooth="yes"/>
      <point x="301" y="586"/>
      <point x="278" y="564"/>
      <point x="248" y="525" type="curve"/>
      <point x="245" y="525" type="line"/>
      <point x="215" y="566"/>
      <point x="193" y="586"/>
      <point x="162" y="586" type="curve" smooth="yes"/>
      <point x="120" y="586"/>
      <point x="90" y="550"/>
      <point x="90" y="466" type="curve" smooth="yes"/>
    </contour>
    <contour>
      <point x="90" y="208" type="line" smooth="yes"/>
      <point x="90" y="27" type="line" smooth="yes"/>
      <point x="90" y="3"/>
      <point x="106" y="0"/>
      <point x="117" y="0" type="curve" smooth="yes"/>
      <point x="119" y="0" type="line" smooth="yes"/>
      <point x="152" y="0"/>
      <point x="192" y="32"/>
      <point x="192" y="89" type="curve" smooth="yes"/>
      <point x="192" y="146"/>
      <point x="146" y="168"/>
      <point x="116" y="168" type="curve"/>
      <point x="116" y="208" type="line"/>
    </contour>
    <contour>
      <point x="116" y="26" type="curve"/>
      <point x="116" y="141" type="line"/>
      <point x="148" y="141"/>
      <point x="166" y="118"/>
      <point x="166" y="89" type="curve" smooth="yes"/>
      <point x="166" y="61"/>
      <point x="152" y="27"/>
    </contour>
    <contour>
      <point x="619" y="356" type="line"/>
      <point x="645" y="356" type="line"/>
      <point x="645" y="398" type="line"/>
      <point x="577" y="536" type="line"/>
      <point x="584" y="560" type="line"/>
      <point x="661" y="560" type="line"/>
      <point x="661" y="586" type="line"/>
      <point x="585" y="586" type="line"/>
      <point x="572" y="569"/>
      <point x="564" y="547"/>
      <point x="564" y="530" type="curve" smooth="yes"/>
      <point x="564" y="514"/>
      <point x="574" y="484"/>
      <point x="619" y="392" type="curve"/>
    </contour>
  </outline>
</glyph>
<glyph name="uni178E" format="2">
  <advance width="995"/>
  <unicode hex="178E"/>
  <note>
uni178E
</note>
  <outline>
    <contour>
      <point x="90" y="190" type="line"/>
      <point x="116" y="190" type="line"/>
      <point x="116" y="428" type="line" smooth="yes"/>
      <point x="116" y="509"/>
      <point x="153" y="560"/>
      <point x="233" y="560" type="curve" smooth="yes"/>
      <point x="312" y="560"/>
      <point x="350" y="509"/>
      <point x="350" y="428" type="curve" smooth="yes"/>
      <point x="350" y="0" type="line"/>
      <point x="384" y="0" type="line"/>
      <point x="498" y="129" type="line"/>
      <point x="610" y="0" type="line"/>
      <point x="644" y="0" type="line"/>
      <point x="644" y="428" type="line" smooth="yes"/>
      <point x="644" y="509"/>
      <point x="683" y="560"/>
      <point x="762" y="560" type="curve" smooth="yes"/>
      <point x="841" y="560"/>
      <point x="879" y="509"/>
      <point x="879" y="428" type="curve" smooth="yes"/>
      <point x="879" y="0" type="line"/>
      <point x="905" y="0" type="line"/>
      <point x="905" y="428" type="line" smooth="yes"/>
      <point x="905" y="533"/>
      <point x="852" y="586"/>
      <point x="762" y="586" type="curve" smooth="yes"/>
      <point x="672" y="586"/>
      <point x="618" y="533"/>
      <point x="618" y="428" type="curve" smooth="yes"/>
      <point x="618" y="30" type="line"/>
      <point x="498" y="168" type="line"/>
      <point x="376" y="30" type="line"/>
      <point x="376" y="428" type="line" smooth="yes"/>
      <point x="376" y="533"/>
      <point x="323" y="586"/>
      <point x="233" y="586" type="curve" smooth="yes"/>
      <point x="142" y="586"/>
      <point x="90" y="533"/>
      <point x="90" y="428" type="curve" smooth="yes"/>
    </contour>
    <contour>
      <point x="90" y="208" type="line" smooth="yes"/>
      <point x="90" y="27" type="line" smooth="yes"/>
      <point x="90" y="3"/>
      <point x="106" y="0"/>
      <point x="117" y="0" type="curve" smooth="yes"/>
      <point x="119" y="0" type="line" smooth="yes"/>
      <point x="152" y="0"/>
      <point x="192" y="32"/>
      <point x="192" y="89" type="curve" smooth="yes"/>
      <point x="192" y="146"/>
      <point x="146" y="168"/>
      <point x="116" y="168" type="curve"/>
      <point x="116" y="208" type="line"/>
    </contour>
    <contour>
      <point x="116" y="26" type="curve"/>
      <point x="116" y="141" type="line"/>
      <point x="148" y="141"/>
      <point x="166" y="118"/>
      <point x="166" y="89" type="curve" smooth="yes"/>
      <point x="166" y="61"/>
      <point x="152" y="27"/>
    </contour>
  </outline>
</glyph>
<glyph name="uni178F" format="2">
  <advance width="491"/>
  <unicode hex="178F"/>
  <note>
uni178F
</note>
  <outline>
    <contour>
      <point x="90" y="560" type="line"/>
      <point x="401" y="560" type="line"/>
      <point x="401" y="586" type="line"/>
      <point x="90" y="586" type="line"/>
    </contour>
    <contour>
      <point x="90" y="208" type="line" smooth="yes"/>
      <point x="90" y="27" type="line" smooth="yes"/>
      <point x="90" y="3"/>
      <point x="106" y="0"/>
      <point x="117" y="0" type="curve" smooth="yes"/>
      <point x="119" y="0" type="line" smooth="yes"/>
      <point x="152" y="0"/>
      <point x="192" y="32"/>
      <point x="192" y="89" type="curve" smooth="yes"/>
      <point x="192" y="146"/>
      <point x="146" y="168"/>
      <point x="116" y="168" type="curve"/>
      <point x="116" y="208" type="line"/>
    </contour>
    <contour>
      <point x="116" y="26" type="curve"/>
      <point x="116" y="141" type="line"/>
      <point x="148" y="141"/>
      <point x="166" y="118"/>
      <point x="166" y="89" type="curve" smooth="yes"/>
      <point x="166" y="61"/>
      <point x="152" y="27"/>
    </contour>
    <contour>
      <point x="90" y="188" type="line"/>
      <point x="116" y="188" type="line"/>
      <point x="116" y="312" type="line" smooth="yes"/>
      <point x="116" y="394"/>
      <point x="156" y="444"/>
      <point x="245" y="444" type="curve" smooth="yes"/>
      <point x="334" y="444"/>
      <point x="375" y="394"/>
      <point x="375" y="312" type="curve" smooth="yes"/>
      <point x="375" y="0" type="line"/>
      <point x="401" y="0" type="line"/>
      <point x="401" y="312" type="line" smooth="yes"/>
      <point x="401" y="417"/>
      <point x="349" y="470"/>
      <point x="245" y="470" type="curve" smooth="yes"/>
      <point x="142" y="470"/>
      <point x="90" y="417"/>
      <point x="90" y="312" type="curve" smooth="yes"/>
    </contour>
    <contour>
      <point x="90" y="208" type="line" smooth="yes"/>
      <point x="90" y="27" type="line" smooth="yes"/>
      <point x="90" y="3"/>
      <point x="106" y="0"/>
      <point x="117" y="0" type="curve" smooth="yes"/>
      <point x="119" y="0" type="line" smooth="yes"/>
      <point x="152" y="0"/>
      <point x="192" y="32"/>
      <point x="192" y="89" type="curve" smooth="yes"/>
      <point x="192" y="146"/>
      <point x="146" y="168"/>
      <point x="116" y="168" type="curve"/>
      <point x="116" y="208" type="line"/>
    </contour>
    <contour>
      <point x="116" y="26" type="curve"/>
      <point x="116" y="141" type="line"/>
      <point x="148" y="141"/>
      <point x="166" y="118"/>
      <point x="166" y="89" type="curve" smooth="yes"/>
      <point x="166" y="61"/>
      <point x="152" y="27"/>
    </contour>
  </outline>
</glyph>
<glyph name="uni1790" format="2">
  <advance width="503"/>
  <unicode hex="1790"/>
  <note>
uni1790
</note>
  <outline>
    <contour>
      <point x="413" y="246" type="line"/>
      <point x="387" y="246" type="line"/>
      <point x="387" y="152" type="line" smooth="yes"/>
      <point x="387" y="72"/>
      <point x="347" y="26"/>
      <point x="257" y="26" type="curve" smooth="yes"/>
      <point x="167" y="26"/>
      <point x="128" y="72"/>
      <point x="128" y="152" type="curve" smooth="yes"/>
      <point x="128" y="394" type="line"/>
      <point x="98" y="436"/>
      <point x="83" y="457"/>
      <point x="83" y="476" type="curve" smooth="yes"/>
      <point x="83" y="504"/>
      <point x="114" y="543"/>
      <point x="128" y="560" type="curve"/>
      <point x="363" y="560" type="line" smooth="yes"/>
      <point x="404" y="560"/>
      <point x="413" y="581"/>
      <point x="413" y="623" type="curve" smooth="yes"/>
      <point x="413" y="674" type="line"/>
      <point x="391" y="674" type="line"/>
      <point x="391" y="623" type="line" smooth="yes"/>
      <point x="391" y="593"/>
      <point x="382" y="586"/>
      <point x="363" y="586" type="curve" smooth="yes"/>
      <point x="122" y="586" type="line"/>
      <point x="77" y="521"/>
      <point x="60" y="493"/>
      <point x="60" y="470" type="curve" smooth="yes"/>
      <point x="60" y="454"/>
      <point x="71" y="436"/>
      <point x="102" y="384" type="curve"/>
      <point x="102" y="158" type="line" smooth="yes"/>
      <point x="102" y="53"/>
      <point x="151" y="0"/>
      <point x="254" y="0" type="curve" smooth="yes"/>
      <point x="352" y="0"/>
      <point x="413" y="47"/>
      <point x="413" y="158" type="curve" smooth="yes"/>
    </contour>
    <contour>
      <point x="413" y="226" type="line"/>
      <point x="413" y="412" type="line" smooth="yes"/>
      <point x="413" y="431"/>
      <point x="406" y="439"/>
      <point x="377" y="439" type="curve" smooth="yes"/>
      <point x="332" y="439"/>
      <point x="304" y="396"/>
      <point x="304" y="354" type="curve" smooth="yes"/>
      <point x="304" y="297"/>
      <point x="349" y="268"/>
      <point x="387" y="268" type="curve"/>
      <point x="387" y="226" type="line"/>
    </contour>
    <contour>
      <point x="387" y="295" type="line"/>
      <point x="348" y="295"/>
      <point x="330" y="329"/>
      <point x="330" y="354" type="curve" smooth="yes"/>
      <point x="330" y="377"/>
      <point x="339" y="413"/>
      <point x="387" y="413" type="curve"/>
    </contour>
  </outline>
</glyph>
<glyph name="uni1792" format="2">
  <advance width="507"/>
  <unicode hex="1792"/>
  <note>
uni1792
</note>
  <outline>
    <contour>
      <point x="413" y="246" type="line"/>
      <point x="387" y="246" type="line"/>
      <point x="387" y="30" type="line"/>
      <point x="258" y="169" type="line"/>
      <point x="128" y="29" type="line"/>
      <point x="128" y="394" type="line"/>
      <point x="98" y="436"/>
      <point x="83" y="457"/>
      <point x="83" y="476" type="curve" smooth="yes"/>
      <point x="83" y="504"/>
      <point x="114" y="543"/>
      <point x="128" y="560" type="curve"/>
      <point x="417" y="560" type="line"/>
      <point x="417" y="586" type="line"/>
      <point x="122" y="586" type="line"/>
      <point x="77" y="521"/>
      <point x="60" y="493"/>
      <point x="60" y="470" type="curve" smooth="yes"/>
      <point x="60" y="454"/>
      <point x="71" y="436"/>
      <point x="102" y="384" type="curve"/>
      <point x="102" y="0" type="line"/>
      <point x="137" y="0" type="line"/>
      <point x="258" y="131" type="line"/>
      <point x="378" y="0" type="line"/>
      <point x="413" y="0" type="line"/>
    </contour>
    <contour>
      <point x="413" y="226" type="line"/>
      <point x="413" y="412" type="line" smooth="yes"/>
      <point x="413" y="431"/>
      <point x="406" y="439"/>
      <point x="377" y="439" type="curve" smooth="yes"/>
      <point x="332" y="439"/>
      <point x="304" y="396"/>
      <point x="304" y="354" type="curve" smooth="yes"/>
      <point x="304" y="297"/>
      <point x="349" y="268"/>
      <point x="387" y="268" type="curve"/>
      <point x="387" y="226" type="line"/>
    </contour>
    <contour>
      <point x="387" y="295" type="line"/>
      <point x="348" y="295"/>
      <point x="330" y="329"/>
      <point x="330" y="354" type="curve" smooth="yes"/>
      <point x="330" y="377"/>
      <point x="339" y="413"/>
      <point x="387" y="413" type="curve"/>
    </contour>
  </outline>
</glyph>
<glyph name="uni1793" format="2">
  <advance width="505"/>
  <unicode hex="1793"/>
  <note>
uni1793
</note>
  <outline>
    <contour>
      <point x="90" y="0" type="line"/>
      <point x="115" y="0" type="line"/>
      <point x="115" y="141" type="line"/>
      <point x="150" y="141"/>
      <point x="171" y="113"/>
      <point x="205" y="67" type="curve" smooth="yes"/>
      <point x="236" y="25"/>
      <point x="272" y="0"/>
      <point x="312" y="0" type="curve" smooth="yes"/>
      <point x="364" y="0"/>
      <point x="415" y="48"/>
      <point x="415" y="128" type="curve" smooth="yes"/>
      <point x="415" y="237"/>
      <point x="343" y="267"/>
      <point x="243" y="289" type="curve" smooth="yes"/>
      <point x="171" y="305"/>
      <point x="116" y="348"/>
      <point x="116" y="428" type="curve" smooth="yes"/>
      <point x="116" y="519"/>
      <point x="164" y="560"/>
      <point x="248" y="560" type="curve" smooth="yes"/>
      <point x="315" y="560"/>
      <point x="374" y="529"/>
      <point x="374" y="453" type="curve" smooth="yes"/>
      <point x="374" y="399"/>
      <point x="337" y="363"/>
      <point x="318" y="363" type="curve"/>
      <point x="318" y="337" type="line"/>
      <point x="320" y="337" type="line" smooth="yes"/>
      <point x="353" y="337"/>
      <point x="400" y="390"/>
      <point x="400" y="453" type="curve" smooth="yes"/>
      <point x="400" y="546"/>
      <point x="329" y="586"/>
      <point x="248" y="586" type="curve" smooth="yes"/>
      <point x="153" y="586"/>
      <point x="90" y="529"/>
      <point x="90" y="428" type="curve" smooth="yes"/>
      <point x="90" y="320"/>
      <point x="159" y="281"/>
      <point x="252" y="260" type="curve" smooth="yes"/>
      <point x="341" y="240"/>
      <point x="389" y="204"/>
      <point x="389" y="124" type="curve" smooth="yes"/>
      <point x="389" y="67"/>
      <point x="355" y="26"/>
      <point x="313" y="26" type="curve" smooth="yes"/>
      <point x="280" y="26"/>
      <point x="257" y="44"/>
      <point x="228" y="79" type="curve" smooth="yes"/>
      <point x="203" y="109"/>
      <point x="176" y="167"/>
      <point x="115" y="167" type="curve"/>
      <point x="115" y="246" type="line"/>
      <point x="90" y="246" type="line"/>
    </contour>
  </outline>
</glyph>
<glyph name="uni1794" format="2">
  <advance width="537"/>
  <unicode hex="1794"/>
  <note>
uni1794
</note>
  <outline>
    <contour>
      <point x="146" y="371" type="line"/>
      <point x="120" y="371" type="line"/>
      <point x="120" y="158" type="line" smooth="yes"/>
      <point x="120" y="53"/>
      <point x="172" y="0"/>
      <point x="275" y="0" type="curve" smooth="yes"/>
      <point x="379" y="0"/>
      <point x="431" y="53"/>
      <point x="431" y="158" type="curve" smooth="yes"/>
      <point x="431" y="374" type="line"/>
      <point x="405" y="374" type="line"/>
      <point x="405" y="158" type="line" smooth="yes"/>
      <point x="405" y="75"/>
      <point x="364" y="25"/>
      <point x="275" y="25" type="curve" smooth="yes"/>
      <point x="186" y="25"/>
      <point x="146" y="75"/>
      <point x="146" y="158" type="curve" smooth="yes"/>
    </contour>
    <contour>
      <point x="405" y="356" type="line"/>
      <point x="431" y="356" type="line"/>
      <point x="431" y="398" type="line"/>
      <point x="363" y="536" type="line"/>
      <point x="370" y="560" type="line"/>
      <point x="447" y="560" type="line"/>
      <point x="447" y="586" type="line"/>
      <point x="371" y="586" type="line"/>
      <point x="358" y="569"/>
      <point x="350" y="547"/>
      <point x="350" y="530" type="curve" smooth="yes"/>
      <point x="350" y="514"/>
      <point x="360" y="484"/>
      <point x="405" y="392" type="curve"/>
    </contour>
    <contour>
      <point x="120" y="355" type="line"/>
      <point x="146" y="355" type="line"/>
      <point x="146" y="398" type="line"/>
      <point x="73" y="536" type="line"/>
      <point x="80" y="560" type="line"/>
      <point x="157" y="560" type="line"/>
      <point x="157" y="586" type="line"/>
      <point x="81" y="586" type="line"/>
      <point x="68" y="569"/>
      <point x="60" y="547"/>
      <point x="60" y="530" type="curve" smooth="yes"/>
      <point x="60" y="514"/>
      <point x="73" y="484"/>
      <point x="120" y="392" type="curve"/>
    </contour>
  </outline>
</glyph>
<glyph name="uni1796" format="2">
  <advance width="491"/>
  <unicode hex="1796"/>
  <note>
uni1796
</note>
  <outline>
    <contour>
      <point x="90" y="183.997" type="line"/>
      <point x="116" y="183.997" type="line"/>
      <point x="116" y="461" type="line" smooth="yes"/>
      <point x="116" y="538"/>
      <point x="135" y="560"/>
      <point x="163" y="560" type="curve" smooth="yes"/>
      <point x="201" y="560"/>
      <point x="216" y="497"/>
      <point x="245" y="497" type="curve" smooth="yes"/>
      <point x="274" y="497"/>
      <point x="286" y="560"/>
      <point x="331" y="560" type="curve" smooth="yes"/>
      <point x="360" y="560"/>
      <point x="375" y="534"/>
      <point x="375" y="461" type="curve" smooth="yes"/>
      <point x="375" y="0" type="line"/>
      <point x="401" y="0" type="line"/>
      <point x="401" y="466" type="line" smooth="yes"/>
      <point x="401" y="546"/>
      <point x="380" y="586"/>
      <point x="333" y="586" type="curve" smooth="yes"/>
      <point x="301" y="586"/>
      <point x="278" y="564"/>
      <point x="248" y="525" type="curve"/>
      <point x="245" y="525" type="line"/>
      <point x="215" y="566"/>
      <point x="193" y="586"/>
      <point x="162" y="586" type="curve" smooth="yes"/>
      <point x="120" y="586"/>
      <point x="90" y="550"/>
      <point x="90" y="466" type="curve" smooth="yes"/>
    </contour>
    <contour>
      <point x="90" y="208" type="line" smooth="yes"/>
      <point x="90" y="27" type="line" smooth="yes"/>
      <point x="90" y="3"/>
      <point x="106" y="0"/>
      <point x="117" y="0" type="curve" smooth="yes"/>
      <point x="119" y="0" type="line" smooth="yes"/>
      <point x="152" y="0"/>
      <point x="192" y="32"/>
      <point x="192" y="89" type="curve" smooth="yes"/>
      <point x="192" y="146"/>
      <point x="146" y="168"/>
      <point x="116" y="168" type="curve"/>
      <point x="116" y="208" type="line"/>
    </contour>
    <contour>
      <point x="116" y="26" type="curve"/>
      <point x="116" y="141" type="line"/>
      <point x="148" y="141"/>
      <point x="166" y="118"/>
      <point x="166" y="89" type="curve" smooth="yes"/>
      <point x="166" y="61"/>
      <point x="152" y="27"/>
    </contour>
  </outline>
</glyph>
<glyph name="uni1797" format="2">
  <advance width="500"/>
  <unicode hex="1797"/>
  <note>
uni1797
</note>
  <outline>
    <contour>
      <point x="95" y="560" type="line"/>
      <point x="410" y="560" type="line"/>
      <point x="410" y="586" type="line"/>
      <point x="95" y="586" type="line"/>
    </contour>
    <contour>
      <point x="86" y="-2" type="curve" smooth="yes"/>
      <point x="128" y="-2"/>
      <point x="144" y="49"/>
      <point x="144" y="91" type="curve" smooth="yes"/>
      <point x="144" y="162"/>
      <point x="123" y="232"/>
      <point x="123" y="300" type="curve" smooth="yes"/>
      <point x="123" y="389"/>
      <point x="168" y="432"/>
      <point x="261" y="432" type="curve" smooth="yes"/>
      <point x="329" y="432"/>
      <point x="383" y="397"/>
      <point x="383" y="312" type="curve" smooth="yes"/>
      <point x="383" y="0" type="line"/>
      <point x="409" y="0" type="line"/>
      <point x="409" y="312" type="line" smooth="yes"/>
      <point x="409" y="412"/>
      <point x="347" y="458"/>
      <point x="259" y="458" type="curve" smooth="yes"/>
      <point x="151" y="458"/>
      <point x="97" y="399"/>
      <point x="97" y="300" type="curve" smooth="yes"/>
      <point x="97" y="228"/>
      <point x="118" y="149"/>
      <point x="118" y="89" type="curve" smooth="yes"/>
      <point x="118" y="57"/>
      <point x="111" y="24"/>
      <point x="87" y="24" type="curve" smooth="yes"/>
      <point x="56" y="24"/>
      <point x="36" y="72"/>
      <point x="21" y="111" type="curve"/>
      <point x="0" y="103" type="line"/>
      <point x="17" y="36"/>
      <point x="45" y="-2"/>
    </contour>
  </outline>
</glyph>
<glyph name="uni1799" format="2">
  <advance width="771"/>
  <unicode hex="1799"/>
  <note>
uni1799
</note>
  <outline>
    <contour>
      <point x="665" y="376" type="line"/>
      <point x="639" y="376" type="line"/>
      <point x="639" y="158" type="line" smooth="yes"/>
      <point x="639" y="78"/>
      <point x="600" y="26"/>
      <point x="523" y="26" type="curve" smooth="yes"/>
      <point x="436" y="26"/>
      <point x="403" y="55"/>
      <point x="403" y="134" type="curve" smooth="yes"/>
      <point x="403" y="376" type="line"/>
      <point x="377" y="376" type="line"/>
      <point x="377" y="134" type="line" smooth="yes"/>
      <point x="377" y="46"/>
      <point x="344" y="26"/>
      <point x="245" y="26" type="curve" smooth="yes"/>
      <point x="159" y="26"/>
      <point x="116" y="67"/>
      <point x="116" y="158" type="curve" smooth="yes"/>
      <point x="116" y="532" type="line" smooth="yes"/>
      <point x="116" y="555"/>
      <point x="130" y="560"/>
      <point x="180" y="560" type="curve"/>
      <point x="180" y="586" type="line"/>
      <point x="153" y="586" type="line" smooth="yes"/>
      <point x="110" y="586"/>
      <point x="90" y="569"/>
      <point x="90" y="536" type="curve" smooth="yes"/>
      <point x="90" y="158" type="line" smooth="yes"/>
      <point x="90" y="57"/>
      <point x="142" y="0"/>
      <point x="245" y="0" type="curve" smooth="yes"/>
      <point x="248" y="0" type="line" smooth="yes"/>
      <point x="308" y="0"/>
      <point x="361" y="13"/>
      <point x="390" y="48" type="curve"/>
      <point x="394" y="48" type="line"/>
      <point x="420" y="16"/>
      <point x="466" y="0"/>
      <point x="523" y="0" type="curve" smooth="yes"/>
      <point x="608" y="0"/>
      <point x="665" y="62"/>
      <point x="665" y="158" type="curve" smooth="yes"/>
    </contour>
    <contour>
      <point x="639" y="356" type="line"/>
      <point x="665" y="356" type="line"/>
      <point x="665" y="398" type="line"/>
      <point x="597" y="536" type="line"/>
      <point x="604" y="560" type="line"/>
      <point x="681" y="560" type="line"/>
      <point x="681" y="586" type="line"/>
      <point x="605" y="586" type="line"/>
      <point x="592" y="569"/>
      <point x="584" y="547"/>
      <point x="584" y="530" type="curve" smooth="yes"/>
      <point x="584" y="514"/>
      <point x="594" y="484"/>
      <point x="639" y="392" type="curve"/>
    </contour>
    <contour>
      <point x="377" y="355" type="line"/>
      <point x="403" y="355" type="line"/>
      <point x="403" y="398" type="line"/>
      <point x="330" y="536" type="line"/>
      <point x="337" y="560" type="line"/>
      <point x="414" y="560" type="line"/>
      <point x="414" y="586" type="line"/>
      <point x="338" y="586" type="line"/>
      <point x="325" y="569"/>
      <point x="317" y="547"/>
      <point x="317" y="530" type="curve" smooth="yes"/>
      <point x="317" y="514"/>
      <point x="330" y="484"/>
      <point x="377" y="392" type="curve"/>
    </contour>
  </outline>
</glyph>
<glyph name="uni179B" format="2">
  <advance width="763"/>
  <unicode hex="179B"/>
  <note>
uni179B
</note>
  <outline>
    <contour>
      <point x="657" y="370" type="line"/>
      <point x="631" y="370" type="line"/>
      <point x="631" y="158" type="line" smooth="yes"/>
      <point x="631" y="75"/>
      <point x="593" y="26"/>
      <point x="512" y="26" type="curve" smooth="yes"/>
      <point x="433" y="26"/>
      <point x="394" y="75"/>
      <point x="394" y="158" type="curve" smooth="yes"/>
      <point x="394" y="428" type="line" smooth="yes"/>
      <point x="394" y="533"/>
      <point x="343" y="586"/>
      <point x="245" y="586" type="curve" smooth="yes"/>
      <point x="148" y="586"/>
      <point x="100" y="533"/>
      <point x="100" y="428" type="curve" smooth="yes"/>
      <point x="100" y="191" type="line"/>
      <point x="126" y="191" type="line"/>
      <point x="126" y="428" type="line" smooth="yes"/>
      <point x="126" y="509"/>
      <point x="164" y="560"/>
      <point x="245" y="560" type="curve" smooth="yes"/>
      <point x="328" y="560"/>
      <point x="368" y="509"/>
      <point x="368" y="428" type="curve" smooth="yes"/>
      <point x="368" y="158" type="line" smooth="yes"/>
      <point x="368" y="53"/>
      <point x="417" y="0"/>
      <point x="512" y="0" type="curve" smooth="yes"/>
      <point x="608" y="0"/>
      <point x="657" y="53"/>
      <point x="657" y="158" type="curve" smooth="yes"/>
    </contour>
    <contour>
      <point x="100" y="208" type="line" smooth="yes"/>
      <point x="100" y="27" type="line" smooth="yes"/>
      <point x="100" y="3"/>
      <point x="116" y="0"/>
      <point x="127" y="0" type="curve" smooth="yes"/>
      <point x="129" y="0" type="line" smooth="yes"/>
      <point x="162" y="0"/>
      <point x="202" y="32"/>
      <point x="202" y="89" type="curve" smooth="yes"/>
      <point x="202" y="146"/>
      <point x="156" y="168"/>
      <point x="126" y="168" type="curve"/>
      <point x="126" y="208" type="line"/>
    </contour>
    <contour>
      <point x="126" y="26" type="curve"/>
      <point x="126" y="141" type="line"/>
      <point x="158" y="141"/>
      <point x="176" y="118"/>
      <point x="176" y="89" type="curve" smooth="yes"/>
      <point x="176" y="61"/>
      <point x="162" y="27"/>
    </contour>
    <contour>
      <point x="631" y="356" type="line"/>
      <point x="657" y="356" type="line"/>
      <point x="657" y="398" type="line"/>
      <point x="589" y="536" type="line"/>
      <point x="596" y="560" type="line"/>
      <point x="673" y="560" type="line"/>
      <point x="673" y="586" type="line"/>
      <point x="597" y="586" type="line"/>
      <point x="584" y="569"/>
      <point x="576" y="547"/>
      <point x="576" y="530" type="curve" smooth="yes"/>
      <point x="576" y="514"/>
      <point x="586" y="484"/>
      <point x="631" y="392" type="curve"/>
    </contour>
  </outline>
</glyph>
<glyph name="uni179C" format="2">
  <advance width="253"/>
  <unicode hex="179C"/>
  <note>
uni179C
</note>
  <outline>
    <contour>
      <point x="140" y="365" type="line"/>
      <point x="166" y="365" type="line"/>
      <point x="166" y="398" type="line"/>
      <point x="81" y="515" type="line"/>
      <point x="104" y="560" type="line"/>
      <point x="144" y="560" type="line" smooth="yes"/>
      <point x="187" y="560"/>
      <point x="193" y="575"/>
      <point x="193" y="610" type="curve" smooth="yes"/>
      <point x="193" y="674" type="line"/>
      <point x="167" y="674" type="line"/>
      <point x="167" y="610" type="line" smooth="yes"/>
      <point x="167" y="593"/>
      <point x="163" y="586"/>
      <point x="146" y="586" type="curve" smooth="yes"/>
      <point x="101" y="586" type="line"/>
      <point x="81" y="550"/>
      <point x="63" y="529"/>
      <point x="63" y="512" type="curve" smooth="yes"/>
      <point x="63" y="489"/>
      <point x="100" y="447"/>
      <point x="140" y="388" type="curve"/>
    </contour>
    <contour>
      <point x="166" y="372" type="line"/>
      <point x="140" y="372" type="line"/>
      <point x="140" y="178" type="line"/>
      <point x="102" y="178"/>
      <point x="60" y="148"/>
      <point x="60" y="83" type="curve" smooth="yes"/>
      <point x="60" y="30"/>
      <point x="97" y="0"/>
      <point x="135" y="0" type="curve" smooth="yes"/>
      <point x="140" y="0" type="line" smooth="yes"/>
      <point x="155" y="0"/>
      <point x="166" y="9"/>
      <point x="166" y="22" type="curve" smooth="yes"/>
    </contour>
    <contour>
      <point x="140" y="25" type="line"/>
      <point x="108" y="25"/>
      <point x="87" y="45"/>
      <point x="87" y="85" type="curve" smooth="yes"/>
      <point x="87" y="127"/>
      <point x="117" y="149"/>
      <point x="140" y="149" type="curve"/>
    </contour>
  </outline>
</glyph>
<glyph name="uni179E" format="2">
  <advance width="542"/>
  <unicode hex="179E"/>
  <note>
uni179E
</note>
  <outline>
    <contour>
      <point x="341" y="280" type="line"/>
      <point x="482" y="280" type="line"/>
      <point x="482" y="306" type="line"/>
      <point x="341" y="306" type="line"/>
    </contour>
    <contour>
      <point x="146" y="371" type="line"/>
      <point x="120" y="371" type="line"/>
      <point x="120" y="158" type="line" smooth="yes"/>
      <point x="120" y="53"/>
      <point x="172" y="0"/>
      <point x="275" y="0" type="curve" smooth="yes"/>
      <point x="379" y="0"/>
      <point x="431" y="53"/>
      <point x="431" y="158" type="curve" smooth="yes"/>
      <point x="431" y="374" type="line"/>
      <point x="405" y="374" type="line"/>
      <point x="405" y="158" type="line" smooth="yes"/>
      <point x="405" y="75"/>
      <point x="364" y="25"/>
      <point x="275" y="25" type="curve" smooth="yes"/>
      <point x="186" y="25"/>
      <point x="146" y="75"/>
      <point x="146" y="158" type="curve" smooth="yes"/>
    </contour>
    <contour>
      <point x="405" y="356" type="line"/>
      <point x="431" y="356" type="line"/>
      <point x="431" y="398" type="line"/>
      <point x="363" y="536" type="line"/>
      <point x="370" y="560" type="line"/>
      <point x="447" y="560" type="line"/>
      <point x="447" y="586" type="line"/>
      <point x="371" y="586" type="line"/>
      <point x="358" y="569"/>
      <point x="350" y="547"/>
      <point x="350" y="530" type="curve" smooth="yes"/>
      <point x="350" y="514"/>
      <point x="360" y="484"/>
      <point x="405" y="392" type="curve"/>
    </contour>
    <contour>
      <point x="120" y="355" type="line"/>
      <point x="146" y="355" type="line"/>
      <point x="146" y="398" type="line"/>
      <point x="73" y="536" type="line"/>
      <point x="80" y="560" type="line"/>
      <point x="157" y="560" type="line"/>
      <point x="157" y="586" type="line"/>
      <point x="81" y="586" type="line"/>
      <point x="68" y="569"/>
      <point x="60" y="547"/>
      <point x="60" y="530" type="curve" smooth="yes"/>
      <point x="60" y="514"/>
      <point x="73" y="484"/>
      <point x="120" y="392" type="curve"/>
    </contour>
  </outline>
</glyph>
<glyph name="uni17A1" format="2">
  <advance width="664"/>
  <unicode hex="17A1"/>
  <note>
uni17A1
</note>
  <outline>
    <contour>
      <point x="243" y="0" type="curve" smooth="yes"/>
      <point x="326" y="0"/>
      <point x="376" y="53"/>
      <point x="376" y="158" type="curve" smooth="yes"/>
      <point x="376" y="240" type="line"/>
      <point x="391" y="243"/>
      <point x="400" y="254"/>
      <point x="400" y="270" type="curve" smooth="yes"/>
      <point x="400" y="286"/>
      <point x="388" y="295"/>
      <point x="377" y="295" type="curve" smooth="yes"/>
      <point x="362" y="295"/>
      <point x="349" y="286"/>
      <point x="349" y="264" type="curve"/>
      <point x="178" y="297"/>
      <point x="116" y="331"/>
      <point x="116" y="428" type="curve" smooth="yes"/>
      <point x="116" y="519"/>
      <point x="151" y="560"/>
      <point x="247" y="560" type="curve" smooth="yes"/>
      <point x="334" y="560"/>
      <point x="375" y="514"/>
      <point x="375" y="438" type="curve" smooth="yes"/>
      <point x="375" y="414" type="line"/>
      <point x="401" y="414" type="line"/>
      <point x="401" y="438" type="line" smooth="yes"/>
      <point x="401" y="522"/>
      <point x="348" y="586"/>
      <point x="247" y="586" type="curve" smooth="yes"/>
      <point x="141" y="586"/>
      <point x="90" y="529"/>
      <point x="90" y="428" type="curve" smooth="yes"/>
      <point x="90" y="322"/>
      <point x="152" y="277"/>
      <point x="350" y="242" type="curve"/>
      <point x="350" y="158" type="line" smooth="yes"/>
      <point x="350" y="78"/>
      <point x="315" y="26"/>
      <point x="243" y="26" type="curve" smooth="yes"/>
      <point x="170" y="26"/>
      <point x="136" y="77"/>
      <point x="136" y="158" type="curve" smooth="yes"/>
      <point x="136" y="246" type="line"/>
      <point x="110" y="246" type="line"/>
      <point x="110" y="158" type="line" smooth="yes"/>
      <point x="110" y="53"/>
      <point x="161" y="0"/>
    </contour>
    <contour>
      <point x="558" y="374" type="line"/>
      <point x="532" y="374" type="line"/>
      <point x="532" y="-208" type="line"/>
      <point x="415" y="-70" type="line"/>
      <point x="297" y="-210" type="line"/>
      <point x="297" y="-80" type="line" smooth="yes"/>
      <point x="297" y="-59"/>
      <point x="286" y="-49"/>
      <point x="263" y="-49" type="curve" smooth="yes"/>
      <point x="225" y="-49" type="line"/>
      <point x="225" y="-75" type="line"/>
      <point x="256" y="-75"/>
      <point x="271" y="-75"/>
      <point x="271" y="-98" type="curve" smooth="yes"/>
      <point x="271" y="-239" type="line"/>
      <point x="307" y="-239" type="line"/>
      <point x="415" y="-111" type="line"/>
      <point x="523" y="-239" type="line"/>
      <point x="558" y="-239" type="line"/>
    </contour>
    <contour>
      <point x="532" y="356" type="line"/>
      <point x="558" y="356" type="line"/>
      <point x="558" y="398" type="line"/>
      <point x="490" y="536" type="line"/>
      <point x="497" y="560" type="line"/>
      <point x="574" y="560" type="line"/>
      <point x="574" y="586" type="line"/>
      <point x="498" y="586" type="line"/>
      <point x="485" y="569"/>
      <point x="477" y="547"/>
      <point x="477" y="530" type="curve" smooth="yes"/>
      <point x="477" y="514"/>
      <point x="487" y="484"/>
      <point x="532" y="392" type="curve"/>
    </contour>
  </outline>
</glyph>
<glyph name="uni17A2" format="2">
  <advance width="556"/>
  <unicode hex="17A2"/>
  <note>
uni17A2
</note>
  <outline>
    <contour>
      <point x="450" y="371" type="line"/>
      <point x="424" y="371" type="line"/>
      <point x="424" y="306" type="line"/>
      <point x="161" y="306" type="line"/>
      <point x="161" y="371" type="line"/>
      <point x="135" y="371" type="line"/>
      <point x="135" y="66" type="line" smooth="yes"/>
      <point x="135" y="34"/>
      <point x="114" y="26"/>
      <point x="60" y="26" type="curve"/>
      <point x="60" y="0" type="line"/>
      <point x="70" y="0" type="line" smooth="yes"/>
      <point x="146" y="0"/>
      <point x="161" y="30"/>
      <point x="161" y="71" type="curve" smooth="yes"/>
      <point x="161" y="279" type="line"/>
      <point x="424" y="279" type="line"/>
      <point x="424" y="66" type="line" smooth="yes"/>
      <point x="424" y="34"/>
      <point x="402" y="26"/>
      <point x="349" y="26" type="curve"/>
      <point x="349" y="0" type="line"/>
      <point x="359" y="0" type="line" smooth="yes"/>
      <point x="435" y="0"/>
      <point x="450" y="30"/>
      <point x="450" y="71" type="curve" smooth="yes"/>
    </contour>
    <contour>
      <point x="424" y="356" type="line"/>
      <point x="450" y="356" type="line"/>
      <point x="450" y="398" type="line"/>
      <point x="382" y="536" type="line"/>
      <point x="389" y="560" type="line"/>
      <point x="466" y="560" type="line"/>
      <point x="466" y="586" type="line"/>
      <point x="390" y="586" type="line"/>
      <point x="377" y="569"/>
      <point x="369" y="547"/>
      <point x="369" y="530" type="curve" smooth="yes"/>
      <point x="369" y="514"/>
      <point x="379" y="484"/>
      <point x="424" y="392" type="curve"/>
    </contour>
    <contour>
      <point x="135" y="355" type="line"/>
      <point x="161" y="355" type="line"/>
      <point x="161" y="398" type="line"/>
      <point x="88" y="536" type="line"/>
      <point x="95" y="560" type="line"/>
      <point x="172" y="560" type="line"/>
      <point x="172" y="586" type="line"/>
      <point x="96" y="586" type="line"/>
      <point x="83" y="569"/>
      <point x="75" y="547"/>
      <point x="75" y="530" type="curve" smooth="yes"/>
      <point x="75" y="514"/>
      <point x="88" y="484"/>
      <point x="135" y="392" type="curve"/>
    </contour>
  </outline>
</glyph>
<glyph name="uni17A5" format="2">
  <advance width="516"/>
  <unicode hex="17A5"/>
  <note>
uni17A5
</note>
  <outline>
    <contour>
      <point x="105" y="431" type="curve"/>
      <point x="124" y="449" type="line"/>
      <point x="93" y="481"/>
      <point x="81" y="498"/>
      <point x="81" y="512" type="curve" smooth="yes"/>
      <point x="81" y="529"/>
      <point x="102" y="557"/>
      <point x="113" y="560" type="curve"/>
      <point x="338" y="560" type="line" smooth="yes"/>
      <point x="406" y="560"/>
      <point x="408" y="575"/>
      <point x="408" y="610" type="curve" smooth="yes"/>
      <point x="408" y="684" type="line"/>
      <point x="386" y="684" type="line"/>
      <point x="386" y="610" type="line" smooth="yes"/>
      <point x="386" y="593"/>
      <point x="382" y="586"/>
      <point x="353" y="586" type="curve" smooth="yes"/>
      <point x="111" y="586" type="line"/>
      <point x="78" y="557"/>
      <point x="55" y="531"/>
      <point x="55" y="506" type="curve" smooth="yes"/>
      <point x="55" y="491"/>
      <point x="60" y="478"/>
    </contour>
    <contour>
      <point x="92" y="188" type="line"/>
      <point x="118" y="188" type="line"/>
      <point x="118" y="312" type="line" smooth="yes"/>
      <point x="118" y="394"/>
      <point x="158" y="444"/>
      <point x="247" y="444" type="curve" smooth="yes"/>
      <point x="336" y="444"/>
      <point x="377" y="394"/>
      <point x="377" y="312" type="curve" smooth="yes"/>
      <point x="377" y="0" type="line"/>
      <point x="403" y="0" type="line"/>
      <point x="403" y="312" type="line" smooth="yes"/>
      <point x="403" y="417"/>
      <point x="351" y="470"/>
      <point x="247" y="470" type="curve" smooth="yes"/>
      <point x="144" y="470"/>
      <point x="92" y="417"/>
      <point x="92" y="312" type="curve" smooth="yes"/>
    </contour>
    <contour>
      <point x="92" y="208" type="line" smooth="yes"/>
      <point x="92" y="27" type="line" smooth="yes"/>
      <point x="92" y="3"/>
      <point x="108" y="0"/>
      <point x="119" y="0" type="curve" smooth="yes"/>
      <point x="121" y="0" type="line" smooth="yes"/>
      <point x="154" y="0"/>
      <point x="194" y="32"/>
      <point x="194" y="89" type="curve" smooth="yes"/>
      <point x="194" y="146"/>
      <point x="148" y="168"/>
      <point x="118" y="168" type="curve"/>
      <point x="118" y="208" type="line"/>
    </contour>
    <contour>
      <point x="118" y="26" type="curve"/>
      <point x="118" y="141" type="line"/>
      <point x="150" y="141"/>
      <point x="168" y="118"/>
      <point x="168" y="89" type="curve" smooth="yes"/>
      <point x="168" y="61"/>
      <point x="154" y="27"/>
    </contour>
  </outline>
</glyph>
<glyph name="uni17A6" format="2">
  <advance width="754"/>
  <unicode hex="17A6"/>
  <note>
uni17A6
</note>
  <outline>
    <contour>
      <point x="664" y="533" type="line"/>
      <point x="638" y="533" type="line"/>
      <point x="638" y="-115" type="line" smooth="yes"/>
      <point x="638" y="-174"/>
      <point x="576" y="-216"/>
      <point x="513" y="-216" type="curve" smooth="yes"/>
      <point x="448" y="-216"/>
      <point x="397" y="-184"/>
      <point x="397" y="-119" type="curve" smooth="yes"/>
      <point x="397" y="-47"/>
      <point x="320" y="-24"/>
      <point x="264" y="-24" type="curve" smooth="yes"/>
      <point x="190" y="-24"/>
      <point x="122" y="-57"/>
      <point x="122" y="-138" type="curve" smooth="yes"/>
      <point x="122" y="-208" type="line" smooth="yes"/>
      <point x="122" y="-232"/>
      <point x="133" y="-244"/>
      <point x="170" y="-244" type="curve" smooth="yes"/>
      <point x="190" y="-244" type="line"/>
      <point x="190" y="-218" type="line"/>
      <point x="165" y="-218"/>
      <point x="148" y="-218"/>
      <point x="148" y="-200" type="curve" smooth="yes"/>
      <point x="148" y="-138" type="line" smooth="yes"/>
      <point x="148" y="-74"/>
      <point x="212" y="-50"/>
      <point x="264" y="-50" type="curve" smooth="yes"/>
      <point x="336" y="-50"/>
      <point x="368" y="-83"/>
      <point x="368" y="-127" type="curve" smooth="yes"/>
      <point x="368" y="-209"/>
      <point x="430" y="-244"/>
      <point x="513" y="-244" type="curve" smooth="yes"/>
      <point x="592" y="-244"/>
      <point x="664" y="-192"/>
      <point x="664" y="-127" type="curve" smooth="yes"/>
    </contour>
    <contour>
      <point x="111" y="188" type="line"/>
      <point x="137" y="188" type="line"/>
      <point x="137" y="427" type="line" smooth="yes"/>
      <point x="137" y="509"/>
      <point x="177" y="559"/>
      <point x="266" y="559" type="curve" smooth="yes"/>
      <point x="355" y="559"/>
      <point x="396" y="509"/>
      <point x="396" y="427" type="curve" smooth="yes"/>
      <point x="396" y="0" type="line"/>
      <point x="422" y="0" type="line"/>
      <point x="422" y="427" type="line" smooth="yes"/>
      <point x="422" y="532"/>
      <point x="370" y="585"/>
      <point x="266" y="585" type="curve" smooth="yes"/>
      <point x="163" y="585"/>
      <point x="111" y="532"/>
      <point x="111" y="427" type="curve" smooth="yes"/>
    </contour>
    <contour>
      <point x="111" y="208" type="line" smooth="yes"/>
      <point x="111" y="27" type="line" smooth="yes"/>
      <point x="111" y="3"/>
      <point x="127" y="0"/>
      <point x="138" y="0" type="curve" smooth="yes"/>
      <point x="140" y="0" type="line" smooth="yes"/>
      <point x="173" y="0"/>
      <point x="213" y="32"/>
      <point x="213" y="89" type="curve" smooth="yes"/>
      <point x="213" y="146"/>
      <point x="167" y="168"/>
      <point x="137" y="168" type="curve"/>
      <point x="137" y="208" type="line"/>
    </contour>
    <contour>
      <point x="137" y="26" type="curve"/>
      <point x="137" y="141" type="line"/>
      <point x="169" y="141"/>
      <point x="187" y="118"/>
      <point x="187" y="89" type="curve" smooth="yes"/>
      <point x="187" y="61"/>
      <point x="173" y="27"/>
    </contour>
    <contour>
      <point x="638" y="516" type="line"/>
      <point x="664" y="516" type="line"/>
      <point x="664" y="640" type="line" smooth="yes"/>
      <point x="664" y="734"/>
      <point x="608" y="787"/>
      <point x="535" y="787" type="curve" smooth="yes"/>
      <point x="483" y="787"/>
      <point x="455" y="765"/>
      <point x="429" y="735" type="curve"/>
      <point x="429" y="929" type="line"/>
      <point x="403" y="929" type="line"/>
      <point x="403" y="693" type="line"/>
      <point x="429" y="693" type="line"/>
      <point x="453" y="731"/>
      <point x="481" y="761"/>
      <point x="534" y="761" type="curve" smooth="yes"/>
      <point x="607" y="761"/>
      <point x="638" y="708"/>
      <point x="638" y="624" type="curve" smooth="yes"/>
    </contour>
  </outline>
</glyph>
<glyph name="uni17A9" format="2">
  <advance width="514"/>
  <unicode hex="17A9"/>
  <note>
uni17A9
</note>
  <outline>
    <contour>
      <point x="428" y="-4" type="line"/>
      <point x="454" y="-4" type="line"/>
      <point x="454" y="234" type="line"/>
      <point x="428" y="234" type="line"/>
    </contour>
    <contour>
      <point x="377" y="-4" type="line"/>
      <point x="403" y="-4" type="line"/>
      <point x="403" y="234" type="line"/>
      <point x="377" y="234" type="line"/>
      <point x="377" y="174" type="line" smooth="yes"/>
      <point x="377" y="148"/>
      <point x="292" y="26"/>
      <point x="208" y="26" type="curve" smooth="yes"/>
      <point x="153" y="26"/>
      <point x="116" y="60"/>
      <point x="116" y="151" type="curve" smooth="yes"/>
      <point x="116" y="259" type="line"/>
      <point x="185" y="267" type="line" smooth="yes"/>
      <point x="327" y="283"/>
      <point x="403" y="342"/>
      <point x="403" y="452" type="curve" smooth="yes"/>
      <point x="403" y="536"/>
      <point x="340" y="586"/>
      <point x="245" y="586" type="curve" smooth="yes"/>
      <point x="164" y="586"/>
      <point x="90" y="542"/>
      <point x="90" y="450" type="curve" smooth="yes"/>
      <point x="90" y="401"/>
      <point x="124" y="351"/>
      <point x="159" y="351" type="curve" smooth="yes"/>
      <point x="164" y="351" type="line"/>
      <point x="164" y="377" type="line"/>
      <point x="132" y="377"/>
      <point x="115" y="418"/>
      <point x="115" y="447" type="curve" smooth="yes"/>
      <point x="115" y="544"/>
      <point x="200" y="560"/>
      <point x="245" y="560" type="curve" smooth="yes"/>
      <point x="334" y="560"/>
      <point x="377" y="517"/>
      <point x="377" y="446" type="curve" smooth="yes"/>
      <point x="377" y="353"/>
      <point x="308" y="306"/>
      <point x="180" y="294" type="curve" smooth="yes"/>
      <point x="90" y="286" type="line"/>
      <point x="90" y="151" type="line" smooth="yes"/>
      <point x="90" y="52"/>
      <point x="127" y="0"/>
      <point x="204" y="0" type="curve" smooth="yes"/>
      <point x="286" y="0"/>
      <point x="343" y="69"/>
      <point x="376" y="122" type="curve"/>
      <point x="377" y="122" type="line"/>
    </contour>
  </outline>
</glyph>
<glyph name="uni17AA" format="2">
  <advance width="508"/>
  <unicode hex="17AA"/>
  <note>
uni17AA
</note>
  <outline>
    <contour>
      <point x="105" y="544" type="curve"/>
      <point x="124" y="562" type="line"/>
      <point x="93" y="594"/>
      <point x="81" y="611"/>
      <point x="81" y="625" type="curve" smooth="yes"/>
      <point x="81" y="642"/>
      <point x="102" y="670"/>
      <point x="113" y="673" type="curve"/>
      <point x="338" y="673" type="line" smooth="yes"/>
      <point x="406" y="673"/>
      <point x="408" y="688"/>
      <point x="408" y="723" type="curve" smooth="yes"/>
      <point x="408" y="797" type="line"/>
      <point x="386" y="797" type="line"/>
      <point x="386" y="723" type="line" smooth="yes"/>
      <point x="386" y="706"/>
      <point x="382" y="699"/>
      <point x="353" y="699" type="curve" smooth="yes"/>
      <point x="111" y="699" type="line"/>
      <point x="78" y="670"/>
      <point x="55" y="644"/>
      <point x="55" y="619" type="curve" smooth="yes"/>
      <point x="55" y="604"/>
      <point x="60" y="591"/>
    </contour>
    <contour>
      <point x="394" y="-4" type="line"/>
      <point x="420" y="-4" type="line"/>
      <point x="420" y="234" type="line"/>
      <point x="394" y="234" type="line"/>
      <point x="394" y="174" type="line" smooth="yes"/>
      <point x="394" y="148"/>
      <point x="309" y="26"/>
      <point x="225" y="26" type="curve" smooth="yes"/>
      <point x="170" y="26"/>
      <point x="133" y="60"/>
      <point x="133" y="151" type="curve" smooth="yes"/>
      <point x="133" y="259" type="line"/>
      <point x="202" y="267" type="line" smooth="yes"/>
      <point x="344" y="283"/>
      <point x="420" y="342"/>
      <point x="420" y="452" type="curve" smooth="yes"/>
      <point x="420" y="536"/>
      <point x="357" y="586"/>
      <point x="262" y="586" type="curve" smooth="yes"/>
      <point x="181" y="586"/>
      <point x="107" y="542"/>
      <point x="107" y="450" type="curve" smooth="yes"/>
      <point x="107" y="401"/>
      <point x="141" y="351"/>
      <point x="176" y="351" type="curve" smooth="yes"/>
      <point x="181" y="351" type="line"/>
      <point x="181" y="377" type="line"/>
      <point x="149" y="377"/>
      <point x="132" y="418"/>
      <point x="132" y="447" type="curve" smooth="yes"/>
      <point x="132" y="544"/>
      <point x="217" y="560"/>
      <point x="262" y="560" type="curve" smooth="yes"/>
      <point x="351" y="560"/>
      <point x="394" y="517"/>
      <point x="394" y="446" type="curve" smooth="yes"/>
      <point x="394" y="353"/>
      <point x="325" y="306"/>
      <point x="197" y="294" type="curve" smooth="yes"/>
      <point x="107" y="286" type="line"/>
      <point x="107" y="151" type="line" smooth="yes"/>
      <point x="107" y="52"/>
      <point x="144" y="0"/>
      <point x="221" y="0" type="curve" smooth="yes"/>
      <point x="303" y="0"/>
      <point x="360" y="69"/>
      <point x="393" y="122" type="curve"/>
      <point x="394" y="122" type="line"/>
    </contour>
  </outline>
</glyph>
<glyph name="uni17AC" format="2">
  <advance width="537"/>
  <unicode hex="17AC"/>
  <note>
uni17AC
</note>
  <outline>
    <contour>
      <point x="146" y="371" type="line"/>
      <point x="120" y="371" type="line"/>
      <point x="120" y="158" type="line" smooth="yes"/>
      <point x="120" y="53"/>
      <point x="172" y="0"/>
      <point x="275" y="0" type="curve" smooth="yes"/>
      <point x="379" y="0"/>
      <point x="431" y="53"/>
      <point x="431" y="158" type="curve" smooth="yes"/>
      <point x="431" y="374" type="line"/>
      <point x="405" y="374" type="line"/>
      <point x="405" y="158" type="line" smooth="yes"/>
      <point x="405" y="75"/>
      <point x="364" y="25"/>
      <point x="275" y="25" type="curve" smooth="yes"/>
      <point x="186" y="25"/>
      <point x="146" y="75"/>
      <point x="146" y="158" type="curve" smooth="yes"/>
    </contour>
    <contour>
      <point x="405" y="356" type="line"/>
      <point x="431" y="356" type="line"/>
      <point x="431" y="398" type="line"/>
      <point x="363" y="536" type="line"/>
      <point x="370" y="560" type="line"/>
      <point x="447" y="560" type="line"/>
      <point x="447" y="586" type="line"/>
      <point x="371" y="586" type="line"/>
      <point x="358" y="569"/>
      <point x="350" y="547"/>
      <point x="350" y="530" type="curve" smooth="yes"/>
      <point x="350" y="514"/>
      <point x="360" y="484"/>
      <point x="405" y="392" type="curve"/>
    </contour>
    <contour>
      <point x="120" y="355" type="line"/>
      <point x="146" y="355" type="line"/>
      <point x="146" y="398" type="line"/>
      <point x="73" y="536" type="line"/>
      <point x="80" y="560" type="line"/>
      <point x="157" y="560" type="line"/>
      <point x="157" y="586" type="line"/>
      <point x="81" y="586" type="line"/>
      <point x="68" y="569"/>
      <point x="60" y="547"/>
      <point x="60" y="530" type="curve" smooth="yes"/>
      <point x="60" y="514"/>
      <point x="73" y="484"/>
      <point x="120" y="392" type="curve"/>
    </contour>
    <contour>
      <point x="384" y="-163" type="line"/>
      <point x="404" y="-189"/>
      <point x="432" y="-224"/>
      <point x="475" y="-224" type="curve" smooth="yes"/>
      <point x="487" y="-224" type="line"/>
      <point x="487" y="-198" type="line"/>
      <point x="475" y="-198" type="line" smooth="yes"/>
      <point x="440" y="-198"/>
      <point x="420" y="-172"/>
      <point x="402" y="-143" type="curve"/>
    </contour>
    <contour>
      <point x="163" y="-224" type="line"/>
      <point x="206" y="-224" type="line" smooth="yes"/>
      <point x="370" y="-224"/>
      <point x="432" y="-142"/>
      <point x="432" y="-58" type="curve" smooth="yes"/>
      <point x="432" y="-24" type="line"/>
      <point x="368" y="-24" type="line"/>
      <point x="368" y="-50" type="line"/>
      <point x="406" y="-50" type="line"/>
      <point x="406" y="-147"/>
      <point x="336" y="-199"/>
      <point x="204" y="-199" type="curve" smooth="yes"/>
      <point x="163" y="-199" type="line"/>
    </contour>
  </outline>
</glyph>
<glyph name="uni17AE" format="2">
  <advance width="543"/>
  <unicode hex="17AE"/>
  <note>
uni17AE
</note>
  <outline>
    <contour>
      <point x="90" y="184" type="line"/>
      <point x="116" y="184" type="line"/>
      <point x="116" y="461" type="line" smooth="yes"/>
      <point x="116" y="538"/>
      <point x="135" y="560"/>
      <point x="163" y="560" type="curve" smooth="yes"/>
      <point x="201" y="560"/>
      <point x="216" y="497"/>
      <point x="245" y="497" type="curve" smooth="yes"/>
      <point x="274" y="497"/>
      <point x="286" y="560"/>
      <point x="331" y="560" type="curve" smooth="yes"/>
      <point x="360" y="560"/>
      <point x="375" y="534"/>
      <point x="375" y="461" type="curve" smooth="yes"/>
      <point x="375" y="0" type="line"/>
      <point x="401" y="0" type="line"/>
      <point x="401" y="466" type="line" smooth="yes"/>
      <point x="401" y="546"/>
      <point x="380" y="586"/>
      <point x="333" y="586" type="curve" smooth="yes"/>
      <point x="301" y="586"/>
      <point x="278" y="564"/>
      <point x="248" y="525" type="curve"/>
      <point x="245" y="525" type="line"/>
      <point x="215" y="566"/>
      <point x="193" y="586"/>
      <point x="162" y="586" type="curve" smooth="yes"/>
      <point x="120" y="586"/>
      <point x="90" y="550"/>
      <point x="90" y="466" type="curve" smooth="yes"/>
    </contour>
    <contour>
      <point x="90" y="208" type="line" smooth="yes"/>
      <point x="90" y="27" type="line" smooth="yes"/>
      <point x="90" y="3"/>
      <point x="106" y="0"/>
      <point x="117" y="0" type="curve" smooth="yes"/>
      <point x="119" y="0" type="line" smooth="yes"/>
      <point x="152" y="0"/>
      <point x="192" y="32"/>
      <point x="192" y="89" type="curve" smooth="yes"/>
      <point x="192" y="146"/>
      <point x="146" y="168"/>
      <point x="116" y="168" type="curve"/>
      <point x="116" y="208" type="line"/>
    </contour>
    <contour>
      <point x="116" y="26" type="curve"/>
      <point x="116" y="141" type="line"/>
      <point x="148" y="141"/>
      <point x="166" y="118"/>
      <point x="166" y="89" type="curve" smooth="yes"/>
      <point x="166" y="61"/>
      <point x="152" y="27"/>
    </contour>
    <contour>
      <point x="353" y="-163" type="line"/>
      <point x="373" y="-189"/>
      <point x="401" y="-224"/>
      <point x="444" y="-224" type="curve" smooth="yes"/>
      <point x="456" y="-224" type="line"/>
      <point x="456" y="-198" type="line"/>
      <point x="444" y="-198" type="line" smooth="yes"/>
      <point x="409" y="-198"/>
      <point x="389" y="-172"/>
      <point x="371" y="-143" type="curve"/>
    </contour>
    <contour>
      <point x="132" y="-224" type="line"/>
      <point x="175" y="-224" type="line" smooth="yes"/>
      <point x="339" y="-224"/>
      <point x="401" y="-142"/>
      <point x="401" y="-58" type="curve" smooth="yes"/>
      <point x="401" y="-24" type="line"/>
      <point x="337" y="-24" type="line"/>
      <point x="337" y="-50" type="line"/>
      <point x="375" y="-50" type="line"/>
      <point x="375" y="-147"/>
      <point x="305" y="-199"/>
      <point x="173" y="-199" type="curve" smooth="yes"/>
      <point x="132" y="-199" type="line"/>
    </contour>
  </outline>
</glyph>
<glyph name="uni17AF" format="2">
  <advance width="507"/>
  <unicode hex="17AF"/>
  <note>
uni17AF
</note>
  <outline>
    <contour>
      <point x="96" y="0" type="line"/>
      <point x="129" y="0" type="line"/>
      <point x="252" y="134" type="line"/>
      <point x="376" y="0" type="line"/>
      <point x="407" y="0" type="line"/>
      <point x="407" y="424" type="line" smooth="yes"/>
      <point x="407" y="537"/>
      <point x="363" y="586"/>
      <point x="276" y="586" type="curve" smooth="yes"/>
      <point x="183" y="586" type="line" smooth="yes"/>
      <point x="139" y="586"/>
      <point x="122" y="592"/>
      <point x="122" y="685" type="curve" smooth="yes"/>
      <point x="122" y="742" type="line"/>
      <point x="96" y="742" type="line"/>
      <point x="96" y="657" type="line" smooth="yes"/>
      <point x="96" y="583"/>
      <point x="125" y="560"/>
      <point x="188" y="560" type="curve" smooth="yes"/>
      <point x="280" y="560" type="line" smooth="yes"/>
      <point x="349" y="560"/>
      <point x="381" y="513"/>
      <point x="381" y="438" type="curve" smooth="yes"/>
      <point x="381" y="31" type="line"/>
      <point x="252" y="169" type="line"/>
      <point x="122" y="29" type="line"/>
      <point x="122" y="453" type="line" smooth="yes"/>
      <point x="122" y="474"/>
      <point x="111" y="481"/>
      <point x="88" y="481" type="curve" smooth="yes"/>
      <point x="50" y="481" type="line"/>
      <point x="50" y="455" type="line"/>
      <point x="81" y="455"/>
      <point x="96" y="453"/>
      <point x="96" y="440" type="curve" smooth="yes"/>
    </contour>
  </outline>
</glyph>
<glyph name="uni17B0" format="2">
  <advance width="491"/>
  <unicode hex="17B0"/>
  <note>
uni17B0
</note>
  <outline>
    <contour>
      <point x="90" y="184" type="line"/>
      <point x="116" y="184" type="line"/>
      <point x="116" y="461" type="line" smooth="yes"/>
      <point x="116" y="538"/>
      <point x="135" y="560"/>
      <point x="163" y="560" type="curve" smooth="yes"/>
      <point x="201" y="560"/>
      <point x="216" y="497"/>
      <point x="245" y="497" type="curve" smooth="yes"/>
      <point x="274" y="497"/>
      <point x="286" y="560"/>
      <point x="331" y="560" type="curve" smooth="yes"/>
      <point x="360" y="560"/>
      <point x="375" y="534"/>
      <point x="375" y="461" type="curve" smooth="yes"/>
      <point x="375" y="0" type="line"/>
      <point x="401" y="0" type="line"/>
      <point x="401" y="466" type="line" smooth="yes"/>
      <point x="401" y="546"/>
      <point x="380" y="586"/>
      <point x="333" y="586" type="curve" smooth="yes"/>
      <point x="301" y="586"/>
      <point x="278" y="564"/>
      <point x="248" y="525" type="curve"/>
      <point x="245" y="525" type="line"/>
      <point x="215" y="566"/>
      <point x="193" y="586"/>
      <point x="162" y="586" type="curve" smooth="yes"/>
      <point x="120" y="586"/>
      <point x="90" y="550"/>
      <point x="90" y="466" type="curve" smooth="yes"/>
    </contour>
    <contour>
      <point x="90" y="208" type="line" smooth="yes"/>
      <point x="90" y="27" type="line" smooth="yes"/>
      <point x="90" y="3"/>
      <point x="106" y="0"/>
      <point x="117" y="0" type="curve" smooth="yes"/>
      <point x="119" y="0" type="line" smooth="yes"/>
      <point x="152" y="0"/>
      <point x="192" y="32"/>
      <point x="192" y="89" type="curve" smooth="yes"/>
      <point x="192" y="146"/>
      <point x="146" y="168"/>
      <point x="116" y="168" type="curve"/>
      <point x="116" y="208" type="line"/>
    </contour>
    <contour>
      <point x="116" y="26" type="curve"/>
      <point x="116" y="141" type="line"/>
      <point x="148" y="141"/>
      <point x="166" y="118"/>
      <point x="166" y="89" type="curve" smooth="yes"/>
      <point x="166" y="61"/>
      <point x="152" y="27"/>
    </contour>
    <contour>
      <point x="193" y="-194" type="curve" smooth="yes"/>
      <point x="236" y="-194"/>
      <point x="270" y="-166"/>
      <point x="280" y="-133" type="curve"/>
      <point x="291" y="-144"/>
      <point x="310" y="-155"/>
      <point x="337" y="-155" type="curve" smooth="yes"/>
      <point x="371" y="-155"/>
      <point x="401" y="-133"/>
      <point x="401" y="-95" type="curve" smooth="yes"/>
      <point x="401" y="1" type="line"/>
      <point x="375" y="1" type="line"/>
      <point x="358" y="-10"/>
      <point x="328" y="-25"/>
      <point x="124" y="-74" type="curve"/>
      <point x="124" y="-124" type="line" smooth="yes"/>
      <point x="124" y="-165"/>
      <point x="152" y="-194"/>
    </contour>
    <contour>
      <point x="196" y="-168" type="curve" smooth="yes"/>
      <point x="176" y="-168"/>
      <point x="150" y="-163"/>
      <point x="150" y="-119" type="curve" smooth="yes"/>
      <point x="150" y="-95" type="line"/>
      <point x="254" y="-67" type="line"/>
      <point x="254" y="-98" type="line" smooth="yes"/>
      <point x="254" y="-154"/>
      <point x="215" y="-168"/>
    </contour>
    <contour>
      <point x="375" y="-94" type="line" smooth="yes"/>
      <point x="375" y="-119"/>
      <point x="357" y="-129"/>
      <point x="333" y="-129" type="curve" smooth="yes"/>
      <point x="310" y="-129"/>
      <point x="280" y="-114"/>
      <point x="280" y="-95" type="curve" smooth="yes"/>
      <point x="280" y="-60" type="line"/>
      <point x="375" y="-34" type="line"/>
    </contour>
  </outline>
</glyph>
<glyph name="uni17B1" format="2">
  <advance width="497"/>
  <unicode hex="17B1"/>
  <note>
uni17B1
</note>
  <outline>
    <contour>
      <point x="88" y="544" type="curve"/>
      <point x="107" y="562" type="line"/>
      <point x="76" y="594"/>
      <point x="64" y="611"/>
      <point x="64" y="625" type="curve" smooth="yes"/>
      <point x="64" y="642"/>
      <point x="85" y="670"/>
      <point x="96" y="673" type="curve"/>
      <point x="332" y="673" type="line"/>
      <point x="395" y="673"/>
      <point x="414" y="636"/>
      <point x="419" y="577" type="curve"/>
      <point x="452" y="595" type="line"/>
      <point x="436" y="663"/>
      <point x="403" y="699"/>
      <point x="322" y="699" type="curve"/>
      <point x="94" y="699" type="line"/>
      <point x="61" y="670"/>
      <point x="38" y="644"/>
      <point x="38" y="619" type="curve" smooth="yes"/>
      <point x="38" y="604"/>
      <point x="43" y="591"/>
    </contour>
    <contour>
      <point x="382" y="-4" type="line"/>
      <point x="408" y="-4" type="line"/>
      <point x="408" y="234" type="line"/>
      <point x="382" y="234" type="line"/>
      <point x="382" y="174" type="line" smooth="yes"/>
      <point x="382" y="148"/>
      <point x="297" y="26"/>
      <point x="213" y="26" type="curve" smooth="yes"/>
      <point x="158" y="26"/>
      <point x="121" y="60"/>
      <point x="121" y="151" type="curve" smooth="yes"/>
      <point x="121" y="259" type="line"/>
      <point x="190" y="267" type="line" smooth="yes"/>
      <point x="332" y="283"/>
      <point x="408" y="342"/>
      <point x="408" y="452" type="curve" smooth="yes"/>
      <point x="408" y="536"/>
      <point x="345" y="586"/>
      <point x="250" y="586" type="curve" smooth="yes"/>
      <point x="169" y="586"/>
      <point x="95" y="542"/>
      <point x="95" y="450" type="curve" smooth="yes"/>
      <point x="95" y="401"/>
      <point x="129" y="351"/>
      <point x="164" y="351" type="curve" smooth="yes"/>
      <point x="169" y="351" type="line"/>
      <point x="169" y="377" type="line"/>
      <point x="137" y="377"/>
      <point x="120" y="418"/>
      <point x="120" y="447" type="curve" smooth="yes"/>
      <point x="120" y="544"/>
      <point x="205" y="560"/>
      <point x="250" y="560" type="curve" smooth="yes"/>
      <point x="339" y="560"/>
      <point x="382" y="517"/>
      <point x="382" y="446" type="curve" smooth="yes"/>
      <point x="382" y="353"/>
      <point x="313" y="306"/>
      <point x="185" y="294" type="curve" smooth="yes"/>
      <point x="95" y="286" type="line"/>
      <point x="95" y="151" type="line" smooth="yes"/>
      <point x="95" y="52"/>
      <point x="132" y="0"/>
      <point x="209" y="0" type="curve" smooth="yes"/>
      <point x="291" y="0"/>
      <point x="348" y="69"/>
      <point x="381" y="122" type="curve"/>
      <point x="382" y="122" type="line"/>
    </contour>
  </outline>
</glyph>
<glyph name="uni17B2" format="2">
  <advance width="481"/>
  <unicode hex="17B2"/>
  <note>
uni17B2
</note>
  <outline>
    <contour>
      <point x="255" y="0" type="curve" smooth="yes"/>
      <point x="373" y="0"/>
      <point x="441" y="84"/>
      <point x="441" y="175" type="curve" smooth="yes"/>
      <point x="441" y="232"/>
      <point x="408" y="296"/>
      <point x="377" y="331" type="curve"/>
      <point x="414" y="373"/>
      <point x="433" y="383"/>
      <point x="433" y="398" type="curve" smooth="yes"/>
      <point x="433" y="407"/>
      <point x="433" y="407"/>
      <point x="415" y="436" type="curve"/>
      <point x="255" y="436" type="line"/>
      <point x="255" y="410" type="line"/>
      <point x="412" y="410" type="line"/>
      <point x="260" y="249" type="line"/>
      <point x="278" y="225" type="line"/>
      <point x="362" y="315" type="line"/>
      <point x="373" y="301"/>
      <point x="415" y="242"/>
      <point x="415" y="171" type="curve" smooth="yes"/>
      <point x="415" y="89"/>
      <point x="337" y="26"/>
      <point x="258" y="26" type="curve" smooth="yes"/>
      <point x="179" y="26"/>
      <point x="126" y="63"/>
      <point x="126" y="158" type="curve" smooth="yes"/>
      <point x="126" y="428" type="line" smooth="yes"/>
      <point x="126" y="488"/>
      <point x="164" y="559"/>
      <point x="263" y="559" type="curve" smooth="yes"/>
      <point x="310" y="559"/>
      <point x="373" y="543"/>
      <point x="406" y="518" type="curve"/>
      <point x="421" y="541" type="line"/>
      <point x="383" y="571"/>
      <point x="325" y="586"/>
      <point x="263" y="586" type="curve" smooth="yes"/>
      <point x="164" y="586"/>
      <point x="100" y="518"/>
      <point x="100" y="428" type="curve" smooth="yes"/>
      <point x="100" y="158" type="line" smooth="yes"/>
      <point x="100" y="68"/>
      <point x="135" y="0"/>
    </contour>
  </outline>
</glyph>
<glyph name="uni17B3" format="2">
  <advance width="470"/>
  <unicode hex="17B3"/>
  <note>
uni17B3
</note>
  <outline>
    <contour>
      <point x="88" y="544" type="curve"/>
      <point x="107" y="562" type="line"/>
      <point x="76" y="594"/>
      <point x="64" y="611"/>
      <point x="64" y="625" type="curve" smooth="yes"/>
      <point x="64" y="642"/>
      <point x="85" y="670"/>
      <point x="96" y="673" type="curve"/>
      <point x="316" y="673" type="line"/>
      <point x="409" y="567" type="line"/>
      <point x="430" y="584" type="line"/>
      <point x="411" y="635"/>
      <point x="392" y="683"/>
      <point x="330" y="699" type="curve"/>
      <point x="302" y="728"/>
      <point x="282" y="749"/>
      <point x="282" y="791" type="curve" smooth="yes"/>
      <point x="282" y="818"/>
      <point x="289" y="862"/>
      <point x="334" y="908" type="curve"/>
      <point x="313" y="923" type="line"/>
      <point x="275" y="881"/>
      <point x="256" y="834"/>
      <point x="256" y="791" type="curve" smooth="yes"/>
      <point x="256" y="752"/>
      <point x="272" y="722"/>
      <point x="293" y="699" type="curve"/>
      <point x="94" y="699" type="line"/>
      <point x="61" y="670"/>
      <point x="38" y="644"/>
      <point x="38" y="619" type="curve" smooth="yes"/>
      <point x="38" y="604"/>
      <point x="43" y="591"/>
    </contour>
    <contour>
      <point x="377" y="-4" type="line"/>
      <point x="403" y="-4" type="line"/>
      <point x="403" y="234" type="line"/>
      <point x="377" y="234" type="line"/>
      <point x="377" y="174" type="line" smooth="yes"/>
      <point x="377" y="148"/>
      <point x="292" y="26"/>
      <point x="208" y="26" type="curve" smooth="yes"/>
      <point x="153" y="26"/>
      <point x="116" y="60"/>
      <point x="116" y="151" type="curve" smooth="yes"/>
      <point x="116" y="259" type="line"/>
      <point x="185" y="267" type="line" smooth="yes"/>
      <point x="327" y="283"/>
      <point x="403" y="342"/>
      <point x="403" y="452" type="curve" smooth="yes"/>
      <point x="403" y="536"/>
      <point x="340" y="586"/>
      <point x="245" y="586" type="curve" smooth="yes"/>
      <point x="164" y="586"/>
      <point x="90" y="542"/>
      <point x="90" y="450" type="curve" smooth="yes"/>
      <point x="90" y="401"/>
      <point x="124" y="351"/>
      <point x="159" y="351" type="curve" smooth="yes"/>
      <point x="164" y="351" type="line"/>
      <point x="164" y="377" type="line"/>
      <point x="132" y="377"/>
      <point x="115" y="418"/>
      <point x="115" y="447" type="curve" smooth="yes"/>
      <point x="115" y="544"/>
      <point x="200" y="560"/>
      <point x="245" y="560" type="curve" smooth="yes"/>
      <point x="334" y="560"/>
      <point x="377" y="517"/>
      <point x="377" y="446" type="curve" smooth="yes"/>
      <point x="377" y="353"/>
      <point x="308" y="306"/>
      <point x="180" y="294" type="curve" smooth="yes"/>
      <point x="90" y="286" type="line"/>
      <point x="90" y="151" type="line" smooth="yes"/>
      <point x="90" y="52"/>
      <point x="127" y="0"/>
      <point x="204" y="0" type="curve" smooth="yes"/>
      <point x="286" y="0"/>
      <point x="343" y="69"/>
      <point x="376" y="122" type="curve"/>
      <point x="377" y="122" type="line"/>
    </contour>
  </outline>
</glyph>
<glyph name="uni17B4" format="2">
  <advance width="177"/>
  <unicode hex="17B4"/>
  <note>
uni17B4
</note>
  <outline>
    <contour>
      <point x="75" y="605" type="line"/>
      <point x="75" y="795" type="line" smooth="yes"/>
      <point x="75" y="845"/>
      <point x="53" y="854"/>
      <point x="22" y="854" type="curve" smooth="yes"/>
      <point x="-38" y="854" type="line"/>
      <point x="-38" y="828" type="line"/>
      <point x="17" y="828" type="line" smooth="yes"/>
      <point x="45" y="828"/>
      <point x="49" y="812"/>
      <point x="49" y="783" type="curve" smooth="yes"/>
      <point x="49" y="605" type="line"/>
    </contour>
    <contour>
      <point x="61" y="0" type="line"/>
      <point x="87" y="0" type="line"/>
      <point x="87" y="494" type="line" smooth="yes"/>
      <point x="87" y="568"/>
      <point x="57" y="586"/>
      <point x="-37" y="586" type="curve" smooth="yes"/>
      <point x="-138" y="586" type="line"/>
      <point x="-138" y="560" type="line"/>
      <point x="-17" y="560" type="line" smooth="yes"/>
      <point x="44" y="560"/>
      <point x="61" y="535"/>
      <point x="61" y="483" type="curve" smooth="yes"/>
    </contour>
  </outline>
</glyph>
<glyph name="uni17B5" format="2">
  <advance width="177"/>
  <unicode hex="17B5"/>
  <note>
uni17B5
</note>
  <outline>
    <contour>
      <point x="61" y="0" type="line"/>
      <point x="87" y="0" type="line"/>
      <point x="87" y="494" type="line" smooth="yes"/>
      <point x="87" y="568"/>
      <point x="57" y="586"/>
      <point x="-37" y="586" type="curve" smooth="yes"/>
      <point x="-138" y="586" type="line"/>
      <point x="-138" y="560" type="line"/>
      <point x="-17" y="560" type="line" smooth="yes"/>
      <point x="44" y="560"/>
      <point x="61" y="535"/>
      <point x="61" y="483" type="curve" smooth="yes"/>
    </contour>
  </outline>
</glyph>
<glyph name="uni17B6" format="2">
  <advance width="177"/>
  <unicode hex="17B6"/>
  <note>
uni17B6
</note>
  <outline>
    <contour>
      <point x="61" y="0" type="line"/>
      <point x="87" y="0" type="line"/>
      <point x="87" y="494" type="line" smooth="yes"/>
      <point x="87" y="568"/>
      <point x="57" y="586"/>
      <point x="-37" y="586" type="curve" smooth="yes"/>
      <point x="-138" y="586" type="line"/>
      <point x="-138" y="560" type="line"/>
      <point x="-17" y="560" type="line" smooth="yes"/>
      <point x="44" y="560"/>
      <point x="61" y="535"/>
      <point x="61" y="483" type="curve" smooth="yes"/>
    </contour>
  </outline>
</glyph>
<glyph name="uni17B8" format="2">
  <unicode hex="17B8"/>
  <note>
uni17B8
</note>
  <outline>
    <contour>
      <point x="-135" y="684" type="line"/>
      <point x="-135" y="897" type="line"/>
      <point x="-161" y="897" type="line"/>
      <point x="-161" y="684" type="line"/>
    </contour>
    <contour>
      <point x="-414" y="684" type="curve" smooth="yes"/>
      <point x="-135" y="684" type="line"/>
      <point x="-135" y="718" type="line"/>
      <point x="-150" y="756"/>
      <point x="-234" y="861"/>
      <point x="-324" y="861" type="curve" smooth="yes"/>
      <point x="-409" y="861"/>
      <point x="-453" y="786"/>
      <point x="-453" y="716" type="curve" smooth="yes"/>
      <point x="-453" y="691"/>
      <point x="-451" y="684"/>
    </contour>
    <contour>
      <point x="-426" y="710" type="line"/>
      <point x="-424" y="797"/>
      <point x="-375" y="835"/>
      <point x="-325" y="835" type="curve" smooth="yes"/>
      <point x="-250" y="835"/>
      <point x="-185" y="759"/>
      <point x="-161" y="710" type="curve"/>
    </contour>
  </outline>
</glyph>
<glyph name="uni17B9" format="2">
  <unicode hex="17B9"/>
  <note>
uni17B9
</note>
  <outline>
    <contour>
      <point x="-280" y="850" type="curve"/>
      <point x="-164" y="755" type="line"/>
      <point x="-151" y="772"/>
      <point x="-130" y="812"/>
      <point x="-130" y="850" type="curve" smooth="yes"/>
      <point x="-130" y="884"/>
      <point x="-149" y="915"/>
      <point x="-196" y="915" type="curve" smooth="yes"/>
      <point x="-231" y="915"/>
      <point x="-265" y="888"/>
    </contour>
    <contour>
      <point x="-257" y="841" type="line"/>
      <point x="-245" y="868"/>
      <point x="-219" y="889"/>
      <point x="-196" y="889" type="curve" smooth="yes"/>
      <point x="-169" y="889"/>
      <point x="-155" y="873"/>
      <point x="-155" y="847" type="curve" smooth="yes"/>
      <point x="-155" y="823"/>
      <point x="-170" y="788"/>
      <point x="-178" y="779" type="curve"/>
    </contour>
    <contour>
      <point x="-414" y="684" type="curve" smooth="yes"/>
      <point x="-135" y="684" type="line"/>
      <point x="-135" y="718" type="line"/>
      <point x="-150" y="756"/>
      <point x="-234" y="861"/>
      <point x="-324" y="861" type="curve" smooth="yes"/>
      <point x="-409" y="861"/>
      <point x="-453" y="786"/>
      <point x="-453" y="716" type="curve" smooth="yes"/>
      <point x="-453" y="691"/>
      <point x="-451" y="684"/>
    </contour>
    <contour>
      <point x="-426" y="710" type="line"/>
      <point x="-424" y="797"/>
      <point x="-375" y="835"/>
      <point x="-325" y="835" type="curve" smooth="yes"/>
      <point x="-250" y="835"/>
      <point x="-185" y="759"/>
      <point x="-161" y="710" type="curve"/>
    </contour>
  </outline>
</glyph>
<glyph name="uni17BA" format="2">
  <unicode hex="17BA"/>
  <note>
uni17BA
</note>
  <outline>
    <contour>
      <point x="-161" y="897" type="line"/>
      <point x="-161" y="684" type="line"/>
      <point x="-135" y="684" type="line"/>
      <point x="-135" y="897" type="line"/>
    </contour>
    <contour>
      <point x="-234" y="922" type="line"/>
      <point x="-234" y="802" type="line"/>
      <point x="-208" y="802" type="line"/>
      <point x="-208" y="922" type="line"/>
    </contour>
    <contour>
      <point x="-414" y="684" type="curve" smooth="yes"/>
      <point x="-135" y="684" type="line"/>
      <point x="-135" y="718" type="line"/>
      <point x="-150" y="756"/>
      <point x="-234" y="861"/>
      <point x="-324" y="861" type="curve" smooth="yes"/>
      <point x="-409" y="861"/>
      <point x="-453" y="786"/>
      <point x="-453" y="716" type="curve" smooth="yes"/>
      <point x="-453" y="691"/>
      <point x="-451" y="684"/>
    </contour>
    <contour>
      <point x="-426" y="710" type="line"/>
      <point x="-424" y="797"/>
      <point x="-375" y="835"/>
      <point x="-325" y="835" type="curve" smooth="yes"/>
      <point x="-250" y="835"/>
      <point x="-185" y="759"/>
      <point x="-161" y="710" type="curve"/>
    </contour>
  </outline>
</glyph>
<glyph name="uni17BB" format="2">
  <unicode hex="17BB"/>
  <note>
uni17BB
</note>
  <outline>
    <contour>
      <point x="-283" y="-244" type="line"/>
      <point x="-257" y="-244" type="line"/>
      <point x="-257" y="-34" type="line"/>
      <point x="-350" y="-34" type="line"/>
      <point x="-350" y="-60" type="line"/>
      <point x="-283" y="-60" type="line"/>
    </contour>
  </outline>
</glyph>
<glyph name="uni17BC" format="2">
  <unicode hex="17BC"/>
  <note>
uni17BC
</note>
  <outline>
    <contour>
      <point x="-296" y="-230" type="curve" smooth="yes"/>
      <point x="-228" y="-230"/>
      <point x="-189" y="-194"/>
      <point x="-189" y="-128" type="curve" smooth="yes"/>
      <point x="-189" y="-34" type="line"/>
      <point x="-215" y="-34" type="line"/>
      <point x="-215" y="-126" type="line" smooth="yes"/>
      <point x="-215" y="-190"/>
      <point x="-253" y="-205"/>
      <point x="-296" y="-205" type="curve" smooth="yes"/>
      <point x="-333" y="-205"/>
      <point x="-378" y="-190"/>
      <point x="-378" y="-126" type="curve" smooth="yes"/>
      <point x="-378" y="-34" type="line"/>
      <point x="-404" y="-34" type="line"/>
      <point x="-404" y="-128" type="line" smooth="yes"/>
      <point x="-404" y="-194"/>
      <point x="-364" y="-230"/>
    </contour>
  </outline>
</glyph>
<glyph name="uni17BD" format="2">
  <unicode hex="17BD"/>
  <note>
uni17BD
</note>
  <outline>
    <contour>
      <point x="-421" y="-230" type="line"/>
      <point x="-386" y="-230" type="line"/>
      <point x="-297" y="-154" type="line"/>
      <point x="-203" y="-230" type="line"/>
      <point x="-173" y="-230" type="line"/>
      <point x="-173" y="-34" type="line"/>
      <point x="-199" y="-34" type="line"/>
      <point x="-199" y="-202" type="line"/>
      <point x="-297" y="-122" type="line"/>
      <point x="-395" y="-206" type="line"/>
      <point x="-395" y="-34" type="line"/>
      <point x="-421" y="-34" type="line"/>
    </contour>
  </outline>
</glyph>
<glyph name="uni17BE" format="2">
  <unicode hex="17BE"/>
  <note>
uni17BE
</note>
  <outline>
    <contour>
      <point x="656" y="684" type="line"/>
      <point x="656" y="897" type="line"/>
      <point x="630" y="897" type="line"/>
      <point x="630" y="684" type="line"/>
    </contour>
    <contour>
      <point x="377" y="684" type="curve" smooth="yes"/>
      <point x="656" y="684" type="line"/>
      <point x="656" y="718" type="line"/>
      <point x="641" y="756"/>
      <point x="557" y="861"/>
      <point x="467" y="861" type="curve" smooth="yes"/>
      <point x="382" y="861"/>
      <point x="338" y="786"/>
      <point x="338" y="716" type="curve" smooth="yes"/>
      <point x="338" y="691"/>
      <point x="340" y="684"/>
    </contour>
    <contour>
      <point x="365" y="710" type="line"/>
      <point x="367" y="797"/>
      <point x="416" y="835"/>
      <point x="466" y="835" type="curve" smooth="yes"/>
      <point x="541" y="835"/>
      <point x="606" y="759"/>
      <point x="630" y="710" type="curve"/>
    </contour>
    <contour>
      <point x="136" y="371" type="line"/>
      <point x="110" y="371" type="line"/>
      <point x="110" y="65" type="line" smooth="yes"/>
      <point x="110" y="17"/>
      <point x="134" y="0"/>
      <point x="183" y="0" type="curve" smooth="yes"/>
      <point x="227" y="0" type="line"/>
      <point x="227" y="26" type="line"/>
      <point x="175" y="26" type="line" smooth="yes"/>
      <point x="143" y="26"/>
      <point x="136" y="42"/>
      <point x="136" y="65" type="curve" smooth="yes"/>
    </contour>
    <contour>
      <point x="110" y="355" type="line"/>
      <point x="136" y="355" type="line"/>
      <point x="136" y="398" type="line"/>
      <point x="63" y="536" type="line"/>
      <point x="70" y="560" type="line"/>
      <point x="147" y="560" type="line"/>
      <point x="147" y="586" type="line"/>
      <point x="71" y="586" type="line"/>
      <point x="58" y="569"/>
      <point x="50" y="547"/>
      <point x="50" y="530" type="curve" smooth="yes"/>
      <point x="50" y="514"/>
      <point x="63" y="484"/>
      <point x="110" y="392" type="curve"/>
    </contour>
    <contour>
      <point x="326.495" y="276" type="curve" smooth="yes"/>
      <point x="333.159" y="276"/>
      <point x="338.99" y="283"/>
      <point x="338.99" y="291" type="curve" smooth="yes"/>
      <point x="338.99" y="299"/>
      <point x="333.159" y="306"/>
      <point x="326.495" y="306" type="curve" smooth="yes"/>
      <point x="319.831" y="306"/>
      <point x="314" y="299"/>
      <point x="314" y="291" type="curve" smooth="yes"/>
      <point x="314" y="283"/>
      <point x="319.831" y="276"/>
    </contour>
    <contour>
      <point x="348.495" y="377" type="curve" smooth="yes"/>
      <point x="355.159" y="377"/>
      <point x="360.99" y="384"/>
      <point x="360.99" y="392" type="curve" smooth="yes"/>
      <point x="360.99" y="400"/>
      <point x="355.159" y="407"/>
      <point x="348.495" y="407" type="curve" smooth="yes"/>
      <point x="341.831" y="407"/>
      <point x="336" y="400"/>
      <point x="336" y="392" type="curve" smooth="yes"/>
      <point x="336" y="384"/>
      <point x="341.831" y="377"/>
    </contour>
    <contour>
      <point x="407.495" y="447" type="curve" smooth="yes"/>
      <point x="414.159" y="447"/>
      <point x="419.99" y="454"/>
      <point x="419.99" y="462" type="curve" smooth="yes"/>
      <point x="419.99" y="470"/>
      <point x="414.159" y="477"/>
      <point x="407.495" y="477" type="curve" smooth="yes"/>
      <point x="400.831" y="477"/>
      <point x="395" y="470"/>
      <point x="395" y="462" type="curve" smooth="yes"/>
      <point x="395" y="454"/>
      <point x="400.831" y="447"/>
    </contour>
    <contour>
      <point x="488.495" y="471" type="curve" smooth="yes"/>
      <point x="495.159" y="471"/>
      <point x="500.99" y="478"/>
      <point x="500.99" y="486" type="curve" smooth="yes"/>
      <point x="500.99" y="494"/>
      <point x="495.159" y="501"/>
      <point x="488.495" y="501" type="curve" smooth="yes"/>
      <point x="481.831" y="501"/>
      <point x="476" y="494"/>
      <point x="476" y="486" type="curve" smooth="yes"/>
      <point x="476" y="478"/>
      <point x="481.831" y="471"/>
    </contour>
    <contour>
      <point x="569.495" y="447" type="curve" smooth="yes"/>
      <point x="576.159" y="447"/>
      <point x="581.99" y="454"/>
      <point x="581.99" y="462" type="curve" smooth="yes"/>
      <point x="581.99" y="470"/>
      <point x="576.159" y="477"/>
      <point x="569.495" y="477" type="curve" smooth="yes"/>
      <point x="562.831" y="477"/>
      <point x="557" y="470"/>
      <point x="557" y="462" type="curve" smooth="yes"/>
      <point x="557" y="454"/>
      <point x="562.831" y="447"/>
    </contour>
    <contour>
      <point x="627.495" y="375" type="curve" smooth="yes"/>
      <point x="634.159" y="375"/>
      <point x="639.99" y="382"/>
      <point x="639.99" y="390" type="curve" smooth="yes"/>
      <point x="639.99" y="398"/>
      <point x="634.159" y="405"/>
      <point x="627.495" y="405" type="curve" smooth="yes"/>
      <point x="620.831" y="405"/>
      <point x="615" y="398"/>
      <point x="615" y="390" type="curve" smooth="yes"/>
      <point x="615" y="382"/>
      <point x="620.831" y="375"/>
    </contour>
    <contour>
      <point x="652.495" y="276" type="curve" smooth="yes"/>
      <point x="659.159" y="276"/>
      <point x="664.99" y="283"/>
      <point x="664.99" y="291" type="curve" smooth="yes"/>
      <point x="664.99" y="299"/>
      <point x="659.159" y="306"/>
      <point x="652.495" y="306" type="curve" smooth="yes"/>
      <point x="645.831" y="306"/>
      <point x="640" y="299"/>
      <point x="640" y="291" type="curve" smooth="yes"/>
      <point x="640" y="283"/>
      <point x="645.831" y="276"/>
    </contour>
    <contour>
      <point x="629.495" y="182" type="curve" smooth="yes"/>
      <point x="636.159" y="182"/>
      <point x="641.99" y="189"/>
      <point x="641.99" y="197" type="curve" smooth="yes"/>
      <point x="641.99" y="205"/>
      <point x="636.159" y="212"/>
      <point x="629.495" y="212" type="curve" smooth="yes"/>
      <point x="622.831" y="212"/>
      <point x="617" y="205"/>
      <point x="617" y="197" type="curve" smooth="yes"/>
      <point x="617" y="189"/>
      <point x="622.831" y="182"/>
    </contour>
    <contour>
      <point x="569.495" y="110" type="curve" smooth="yes"/>
      <point x="576.159" y="110"/>
      <point x="581.99" y="117"/>
      <point x="581.99" y="125" type="curve" smooth="yes"/>
      <point x="581.99" y="133"/>
      <point x="576.159" y="140"/>
      <point x="569.495" y="140" type="curve" smooth="yes"/>
      <point x="562.831" y="140"/>
      <point x="557" y="133"/>
      <point x="557" y="125" type="curve" smooth="yes"/>
      <point x="557" y="117"/>
      <point x="562.831" y="110"/>
    </contour>
    <contour>
      <point x="488.495" y="82" type="curve" smooth="yes"/>
      <point x="495.159" y="82"/>
      <point x="500.99" y="89"/>
      <point x="500.99" y="97" type="curve" smooth="yes"/>
      <point x="500.99" y="105"/>
      <point x="495.159" y="112"/>
      <point x="488.495" y="112" type="curve" smooth="yes"/>
      <point x="481.831" y="112"/>
      <point x="476" y="105"/>
      <point x="476" y="97" type="curve" smooth="yes"/>
      <point x="476" y="89"/>
      <point x="481.831" y="82"/>
    </contour>
    <contour>
      <point x="407.495" y="109" type="curve" smooth="yes"/>
      <point x="414.159" y="109"/>
      <point x="419.99" y="116"/>
      <point x="419.99" y="124" type="curve" smooth="yes"/>
      <point x="419.99" y="132"/>
      <point x="414.159" y="139"/>
      <point x="407.495" y="139" type="curve" smooth="yes"/>
      <point x="400.831" y="139"/>
      <point x="395" y="132"/>
      <point x="395" y="124" type="curve" smooth="yes"/>
      <point x="395" y="116"/>
      <point x="400.831" y="109"/>
    </contour>
    <contour>
      <point x="346.495" y="181" type="curve" smooth="yes"/>
      <point x="353.159" y="181"/>
      <point x="358.99" y="188"/>
      <point x="358.99" y="196" type="curve" smooth="yes"/>
      <point x="358.99" y="204"/>
      <point x="353.159" y="211"/>
      <point x="346.495" y="211" type="curve" smooth="yes"/>
      <point x="339.831" y="211"/>
      <point x="334" y="204"/>
      <point x="334" y="196" type="curve" smooth="yes"/>
      <point x="334" y="188"/>
      <point x="339.831" y="181"/>
    </contour>
  </outline>
</glyph>
<glyph name="uni17BF" format="2">
  <advance width="971"/>
  <unicode hex="17BF"/>
  <note>
uni17BF
</note>
  <outline>
    <contour>
      <point x="136" y="371" type="line"/>
      <point x="110" y="371" type="line"/>
      <point x="110" y="65" type="line" smooth="yes"/>
      <point x="110" y="17"/>
      <point x="134" y="0"/>
      <point x="183" y="0" type="curve" smooth="yes"/>
      <point x="227" y="0" type="line"/>
      <point x="227" y="26" type="line"/>
      <point x="175" y="26" type="line" smooth="yes"/>
      <point x="143" y="26"/>
      <point x="136" y="42"/>
      <point x="136" y="65" type="curve" smooth="yes"/>
    </contour>
    <contour>
      <point x="110" y="355" type="line"/>
      <point x="136" y="355" type="line"/>
      <point x="136" y="398" type="line"/>
      <point x="63" y="536" type="line"/>
      <point x="70" y="560" type="line"/>
      <point x="147" y="560" type="line"/>
      <point x="147" y="586" type="line"/>
      <point x="71" y="586" type="line"/>
      <point x="58" y="569"/>
      <point x="50" y="547"/>
      <point x="50" y="530" type="curve" smooth="yes"/>
      <point x="50" y="514"/>
      <point x="63" y="484"/>
      <point x="110" y="392" type="curve"/>
    </contour>
    <contour>
      <point x="339.495" y="276" type="curve" smooth="yes"/>
      <point x="346.159" y="276"/>
      <point x="351.99" y="283"/>
      <point x="351.99" y="291" type="curve" smooth="yes"/>
      <point x="351.99" y="299"/>
      <point x="346.159" y="306"/>
      <point x="339.495" y="306" type="curve" smooth="yes"/>
      <point x="332.831" y="306"/>
      <point x="327" y="299"/>
      <point x="327" y="291" type="curve" smooth="yes"/>
      <point x="327" y="283"/>
      <point x="332.831" y="276"/>
    </contour>
    <contour>
      <point x="361.495" y="377" type="curve" smooth="yes"/>
      <point x="368.159" y="377"/>
      <point x="373.99" y="384"/>
      <point x="373.99" y="392" type="curve" smooth="yes"/>
      <point x="373.99" y="400"/>
      <point x="368.159" y="407"/>
      <point x="361.495" y="407" type="curve" smooth="yes"/>
      <point x="354.831" y="407"/>
      <point x="349" y="400"/>
      <point x="349" y="392" type="curve" smooth="yes"/>
      <point x="349" y="384"/>
      <point x="354.831" y="377"/>
    </contour>
    <contour>
      <point x="420.495" y="447" type="curve" smooth="yes"/>
      <point x="427.159" y="447"/>
      <point x="432.99" y="454"/>
      <point x="432.99" y="462" type="curve" smooth="yes"/>
      <point x="432.99" y="470"/>
      <point x="427.159" y="477"/>
      <point x="420.495" y="477" type="curve" smooth="yes"/>
      <point x="413.831" y="477"/>
      <point x="408" y="470"/>
      <point x="408" y="462" type="curve" smooth="yes"/>
      <point x="408" y="454"/>
      <point x="413.831" y="447"/>
    </contour>
    <contour>
      <point x="501.495" y="471" type="curve" smooth="yes"/>
      <point x="508.159" y="471"/>
      <point x="513.99" y="478"/>
      <point x="513.99" y="486" type="curve" smooth="yes"/>
      <point x="513.99" y="494"/>
      <point x="508.159" y="501"/>
      <point x="501.495" y="501" type="curve" smooth="yes"/>
      <point x="494.831" y="501"/>
      <point x="489" y="494"/>
      <point x="489" y="486" type="curve" smooth="yes"/>
      <point x="489" y="478"/>
      <point x="494.831" y="471"/>
    </contour>
    <contour>
      <point x="582.495" y="447" type="curve" smooth="yes"/>
      <point x="589.159" y="447"/>
      <point x="594.99" y="454"/>
      <point x="594.99" y="462" type="curve" smooth="yes"/>
      <point x="594.99" y="470"/>
      <point x="589.159" y="477"/>
      <point x="582.495" y="477" type="curve" smooth="yes"/>
      <point x="575.831" y="477"/>
      <point x="570" y="470"/>
      <point x="570" y="462" type="curve" smooth="yes"/>
      <point x="570" y="454"/>
      <point x="575.831" y="447"/>
    </contour>
    <contour>
      <point x="640.495" y="375" type="curve" smooth="yes"/>
      <point x="647.159" y="375"/>
      <point x="652.99" y="382"/>
      <point x="652.99" y="390" type="curve" smooth="yes"/>
      <point x="652.99" y="398"/>
      <point x="647.159" y="405"/>
      <point x="640.495" y="405" type="curve" smooth="yes"/>
      <point x="633.831" y="405"/>
      <point x="628" y="398"/>
      <point x="628" y="390" type="curve" smooth="yes"/>
      <point x="628" y="382"/>
      <point x="633.831" y="375"/>
    </contour>
    <contour>
      <point x="665.495" y="276" type="curve" smooth="yes"/>
      <point x="672.159" y="276"/>
      <point x="677.99" y="283"/>
      <point x="677.99" y="291" type="curve" smooth="yes"/>
      <point x="677.99" y="299"/>
      <point x="672.159" y="306"/>
      <point x="665.495" y="306" type="curve" smooth="yes"/>
      <point x="658.831" y="306"/>
      <point x="653" y="299"/>
      <point x="653" y="291" type="curve" smooth="yes"/>
      <point x="653" y="283"/>
      <point x="658.831" y="276"/>
    </contour>
    <contour>
      <point x="642.495" y="182" type="curve" smooth="yes"/>
      <point x="649.159" y="182"/>
      <point x="654.99" y="189"/>
      <point x="654.99" y="197" type="curve" smooth="yes"/>
      <point x="654.99" y="205"/>
      <point x="649.159" y="212"/>
      <point x="642.495" y="212" type="curve" smooth="yes"/>
      <point x="635.831" y="212"/>
      <point x="630" y="205"/>
      <point x="630" y="197" type="curve" smooth="yes"/>
      <point x="630" y="189"/>
      <point x="635.831" y="182"/>
    </contour>
    <contour>
      <point x="582.495" y="110" type="curve" smooth="yes"/>
      <point x="589.159" y="110"/>
      <point x="594.99" y="117"/>
      <point x="594.99" y="125" type="curve" smooth="yes"/>
      <point x="594.99" y="133"/>
      <point x="589.159" y="140"/>
      <point x="582.495" y="140" type="curve" smooth="yes"/>
      <point x="575.831" y="140"/>
      <point x="570" y="133"/>
      <point x="570" y="125" type="curve" smooth="yes"/>
      <point x="570" y="117"/>
      <point x="575.831" y="110"/>
    </contour>
    <contour>
      <point x="501.495" y="82" type="curve" smooth="yes"/>
      <point x="508.159" y="82"/>
      <point x="513.99" y="89"/>
      <point x="513.99" y="97" type="curve" smooth="yes"/>
      <point x="513.99" y="105"/>
      <point x="508.159" y="112"/>
      <point x="501.495" y="112" type="curve" smooth="yes"/>
      <point x="494.831" y="112"/>
      <point x="489" y="105"/>
      <point x="489" y="97" type="curve" smooth="yes"/>
      <point x="489" y="89"/>
      <point x="494.831" y="82"/>
    </contour>
    <contour>
      <point x="420.495" y="109" type="curve" smooth="yes"/>
      <point x="427.159" y="109"/>
      <point x="432.99" y="116"/>
      <point x="432.99" y="124" type="curve" smooth="yes"/>
      <point x="432.99" y="132"/>
      <point x="427.159" y="139"/>
      <point x="420.495" y="139" type="curve" smooth="yes"/>
      <point x="413.831" y="139"/>
      <point x="408" y="132"/>
      <point x="408" y="124" type="curve" smooth="yes"/>
      <point x="408" y="116"/>
      <point x="413.831" y="109"/>
    </contour>
    <contour>
      <point x="359.495" y="181" type="curve" smooth="yes"/>
      <point x="366.159" y="181"/>
      <point x="371.99" y="188"/>
      <point x="371.99" y="196" type="curve" smooth="yes"/>
      <point x="371.99" y="204"/>
      <point x="366.159" y="211"/>
      <point x="359.495" y="211" type="curve" smooth="yes"/>
      <point x="352.831" y="211"/>
      <point x="347" y="204"/>
      <point x="347" y="196" type="curve" smooth="yes"/>
      <point x="347" y="188"/>
      <point x="352.831" y="181"/>
    </contour>
    <contour>
      <point x="881" y="524" type="line"/>
      <point x="855" y="524" type="line"/>
      <point x="855" y="-137" type="line" smooth="yes"/>
      <point x="855" y="-182"/>
      <point x="824" y="-218"/>
      <point x="751" y="-218" type="curve" smooth="yes"/>
      <point x="679" y="-218"/>
      <point x="647" y="-182"/>
      <point x="647" y="-137" type="curve" smooth="yes"/>
      <point x="647" y="-75" type="line"/>
      <point x="668" y="-75" type="line"/>
      <point x="668" y="-49" type="line"/>
      <point x="621" y="-49" type="line"/>
      <point x="621" y="-137" type="line" smooth="yes"/>
      <point x="621" y="-207"/>
      <point x="665" y="-244"/>
      <point x="751" y="-244" type="curve" smooth="yes"/>
      <point x="838" y="-244"/>
      <point x="881" y="-207"/>
      <point x="881" y="-137" type="curve" smooth="yes"/>
    </contour>
    <contour>
      <point x="855" y="514" type="line"/>
      <point x="881" y="514" type="line"/>
      <point x="881" y="551" type="line" smooth="yes"/>
      <point x="881" y="657"/>
      <point x="863" y="695"/>
      <point x="794" y="774" type="curve" smooth="yes"/>
      <point x="725" y="853"/>
      <point x="685" y="880"/>
      <point x="637" y="880" type="curve" smooth="yes"/>
      <point x="566" y="880"/>
      <point x="533" y="816"/>
      <point x="533" y="757" type="curve" smooth="yes"/>
      <point x="533" y="727"/>
      <point x="542" y="723"/>
      <point x="569" y="723" type="curve" smooth="yes"/>
      <point x="795" y="723" type="line" smooth="yes"/>
      <point x="811" y="723"/>
      <point x="855" y="671"/>
      <point x="855" y="587" type="curve" smooth="yes"/>
    </contour>
    <contour>
      <point x="558" y="749" type="line"/>
      <point x="558" y="816"/>
      <point x="589" y="854"/>
      <point x="638" y="854" type="curve" smooth="yes"/>
      <point x="684" y="854"/>
      <point x="726" y="818"/>
      <point x="782" y="749" type="curve"/>
    </contour>
    <contour>
      <point x="751" y="813" type="line"/>
      <point x="751" y="934" type="line"/>
      <point x="725" y="934" type="line"/>
      <point x="725" y="832" type="line"/>
    </contour>
    <contour>
      <point x="833" y="717" type="line"/>
      <point x="833" y="909" type="line"/>
      <point x="807" y="909" type="line"/>
      <point x="807" y="745" type="line"/>
    </contour>
  </outline>
</glyph>
<glyph name="uni17C0" format="2">
  <advance width="976"/>
  <unicode hex="17C0"/>
  <note>
uni17C0
</note>
  <outline>
    <contour>
      <point x="136" y="371" type="line"/>
      <point x="110" y="371" type="line"/>
      <point x="110" y="65" type="line" smooth="yes"/>
      <point x="110" y="17"/>
      <point x="134" y="0"/>
      <point x="183" y="0" type="curve" smooth="yes"/>
      <point x="227" y="0" type="line"/>
      <point x="227" y="26" type="line"/>
      <point x="175" y="26" type="line" smooth="yes"/>
      <point x="143" y="26"/>
      <point x="136" y="42"/>
      <point x="136" y="65" type="curve" smooth="yes"/>
    </contour>
    <contour>
      <point x="110" y="355" type="line"/>
      <point x="136" y="355" type="line"/>
      <point x="136" y="398" type="line"/>
      <point x="63" y="536" type="line"/>
      <point x="70" y="560" type="line"/>
      <point x="147" y="560" type="line"/>
      <point x="147" y="586" type="line"/>
      <point x="71" y="586" type="line"/>
      <point x="58" y="569"/>
      <point x="50" y="547"/>
      <point x="50" y="530" type="curve" smooth="yes"/>
      <point x="50" y="514"/>
      <point x="63" y="484"/>
      <point x="110" y="392" type="curve"/>
    </contour>
    <contour>
      <point x="341.495" y="276" type="curve" smooth="yes"/>
      <point x="348.159" y="276"/>
      <point x="353.99" y="283"/>
      <point x="353.99" y="291" type="curve" smooth="yes"/>
      <point x="353.99" y="299"/>
      <point x="348.159" y="306"/>
      <point x="341.495" y="306" type="curve" smooth="yes"/>
      <point x="334.831" y="306"/>
      <point x="329" y="299"/>
      <point x="329" y="291" type="curve" smooth="yes"/>
      <point x="329" y="283"/>
      <point x="334.831" y="276"/>
    </contour>
    <contour>
      <point x="363.495" y="377" type="curve" smooth="yes"/>
      <point x="370.159" y="377"/>
      <point x="375.99" y="384"/>
      <point x="375.99" y="392" type="curve" smooth="yes"/>
      <point x="375.99" y="400"/>
      <point x="370.159" y="407"/>
      <point x="363.495" y="407" type="curve" smooth="yes"/>
      <point x="356.831" y="407"/>
      <point x="351" y="400"/>
      <point x="351" y="392" type="curve" smooth="yes"/>
      <point x="351" y="384"/>
      <point x="356.831" y="377"/>
    </contour>
    <contour>
      <point x="422.495" y="447" type="curve" smooth="yes"/>
      <point x="429.159" y="447"/>
      <point x="434.99" y="454"/>
      <point x="434.99" y="462" type="curve" smooth="yes"/>
      <point x="434.99" y="470"/>
      <point x="429.159" y="477"/>
      <point x="422.495" y="477" type="curve" smooth="yes"/>
      <point x="415.831" y="477"/>
      <point x="410" y="470"/>
      <point x="410" y="462" type="curve" smooth="yes"/>
      <point x="410" y="454"/>
      <point x="415.831" y="447"/>
    </contour>
    <contour>
      <point x="503.495" y="471" type="curve" smooth="yes"/>
      <point x="510.159" y="471"/>
      <point x="515.99" y="478"/>
      <point x="515.99" y="486" type="curve" smooth="yes"/>
      <point x="515.99" y="494"/>
      <point x="510.159" y="501"/>
      <point x="503.495" y="501" type="curve" smooth="yes"/>
      <point x="496.831" y="501"/>
      <point x="491" y="494"/>
      <point x="491" y="486" type="curve" smooth="yes"/>
      <point x="491" y="478"/>
      <point x="496.831" y="471"/>
    </contour>
    <contour>
      <point x="584.495" y="447" type="curve" smooth="yes"/>
      <point x="591.159" y="447"/>
      <point x="596.99" y="454"/>
      <point x="596.99" y="462" type="curve" smooth="yes"/>
      <point x="596.99" y="470"/>
      <point x="591.159" y="477"/>
      <point x="584.495" y="477" type="curve" smooth="yes"/>
      <point x="577.831" y="477"/>
      <point x="572" y="470"/>
      <point x="572" y="462" type="curve" smooth="yes"/>
      <point x="572" y="454"/>
      <point x="577.831" y="447"/>
    </contour>
    <contour>
      <point x="642.495" y="375" type="curve" smooth="yes"/>
      <point x="649.159" y="375"/>
      <point x="654.99" y="382"/>
      <point x="654.99" y="390" type="curve" smooth="yes"/>
      <point x="654.99" y="398"/>
      <point x="649.159" y="405"/>
      <point x="642.495" y="405" type="curve" smooth="yes"/>
      <point x="635.831" y="405"/>
      <point x="630" y="398"/>
      <point x="630" y="390" type="curve" smooth="yes"/>
      <point x="630" y="382"/>
      <point x="635.831" y="375"/>
    </contour>
    <contour>
      <point x="667.495" y="276" type="curve" smooth="yes"/>
      <point x="674.159" y="276"/>
      <point x="679.99" y="283"/>
      <point x="679.99" y="291" type="curve" smooth="yes"/>
      <point x="679.99" y="299"/>
      <point x="674.159" y="306"/>
      <point x="667.495" y="306" type="curve" smooth="yes"/>
      <point x="660.831" y="306"/>
      <point x="655" y="299"/>
      <point x="655" y="291" type="curve" smooth="yes"/>
      <point x="655" y="283"/>
      <point x="660.831" y="276"/>
    </contour>
    <contour>
      <point x="644.495" y="182" type="curve" smooth="yes"/>
      <point x="651.159" y="182"/>
      <point x="656.99" y="189"/>
      <point x="656.99" y="197" type="curve" smooth="yes"/>
      <point x="656.99" y="205"/>
      <point x="651.159" y="212"/>
      <point x="644.495" y="212" type="curve" smooth="yes"/>
      <point x="637.831" y="212"/>
      <point x="632" y="205"/>
      <point x="632" y="197" type="curve" smooth="yes"/>
      <point x="632" y="189"/>
      <point x="637.831" y="182"/>
    </contour>
    <contour>
      <point x="584.495" y="110" type="curve" smooth="yes"/>
      <point x="591.159" y="110"/>
      <point x="596.99" y="117"/>
      <point x="596.99" y="125" type="curve" smooth="yes"/>
      <point x="596.99" y="133"/>
      <point x="591.159" y="140"/>
      <point x="584.495" y="140" type="curve" smooth="yes"/>
      <point x="577.831" y="140"/>
      <point x="572" y="133"/>
      <point x="572" y="125" type="curve" smooth="yes"/>
      <point x="572" y="117"/>
      <point x="577.831" y="110"/>
    </contour>
    <contour>
      <point x="503.495" y="82" type="curve" smooth="yes"/>
      <point x="510.159" y="82"/>
      <point x="515.99" y="89"/>
      <point x="515.99" y="97" type="curve" smooth="yes"/>
      <point x="515.99" y="105"/>
      <point x="510.159" y="112"/>
      <point x="503.495" y="112" type="curve" smooth="yes"/>
      <point x="496.831" y="112"/>
      <point x="491" y="105"/>
      <point x="491" y="97" type="curve" smooth="yes"/>
      <point x="491" y="89"/>
      <point x="496.831" y="82"/>
    </contour>
    <contour>
      <point x="422.495" y="109" type="curve" smooth="yes"/>
      <point x="429.159" y="109"/>
      <point x="434.99" y="116"/>
      <point x="434.99" y="124" type="curve" smooth="yes"/>
      <point x="434.99" y="132"/>
      <point x="429.159" y="139"/>
      <point x="422.495" y="139" type="curve" smooth="yes"/>
      <point x="415.831" y="139"/>
      <point x="410" y="132"/>
      <point x="410" y="124" type="curve" smooth="yes"/>
      <point x="410" y="116"/>
      <point x="415.831" y="109"/>
    </contour>
    <contour>
      <point x="361.495" y="181" type="curve" smooth="yes"/>
      <point x="368.159" y="181"/>
      <point x="373.99" y="188"/>
      <point x="373.99" y="196" type="curve" smooth="yes"/>
      <point x="373.99" y="204"/>
      <point x="368.159" y="211"/>
      <point x="361.495" y="211" type="curve" smooth="yes"/>
      <point x="354.831" y="211"/>
      <point x="349" y="204"/>
      <point x="349" y="196" type="curve" smooth="yes"/>
      <point x="349" y="188"/>
      <point x="354.831" y="181"/>
    </contour>
    <contour>
      <point x="886" y="564" type="line"/>
      <point x="860" y="564" type="line"/>
      <point x="860" y="-137" type="line" smooth="yes"/>
      <point x="860" y="-182"/>
      <point x="829" y="-218"/>
      <point x="756" y="-218" type="curve" smooth="yes"/>
      <point x="684" y="-218"/>
      <point x="652" y="-182"/>
      <point x="652" y="-137" type="curve" smooth="yes"/>
      <point x="652" y="-75" type="line"/>
      <point x="673" y="-75" type="line"/>
      <point x="673" y="-49" type="line"/>
      <point x="626" y="-49" type="line"/>
      <point x="626" y="-137" type="line" smooth="yes"/>
      <point x="626" y="-207"/>
      <point x="669" y="-244"/>
      <point x="756" y="-244" type="curve" smooth="yes"/>
      <point x="843" y="-244"/>
      <point x="886" y="-207"/>
      <point x="886" y="-137" type="curve" smooth="yes"/>
    </contour>
    <contour>
      <point x="860" y="545" type="line"/>
      <point x="886" y="545" type="line"/>
      <point x="886" y="669" type="line" smooth="yes"/>
      <point x="886" y="763"/>
      <point x="830" y="816"/>
      <point x="757" y="816" type="curve" smooth="yes"/>
      <point x="705" y="816"/>
      <point x="677" y="794"/>
      <point x="651" y="764" type="curve"/>
      <point x="651" y="958" type="line"/>
      <point x="625" y="958" type="line"/>
      <point x="625" y="722" type="line"/>
      <point x="651" y="722" type="line"/>
      <point x="675" y="760"/>
      <point x="703" y="790"/>
      <point x="756" y="790" type="curve" smooth="yes"/>
      <point x="829" y="790"/>
      <point x="860" y="737"/>
      <point x="860" y="653" type="curve" smooth="yes"/>
    </contour>
  </outline>
</glyph>
<glyph name="uni17C1" format="2">
  <advance width="227"/>
  <unicode hex="17C1"/>
  <note>
uni17C1
</note>
  <outline>
    <contour>
      <point x="136" y="371" type="line"/>
      <point x="110" y="371" type="line"/>
      <point x="110" y="65" type="line" smooth="yes"/>
      <point x="110" y="17"/>
      <point x="134" y="0"/>
      <point x="183" y="0" type="curve" smooth="yes"/>
      <point x="227" y="0" type="line"/>
      <point x="227" y="26" type="line"/>
      <point x="175" y="26" type="line" smooth="yes"/>
      <point x="143" y="26"/>
      <point x="136" y="42"/>
      <point x="136" y="65" type="curve" smooth="yes"/>
    </contour>
    <contour>
      <point x="110" y="355" type="line"/>
      <point x="136" y="355" type="line"/>
      <point x="136" y="398" type="line"/>
      <point x="63" y="536" type="line"/>
      <point x="70" y="560" type="line"/>
      <point x="147" y="560" type="line"/>
      <point x="147" y="586" type="line"/>
      <point x="71" y="586" type="line"/>
      <point x="58" y="569"/>
      <point x="50" y="547"/>
      <point x="50" y="530" type="curve" smooth="yes"/>
      <point x="50" y="514"/>
      <point x="63" y="484"/>
      <point x="110" y="392" type="curve"/>
    </contour>
  </outline>
</glyph>
<glyph name="uni17C2" format="2">
  <advance width="227"/>
  <unicode hex="17C2"/>
  <note>
uni17C2
</note>
  <outline>
    <contour>
      <point x="97" y="635" type="curve" smooth="yes"/>
      <point x="180" y="635"/>
      <point x="224" y="720"/>
      <point x="224" y="854" type="curve"/>
      <point x="198" y="854" type="line"/>
      <point x="198" y="754"/>
      <point x="172" y="661"/>
      <point x="97" y="661" type="curve" smooth="yes"/>
      <point x="56" y="661"/>
      <point x="26" y="688"/>
      <point x="26" y="724" type="curve" smooth="yes"/>
      <point x="26" y="768"/>
      <point x="62" y="789"/>
      <point x="111" y="789" type="curve"/>
      <point x="111" y="815" type="line"/>
      <point x="50" y="815"/>
      <point x="0" y="785"/>
      <point x="0" y="724" type="curve" smooth="yes"/>
      <point x="0" y="665"/>
      <point x="49" y="635"/>
    </contour>
    <contour>
      <point x="136" y="371" type="line"/>
      <point x="110" y="371" type="line"/>
      <point x="110" y="65" type="line" smooth="yes"/>
      <point x="110" y="17"/>
      <point x="134" y="0"/>
      <point x="183" y="0" type="curve" smooth="yes"/>
      <point x="227" y="0" type="line"/>
      <point x="227" y="26" type="line"/>
      <point x="175" y="26" type="line" smooth="yes"/>
      <point x="143" y="26"/>
      <point x="136" y="42"/>
      <point x="136" y="65" type="curve" smooth="yes"/>
    </contour>
    <contour>
      <point x="110" y="355" type="line"/>
      <point x="136" y="355" type="line"/>
      <point x="136" y="398" type="line"/>
      <point x="63" y="536" type="line"/>
      <point x="70" y="560" type="line"/>
      <point x="147" y="560" type="line"/>
      <point x="147" y="586" type="line"/>
      <point x="71" y="586" type="line"/>
      <point x="58" y="569"/>
      <point x="50" y="547"/>
      <point x="50" y="530" type="curve" smooth="yes"/>
      <point x="50" y="514"/>
      <point x="63" y="484"/>
      <point x="110" y="392" type="curve"/>
    </contour>
  </outline>
</glyph>
<glyph name="uni17C3" format="2">
  <advance width="227"/>
  <unicode hex="17C3"/>
  <note>
uni17C3
</note>
  <outline>
    <contour>
      <point x="40" y="635" type="line"/>
      <point x="75" y="635" type="line" smooth="yes"/>
      <point x="137" y="635"/>
      <point x="200" y="671"/>
      <point x="200" y="745" type="curve" smooth="yes"/>
      <point x="200" y="805"/>
      <point x="161" y="830"/>
      <point x="125" y="830" type="curve" smooth="yes"/>
      <point x="95" y="830"/>
      <point x="74" y="812"/>
      <point x="66" y="796" type="curve"/>
      <point x="66" y="907" type="line" smooth="yes"/>
      <point x="66" y="924"/>
      <point x="56" y="928"/>
      <point x="38" y="928" type="curve" smooth="yes"/>
      <point x="16" y="928" type="line"/>
      <point x="16" y="903" type="line"/>
      <point x="35" y="903"/>
      <point x="40" y="899"/>
      <point x="40" y="883" type="curve" smooth="yes"/>
      <point x="40" y="747" type="line"/>
      <point x="66" y="747" type="line"/>
      <point x="70" y="771"/>
      <point x="88" y="803"/>
      <point x="123" y="803" type="curve" smooth="yes"/>
      <point x="150" y="803"/>
      <point x="174" y="783"/>
      <point x="174" y="744" type="curve" smooth="yes"/>
      <point x="174" y="690"/>
      <point x="127" y="661"/>
      <point x="75" y="661" type="curve" smooth="yes"/>
      <point x="40" y="661" type="line"/>
    </contour>
    <contour>
      <point x="136" y="371" type="line"/>
      <point x="110" y="371" type="line"/>
      <point x="110" y="65" type="line" smooth="yes"/>
      <point x="110" y="17"/>
      <point x="134" y="0"/>
      <point x="183" y="0" type="curve" smooth="yes"/>
      <point x="227" y="0" type="line"/>
      <point x="227" y="26" type="line"/>
      <point x="175" y="26" type="line" smooth="yes"/>
      <point x="143" y="26"/>
      <point x="136" y="42"/>
      <point x="136" y="65" type="curve" smooth="yes"/>
    </contour>
    <contour>
      <point x="110" y="355" type="line"/>
      <point x="136" y="355" type="line"/>
      <point x="136" y="398" type="line"/>
      <point x="63" y="536" type="line"/>
      <point x="70" y="560" type="line"/>
      <point x="147" y="560" type="line"/>
      <point x="147" y="586" type="line"/>
      <point x="71" y="586" type="line"/>
      <point x="58" y="569"/>
      <point x="50" y="547"/>
      <point x="50" y="530" type="curve" smooth="yes"/>
      <point x="50" y="514"/>
      <point x="63" y="484"/>
      <point x="110" y="392" type="curve"/>
    </contour>
  </outline>
</glyph>
<glyph name="uni17C5" format="2">
  <advance width="938"/>
  <unicode hex="17C5"/>
  <note>
uni17C5
</note>
  <outline>
    <contour>
      <point x="136" y="371" type="line"/>
      <point x="110" y="371" type="line"/>
      <point x="110" y="65" type="line" smooth="yes"/>
      <point x="110" y="17"/>
      <point x="134" y="0"/>
      <point x="183" y="0" type="curve" smooth="yes"/>
      <point x="227" y="0" type="line"/>
      <point x="227" y="26" type="line"/>
      <point x="175" y="26" type="line" smooth="yes"/>
      <point x="143" y="26"/>
      <point x="136" y="42"/>
      <point x="136" y="65" type="curve" smooth="yes"/>
    </contour>
    <contour>
      <point x="110" y="355" type="line"/>
      <point x="136" y="355" type="line"/>
      <point x="136" y="398" type="line"/>
      <point x="63" y="536" type="line"/>
      <point x="70" y="560" type="line"/>
      <point x="147" y="560" type="line"/>
      <point x="147" y="586" type="line"/>
      <point x="71" y="586" type="line"/>
      <point x="58" y="569"/>
      <point x="50" y="547"/>
      <point x="50" y="530" type="curve" smooth="yes"/>
      <point x="50" y="514"/>
      <point x="63" y="484"/>
      <point x="110" y="392" type="curve"/>
    </contour>
    <contour>
      <point x="317.495" y="276" type="curve" smooth="yes"/>
      <point x="324.159" y="276"/>
      <point x="329.99" y="283"/>
      <point x="329.99" y="291" type="curve" smooth="yes"/>
      <point x="329.99" y="299"/>
      <point x="324.159" y="306"/>
      <point x="317.495" y="306" type="curve" smooth="yes"/>
      <point x="310.831" y="306"/>
      <point x="305" y="299"/>
      <point x="305" y="291" type="curve" smooth="yes"/>
      <point x="305" y="283"/>
      <point x="310.831" y="276"/>
    </contour>
    <contour>
      <point x="339.495" y="377" type="curve" smooth="yes"/>
      <point x="346.159" y="377"/>
      <point x="351.99" y="384"/>
      <point x="351.99" y="392" type="curve" smooth="yes"/>
      <point x="351.99" y="400"/>
      <point x="346.159" y="407"/>
      <point x="339.495" y="407" type="curve" smooth="yes"/>
      <point x="332.831" y="407"/>
      <point x="327" y="400"/>
      <point x="327" y="392" type="curve" smooth="yes"/>
      <point x="327" y="384"/>
      <point x="332.831" y="377"/>
    </contour>
    <contour>
      <point x="398.495" y="447" type="curve" smooth="yes"/>
      <point x="405.159" y="447"/>
      <point x="410.99" y="454"/>
      <point x="410.99" y="462" type="curve" smooth="yes"/>
      <point x="410.99" y="470"/>
      <point x="405.159" y="477"/>
      <point x="398.495" y="477" type="curve" smooth="yes"/>
      <point x="391.831" y="477"/>
      <point x="386" y="470"/>
      <point x="386" y="462" type="curve" smooth="yes"/>
      <point x="386" y="454"/>
      <point x="391.831" y="447"/>
    </contour>
    <contour>
      <point x="479.495" y="471" type="curve" smooth="yes"/>
      <point x="486.159" y="471"/>
      <point x="491.99" y="478"/>
      <point x="491.99" y="486" type="curve" smooth="yes"/>
      <point x="491.99" y="494"/>
      <point x="486.159" y="501"/>
      <point x="479.495" y="501" type="curve" smooth="yes"/>
      <point x="472.831" y="501"/>
      <point x="467" y="494"/>
      <point x="467" y="486" type="curve" smooth="yes"/>
      <point x="467" y="478"/>
      <point x="472.831" y="471"/>
    </contour>
    <contour>
      <point x="560.495" y="447" type="curve" smooth="yes"/>
      <point x="567.159" y="447"/>
      <point x="572.99" y="454"/>
      <point x="572.99" y="462" type="curve" smooth="yes"/>
      <point x="572.99" y="470"/>
      <point x="567.159" y="477"/>
      <point x="560.495" y="477" type="curve" smooth="yes"/>
      <point x="553.831" y="477"/>
      <point x="548" y="470"/>
      <point x="548" y="462" type="curve" smooth="yes"/>
      <point x="548" y="454"/>
      <point x="553.831" y="447"/>
    </contour>
    <contour>
      <point x="618.495" y="375" type="curve" smooth="yes"/>
      <point x="625.159" y="375"/>
      <point x="630.99" y="382"/>
      <point x="630.99" y="390" type="curve" smooth="yes"/>
      <point x="630.99" y="398"/>
      <point x="625.159" y="405"/>
      <point x="618.495" y="405" type="curve" smooth="yes"/>
      <point x="611.831" y="405"/>
      <point x="606" y="398"/>
      <point x="606" y="390" type="curve" smooth="yes"/>
      <point x="606" y="382"/>
      <point x="611.831" y="375"/>
    </contour>
    <contour>
      <point x="643.495" y="276" type="curve" smooth="yes"/>
      <point x="650.159" y="276"/>
      <point x="655.99" y="283"/>
      <point x="655.99" y="291" type="curve" smooth="yes"/>
      <point x="655.99" y="299"/>
      <point x="650.159" y="306"/>
      <point x="643.495" y="306" type="curve" smooth="yes"/>
      <point x="636.831" y="306"/>
      <point x="631" y="299"/>
      <point x="631" y="291" type="curve" smooth="yes"/>
      <point x="631" y="283"/>
      <point x="636.831" y="276"/>
    </contour>
    <contour>
      <point x="620.495" y="182" type="curve" smooth="yes"/>
      <point x="627.159" y="182"/>
      <point x="632.99" y="189"/>
      <point x="632.99" y="197" type="curve" smooth="yes"/>
      <point x="632.99" y="205"/>
      <point x="627.159" y="212"/>
      <point x="620.495" y="212" type="curve" smooth="yes"/>
      <point x="613.831" y="212"/>
      <point x="608" y="205"/>
      <point x="608" y="197" type="curve" smooth="yes"/>
      <point x="608" y="189"/>
      <point x="613.831" y="182"/>
    </contour>
    <contour>
      <point x="560.495" y="110" type="curve" smooth="yes"/>
      <point x="567.159" y="110"/>
      <point x="572.99" y="117"/>
      <point x="572.99" y="125" type="curve" smooth="yes"/>
      <point x="572.99" y="133"/>
      <point x="567.159" y="140"/>
      <point x="560.495" y="140" type="curve" smooth="yes"/>
      <point x="553.831" y="140"/>
      <point x="548" y="133"/>
      <point x="548" y="125" type="curve" smooth="yes"/>
      <point x="548" y="117"/>
      <point x="553.831" y="110"/>
    </contour>
    <contour>
      <point x="479.495" y="82" type="curve" smooth="yes"/>
      <point x="486.159" y="82"/>
      <point x="491.99" y="89"/>
      <point x="491.99" y="97" type="curve" smooth="yes"/>
      <point x="491.99" y="105"/>
      <point x="486.159" y="112"/>
      <point x="479.495" y="112" type="curve" smooth="yes"/>
      <point x="472.831" y="112"/>
      <point x="467" y="105"/>
      <point x="467" y="97" type="curve" smooth="yes"/>
      <point x="467" y="89"/>
      <point x="472.831" y="82"/>
    </contour>
    <contour>
      <point x="398.495" y="109" type="curve" smooth="yes"/>
      <point x="405.159" y="109"/>
      <point x="410.99" y="116"/>
      <point x="410.99" y="124" type="curve" smooth="yes"/>
      <point x="410.99" y="132"/>
      <point x="405.159" y="139"/>
      <point x="398.495" y="139" type="curve" smooth="yes"/>
      <point x="391.831" y="139"/>
      <point x="386" y="132"/>
      <point x="386" y="124" type="curve" smooth="yes"/>
      <point x="386" y="116"/>
      <point x="391.831" y="109"/>
    </contour>
    <contour>
      <point x="337.495" y="181" type="curve" smooth="yes"/>
      <point x="344.159" y="181"/>
      <point x="349.99" y="188"/>
      <point x="349.99" y="196" type="curve" smooth="yes"/>
      <point x="349.99" y="204"/>
      <point x="344.159" y="211"/>
      <point x="337.495" y="211" type="curve" smooth="yes"/>
      <point x="330.831" y="211"/>
      <point x="325" y="204"/>
      <point x="325" y="196" type="curve" smooth="yes"/>
      <point x="325" y="188"/>
      <point x="330.831" y="181"/>
    </contour>
    <contour>
      <point x="836" y="605" type="line"/>
      <point x="836" y="795" type="line" smooth="yes"/>
      <point x="836" y="845"/>
      <point x="814" y="854"/>
      <point x="783" y="854" type="curve" smooth="yes"/>
      <point x="723" y="854" type="line"/>
      <point x="723" y="828" type="line"/>
      <point x="778" y="828" type="line" smooth="yes"/>
      <point x="806" y="828"/>
      <point x="810" y="812"/>
      <point x="810" y="783" type="curve" smooth="yes"/>
      <point x="810" y="605" type="line"/>
    </contour>
    <contour>
      <point x="822" y="0" type="line"/>
      <point x="848" y="0" type="line"/>
      <point x="848" y="494" type="line" smooth="yes"/>
      <point x="848" y="568"/>
      <point x="818" y="586"/>
      <point x="724" y="586" type="curve" smooth="yes"/>
      <point x="623" y="586" type="line"/>
      <point x="623" y="560" type="line"/>
      <point x="744" y="560" type="line" smooth="yes"/>
      <point x="805" y="560"/>
      <point x="822" y="535"/>
      <point x="822" y="483" type="curve" smooth="yes"/>
    </contour>
  </outline>
</glyph>
<glyph name="uni17C6" format="2">
  <unicode hex="17C6"/>
  <note>
uni17C6
</note>
  <outline>
    <contour>
      <point x="-297" y="684" type="curve" smooth="yes"/>
      <point x="-242" y="684"/>
      <point x="-197" y="729"/>
      <point x="-197" y="784" type="curve" smooth="yes"/>
      <point x="-197" y="839"/>
      <point x="-242" y="884"/>
      <point x="-297" y="884" type="curve" smooth="yes"/>
      <point x="-352" y="884"/>
      <point x="-397" y="839"/>
      <point x="-397" y="784" type="curve" smooth="yes"/>
      <point x="-397" y="729"/>
      <point x="-352" y="684"/>
    </contour>
    <contour>
      <point x="-297" y="710" type="curve" smooth="yes"/>
      <point x="-338" y="710"/>
      <point x="-371" y="743"/>
      <point x="-371" y="784" type="curve" smooth="yes"/>
      <point x="-371" y="825"/>
      <point x="-338" y="858"/>
      <point x="-297" y="858" type="curve" smooth="yes"/>
      <point x="-256" y="858"/>
      <point x="-223" y="825"/>
      <point x="-223" y="784" type="curve" smooth="yes"/>
      <point x="-223" y="743"/>
      <point x="-256" y="710"/>
    </contour>
  </outline>
</glyph>
<glyph name="uni17C7" format="2">
  <advance width="351"/>
  <unicode hex="17C7"/>
  <note>
uni17C7
</note>
  <outline>
    <contour>
      <point x="176" y="375" type="curve" smooth="yes"/>
      <point x="231" y="375"/>
      <point x="275" y="420"/>
      <point x="275" y="475" type="curve" smooth="yes"/>
      <point x="275" y="533"/>
      <point x="231" y="575"/>
      <point x="176" y="575" type="curve" smooth="yes"/>
      <point x="121" y="575"/>
      <point x="76" y="531"/>
      <point x="76" y="475" type="curve" smooth="yes"/>
      <point x="76" y="421"/>
      <point x="121" y="375"/>
    </contour>
    <contour>
      <point x="176" y="403" type="curve" smooth="yes"/>
      <point x="136" y="403"/>
      <point x="103" y="435"/>
      <point x="103" y="475" type="curve" smooth="yes"/>
      <point x="103" y="515"/>
      <point x="136" y="548"/>
      <point x="176" y="548" type="curve" smooth="yes"/>
      <point x="216" y="548"/>
      <point x="249" y="515"/>
      <point x="249" y="475" type="curve" smooth="yes"/>
      <point x="249" y="435"/>
      <point x="216" y="403"/>
    </contour>
    <contour>
      <point x="176" y="10" type="curve" smooth="yes"/>
      <point x="231" y="10"/>
      <point x="275" y="54"/>
      <point x="275" y="110" type="curve" smooth="yes"/>
      <point x="275" y="167"/>
      <point x="231" y="210"/>
      <point x="176" y="210" type="curve" smooth="yes"/>
      <point x="121" y="210"/>
      <point x="76" y="165"/>
      <point x="76" y="110" type="curve" smooth="yes"/>
      <point x="76" y="55"/>
      <point x="121" y="10"/>
    </contour>
    <contour>
      <point x="176" y="37" type="curve" smooth="yes"/>
      <point x="136" y="37"/>
      <point x="103" y="70"/>
      <point x="103" y="110" type="curve" smooth="yes"/>
      <point x="103" y="150"/>
      <point x="136" y="182"/>
      <point x="176" y="182" type="curve" smooth="yes"/>
      <point x="216" y="182"/>
      <point x="249" y="150"/>
      <point x="249" y="110" type="curve" smooth="yes"/>
      <point x="249" y="70"/>
      <point x="216" y="37"/>
    </contour>
  </outline>
</glyph>
<glyph name="uni17C9" format="2">
  <unicode hex="17C9"/>
  <note>
uni17C9
</note>
  <outline>
    <contour>
      <point x="-368" y="684" type="line"/>
      <point x="-342" y="684" type="line"/>
      <point x="-342" y="879" type="line"/>
      <point x="-368" y="879" type="line"/>
    </contour>
    <contour>
      <point x="-252" y="684" type="line"/>
      <point x="-226" y="684" type="line"/>
      <point x="-226" y="879" type="line"/>
      <point x="-252" y="879" type="line"/>
    </contour>
  </outline>
</glyph>
<glyph name="uni17CA" format="2">
  <unicode hex="17CA"/>
  <note>
uni17CA
</note>
  <outline>
    <contour>
      <point x="-450" y="684" type="line"/>
      <point x="-141" y="684" type="line"/>
      <point x="-141" y="710" type="line"/>
      <point x="-276" y="710" type="line"/>
      <point x="-296" y="686" type="line"/>
      <point x="-314" y="710" type="line"/>
      <point x="-450" y="710" type="line"/>
    </contour>
  </outline>
</glyph>
<glyph name="uni17CC" format="2">
  <unicode hex="17CC"/>
  <note>
uni17CC
</note>
  <outline>
    <contour>
      <point x="-411" y="704" type="line"/>
      <point x="-368" y="741"/>
      <point x="-344" y="757"/>
      <point x="-295" y="757" type="curve" smooth="yes"/>
      <point x="-244" y="757"/>
      <point x="-215" y="742"/>
      <point x="-184" y="698" type="curve"/>
      <point x="-163" y="714" type="line"/>
      <point x="-203" y="764"/>
      <point x="-246" y="792"/>
      <point x="-329" y="781" type="curve"/>
      <point x="-295" y="825"/>
      <point x="-275" y="855"/>
      <point x="-244" y="913" type="curve"/>
      <point x="-271" y="921" type="line"/>
      <point x="-301" y="859"/>
      <point x="-353" y="788"/>
      <point x="-427" y="724" type="curve"/>
    </contour>
  </outline>
</glyph>
<glyph name="uni17CD" format="2">
  <unicode hex="17CD"/>
  <note>
uni17CD
</note>
  <outline>
    <contour>
      <point x="-392" y="684" type="curve" smooth="yes"/>
      <point x="-378" y="684" type="line"/>
      <point x="-378" y="710" type="line"/>
      <point x="-384" y="710" type="line" smooth="yes"/>
      <point x="-427" y="710"/>
      <point x="-440" y="723"/>
      <point x="-440" y="750" type="curve" smooth="yes"/>
      <point x="-440" y="775"/>
      <point x="-423" y="787"/>
      <point x="-380" y="787" type="curve" smooth="yes"/>
      <point x="-337" y="787" type="line" smooth="yes"/>
      <point x="-246" y="787"/>
      <point x="-198" y="828"/>
      <point x="-198" y="908" type="curve"/>
      <point x="-224" y="908" type="line"/>
      <point x="-224" y="839"/>
      <point x="-261" y="813"/>
      <point x="-333" y="813" type="curve" smooth="yes"/>
      <point x="-363" y="813" type="line" smooth="yes"/>
      <point x="-437" y="813"/>
      <point x="-466" y="791"/>
      <point x="-466" y="748" type="curve" smooth="yes"/>
      <point x="-466" y="705"/>
      <point x="-440" y="684"/>
    </contour>
  </outline>
</glyph>
<glyph name="uni17CE" format="2">
  <unicode hex="17CE"/>
  <note>
uni17CE
</note>
  <outline>
    <contour>
      <point x="-311" y="684" type="line"/>
      <point x="-285" y="684" type="line"/>
      <point x="-285" y="796" type="line"/>
      <point x="-188" y="796" type="line"/>
      <point x="-188" y="822" type="line"/>
      <point x="-285" y="822" type="line"/>
      <point x="-285" y="934" type="line"/>
      <point x="-311" y="934" type="line"/>
      <point x="-311" y="822" type="line"/>
      <point x="-408" y="822" type="line"/>
      <point x="-408" y="796" type="line"/>
      <point x="-311" y="796" type="line"/>
    </contour>
  </outline>
</glyph>
<glyph name="uni17CF" format="2">
  <unicode hex="17CF"/>
  <note>
uni17CF
</note>
  <outline>
    <contour>
      <point x="-439" y="684" type="line"/>
      <point x="-409" y="684" type="line"/>
      <point x="-297" y="739" type="line"/>
      <point x="-185" y="684" type="line"/>
      <point x="-155" y="684" type="line"/>
      <point x="-155" y="767" type="line"/>
      <point x="-181" y="767" type="line"/>
      <point x="-181" y="711" type="line"/>
      <point x="-296" y="768" type="line"/>
      <point x="-413" y="711" type="line"/>
      <point x="-413" y="768" type="line" smooth="yes"/>
      <point x="-413" y="797"/>
      <point x="-413" y="816"/>
      <point x="-379" y="816" type="curve" smooth="yes"/>
      <point x="-219" y="816" type="line" smooth="yes"/>
      <point x="-180" y="816"/>
      <point x="-161" y="833"/>
      <point x="-161" y="862" type="curve" smooth="yes"/>
      <point x="-161" y="881" type="line"/>
      <point x="-187" y="881" type="line"/>
      <point x="-187" y="842"/>
      <point x="-196" y="842"/>
      <point x="-244" y="842" type="curve" smooth="yes"/>
      <point x="-373" y="842" type="line" smooth="yes"/>
      <point x="-432" y="842"/>
      <point x="-439" y="815"/>
      <point x="-439" y="768" type="curve" smooth="yes"/>
    </contour>
  </outline>
</glyph>
<glyph name="uni17D0" format="2">
  <unicode hex="17D0"/>
  <note>
uni17D0
</note>
  <outline>
    <contour>
      <point x="-315" y="684" type="curve" smooth="yes"/>
      <point x="-225" y="684"/>
      <point x="-157.5" y="753"/>
      <point x="-157.5" y="890" type="curve"/>
      <point x="-181.8" y="890" type="line"/>
      <point x="-181.8" y="791"/>
      <point x="-219.6" y="710"/>
      <point x="-315" y="710" type="curve" smooth="yes"/>
      <point x="-367.2" y="710"/>
      <point x="-390.6" y="733"/>
      <point x="-390.6" y="770" type="curve" smooth="yes"/>
      <point x="-390.6" y="801"/>
      <point x="-360.9" y="827"/>
      <point x="-309.6" y="827" type="curve"/>
      <point x="-309.6" y="854" type="line"/>
      <point x="-361.8" y="854"/>
      <point x="-414" y="824"/>
      <point x="-414" y="769" type="curve" smooth="yes"/>
      <point x="-414" y="707"/>
      <point x="-367.2" y="684"/>
    </contour>
  </outline>
</glyph>
<glyph name="uni17D1" format="2">
  <unicode hex="17D1"/>
  <note>
uni17D1
</note>
  <outline>
    <contour>
      <point x="-440" y="684" type="line"/>
      <point x="-151" y="684" type="line"/>
      <point x="-151" y="710" type="line"/>
      <point x="-440" y="710" type="line"/>
    </contour>
  </outline>
</glyph>
<glyph name="uni17D2" format="2">
  <unicode hex="17D2"/>
  <note>
uni17D2
</note>
  <outline>
    <contour>
      <point x="-311" y="-244" type="line"/>
      <point x="-285" y="-244" type="line"/>
      <point x="-285" y="-147" type="line"/>
      <point x="-184" y="-147" type="line"/>
      <point x="-184" y="-121" type="line"/>
      <point x="-285" y="-121" type="line"/>
      <point x="-285" y="-24" type="line"/>
      <point x="-311" y="-24" type="line"/>
      <point x="-311" y="-121" type="line"/>
      <point x="-408" y="-121" type="line"/>
      <point x="-408" y="-147" type="line"/>
      <point x="-311" y="-147" type="line"/>
    </contour>
  </outline>
</glyph>
<glyph name="uni17D3" format="2">
  <unicode hex="17D3"/>
  <note>
uni17D3
</note>
  <outline>
    <contour>
      <point x="-297" y="685" type="curve" smooth="yes"/>
      <point x="-217" y="685"/>
      <point x="-132" y="721"/>
      <point x="-132" y="807" type="curve" smooth="yes"/>
      <point x="-132" y="893"/>
      <point x="-217" y="929"/>
      <point x="-297" y="929" type="curve" smooth="yes"/>
      <point x="-377" y="929"/>
      <point x="-463" y="893"/>
      <point x="-463" y="807" type="curve" smooth="yes"/>
      <point x="-463" y="721"/>
      <point x="-377" y="685"/>
    </contour>
    <contour>
      <point x="-297" y="711" type="curve" smooth="yes"/>
      <point x="-357" y="711"/>
      <point x="-437" y="741"/>
      <point x="-437" y="807" type="curve" smooth="yes"/>
      <point x="-437" y="880"/>
      <point x="-357" y="903"/>
      <point x="-297" y="903" type="curve" smooth="yes"/>
      <point x="-237" y="903"/>
      <point x="-158" y="880"/>
      <point x="-158" y="807" type="curve" smooth="yes"/>
      <point x="-158" y="742"/>
      <point x="-237" y="711"/>
    </contour>
  </outline>
</glyph>
<glyph name="uni17D5" format="2">
  <advance width="474"/>
  <unicode hex="17D5"/>
  <note>
uni17D5
</note>
  <outline>
    <contour>
      <point x="395" y="0" type="line"/>
      <point x="422" y="0" type="line"/>
      <point x="422" y="586" type="line"/>
      <point x="395" y="586" type="line"/>
    </contour>
    <contour>
      <point x="348" y="0" type="line"/>
      <point x="374" y="0" type="line"/>
      <point x="374" y="586" type="line"/>
      <point x="348" y="586" type="line"/>
      <point x="317" y="527"/>
      <point x="258" y="431"/>
      <point x="187" y="431" type="curve" smooth="yes"/>
      <point x="141" y="431"/>
      <point x="126" y="466"/>
      <point x="126" y="499" type="curve" smooth="yes"/>
      <point x="126" y="524"/>
      <point x="141" y="560"/>
      <point x="183" y="560" type="curve" smooth="yes"/>
      <point x="194" y="560" type="line"/>
      <point x="194" y="586" type="line"/>
      <point x="193" y="586" type="line" smooth="yes"/>
      <point x="131" y="586"/>
      <point x="100" y="553"/>
      <point x="100" y="497" type="curve" smooth="yes"/>
      <point x="100" y="435"/>
      <point x="140" y="405"/>
      <point x="188" y="405" type="curve" smooth="yes"/>
      <point x="263" y="405"/>
      <point x="320" y="487"/>
      <point x="348" y="538" type="curve"/>
    </contour>
  </outline>
</glyph>
<glyph name="uni17D6" format="2">
  <advance width="417"/>
  <unicode hex="17D6"/>
  <note>
uni17D6
</note>
  <outline>
    <contour>
      <point x="76" y="280" type="line"/>
      <point x="341" y="280" type="line"/>
      <point x="341" y="306" type="line"/>
      <point x="76" y="306" type="line"/>
    </contour>
    <contour>
      <point x="209" y="9" type="curve" smooth="yes"/>
      <point x="264" y="9"/>
      <point x="309" y="54"/>
      <point x="309" y="109" type="curve" smooth="yes"/>
      <point x="309" y="164"/>
      <point x="264" y="209"/>
      <point x="209" y="209" type="curve" smooth="yes"/>
      <point x="154" y="209"/>
      <point x="109" y="164"/>
      <point x="109" y="109" type="curve" smooth="yes"/>
      <point x="109" y="54"/>
      <point x="154" y="9"/>
    </contour>
    <contour>
      <point x="209" y="35" type="curve" smooth="yes"/>
      <point x="168" y="35"/>
      <point x="135" y="68"/>
      <point x="135" y="109" type="curve" smooth="yes"/>
      <point x="135" y="150"/>
      <point x="168" y="183"/>
      <point x="209" y="183" type="curve" smooth="yes"/>
      <point x="250" y="183"/>
      <point x="283" y="150"/>
      <point x="283" y="109" type="curve" smooth="yes"/>
      <point x="283" y="68"/>
      <point x="250" y="35"/>
    </contour>
    <contour>
      <point x="209" y="375" type="curve" smooth="yes"/>
      <point x="264" y="375"/>
      <point x="309" y="420"/>
      <point x="309" y="475" type="curve" smooth="yes"/>
      <point x="309" y="530"/>
      <point x="264" y="575"/>
      <point x="209" y="575" type="curve" smooth="yes"/>
      <point x="154" y="575"/>
      <point x="109" y="530"/>
      <point x="109" y="475" type="curve" smooth="yes"/>
      <point x="109" y="420"/>
      <point x="154" y="375"/>
    </contour>
    <contour>
      <point x="209" y="401" type="curve" smooth="yes"/>
      <point x="168" y="401"/>
      <point x="135" y="434"/>
      <point x="135" y="475" type="curve" smooth="yes"/>
      <point x="135" y="516"/>
      <point x="168" y="549"/>
      <point x="209" y="549" type="curve" smooth="yes"/>
      <point x="250" y="549"/>
      <point x="283" y="516"/>
      <point x="283" y="475" type="curve" smooth="yes"/>
      <point x="283" y="434"/>
      <point x="250" y="401"/>
    </contour>
  </outline>
</glyph>
<glyph name="uni17D7" format="2">
  <advance width="481"/>
  <unicode hex="17D7"/>
  <note>
uni17D7
</note>
  <outline>
    <contour>
      <point x="215" y="-195" type="line"/>
      <point x="217" y="-195" type="line" smooth="yes"/>
      <point x="330" y="-195"/>
      <point x="385" y="-143"/>
      <point x="385" y="-39" type="curve" smooth="yes"/>
      <point x="385" y="586" type="line"/>
      <point x="359" y="586" type="line"/>
      <point x="350" y="563"/>
      <point x="301" y="494"/>
      <point x="271" y="494" type="curve" smooth="yes"/>
      <point x="231" y="494"/>
      <point x="220" y="586"/>
      <point x="158" y="586" type="curve" smooth="yes"/>
      <point x="115" y="586"/>
      <point x="86" y="550"/>
      <point x="86" y="507" type="curve" smooth="yes"/>
      <point x="86" y="451"/>
      <point x="120" y="420"/>
      <point x="168" y="420" type="curve" smooth="yes"/>
      <point x="184" y="420" type="line"/>
      <point x="184" y="446" type="line"/>
      <point x="175" y="446" type="line" smooth="yes"/>
      <point x="131" y="446"/>
      <point x="112" y="472"/>
      <point x="112" y="508" type="curve" smooth="yes"/>
      <point x="112" y="536"/>
      <point x="127" y="560"/>
      <point x="155" y="560" type="curve" smooth="yes"/>
      <point x="203" y="560"/>
      <point x="209" y="468"/>
      <point x="270" y="468" type="curve" smooth="yes"/>
      <point x="303" y="468"/>
      <point x="334" y="502"/>
      <point x="358" y="539" type="curve"/>
      <point x="359" y="539" type="line"/>
      <point x="359" y="-39" type="line" smooth="yes"/>
      <point x="359" y="-118"/>
      <point x="322" y="-167"/>
      <point x="217" y="-169" type="curve" smooth="yes"/>
      <point x="215" y="-169" type="line"/>
    </contour>
  </outline>
</glyph>
<glyph name="uni17D8" format="2">
  <advance width="1606"/>
  <unicode hex="17D8"/>
  <note>
uni17D8
</note>
  <outline>
    <contour>
      <point x="328" y="0" type="line"/>
      <point x="354" y="0" type="line"/>
      <point x="354" y="586" type="line"/>
      <point x="328" y="586" type="line"/>
      <point x="297" y="527"/>
      <point x="238" y="431"/>
      <point x="167" y="431" type="curve" smooth="yes"/>
      <point x="121" y="431"/>
      <point x="106" y="466"/>
      <point x="106" y="499" type="curve" smooth="yes"/>
      <point x="106" y="524"/>
      <point x="121" y="560"/>
      <point x="163" y="560" type="curve" smooth="yes"/>
      <point x="174" y="560" type="line"/>
      <point x="174" y="586" type="line"/>
      <point x="173" y="586" type="line" smooth="yes"/>
      <point x="111" y="586"/>
      <point x="80" y="553"/>
      <point x="80" y="497" type="curve" smooth="yes"/>
      <point x="80" y="435"/>
      <point x="120" y="405"/>
      <point x="168" y="405" type="curve" smooth="yes"/>
      <point x="243" y="405"/>
      <point x="300" y="487"/>
      <point x="328" y="538" type="curve"/>
    </contour>
    <contour>
      <point x="1077" y="370" type="line"/>
      <point x="1051" y="370" type="line"/>
      <point x="1051" y="158" type="line" smooth="yes"/>
      <point x="1051" y="75"/>
      <point x="1013" y="26"/>
      <point x="932" y="26" type="curve" smooth="yes"/>
      <point x="853" y="26"/>
      <point x="814" y="75"/>
      <point x="814" y="158" type="curve" smooth="yes"/>
      <point x="814" y="428" type="line" smooth="yes"/>
      <point x="814" y="533"/>
      <point x="763" y="586"/>
      <point x="665" y="586" type="curve" smooth="yes"/>
      <point x="568" y="586"/>
      <point x="520" y="533"/>
      <point x="520" y="428" type="curve" smooth="yes"/>
      <point x="520" y="191" type="line"/>
      <point x="546" y="191" type="line"/>
      <point x="546" y="428" type="line" smooth="yes"/>
      <point x="546" y="509"/>
      <point x="584" y="560"/>
      <point x="665" y="560" type="curve" smooth="yes"/>
      <point x="748" y="560"/>
      <point x="788" y="509"/>
      <point x="788" y="428" type="curve" smooth="yes"/>
      <point x="788" y="158" type="line" smooth="yes"/>
      <point x="788" y="53"/>
      <point x="837" y="0"/>
      <point x="932" y="0" type="curve" smooth="yes"/>
      <point x="1028" y="0"/>
      <point x="1077" y="53"/>
      <point x="1077" y="158" type="curve" smooth="yes"/>
    </contour>
    <contour>
      <point x="520" y="208" type="line" smooth="yes"/>
      <point x="520" y="27" type="line" smooth="yes"/>
      <point x="520" y="3"/>
      <point x="536" y="0"/>
      <point x="547" y="0" type="curve" smooth="yes"/>
      <point x="549" y="0" type="line" smooth="yes"/>
      <point x="582" y="0"/>
      <point x="622" y="32"/>
      <point x="622" y="89" type="curve" smooth="yes"/>
      <point x="622" y="146"/>
      <point x="576" y="168"/>
      <point x="546" y="168" type="curve"/>
      <point x="546" y="208" type="line"/>
    </contour>
    <contour>
      <point x="546" y="26" type="curve"/>
      <point x="546" y="141" type="line"/>
      <point x="578" y="141"/>
      <point x="596" y="118"/>
      <point x="596" y="89" type="curve" smooth="yes"/>
      <point x="596" y="61"/>
      <point x="582" y="27"/>
    </contour>
    <contour>
      <point x="1051" y="356" type="line"/>
      <point x="1077" y="356" type="line"/>
      <point x="1077" y="398" type="line"/>
      <point x="1009" y="536" type="line"/>
      <point x="1016" y="560" type="line"/>
      <point x="1093" y="560" type="line"/>
      <point x="1093" y="586" type="line"/>
      <point x="1017" y="586" type="line"/>
      <point x="1004" y="569"/>
      <point x="996" y="547"/>
      <point x="996" y="530" type="curve" smooth="yes"/>
      <point x="996" y="514"/>
      <point x="1006" y="484"/>
      <point x="1051" y="392" type="curve"/>
    </contour>
    <contour>
      <point x="1484" y="0" type="line"/>
      <point x="1510" y="0" type="line"/>
      <point x="1510" y="586" type="line"/>
      <point x="1484" y="586" type="line"/>
      <point x="1453" y="527"/>
      <point x="1394" y="431"/>
      <point x="1323" y="431" type="curve" smooth="yes"/>
      <point x="1277" y="431"/>
      <point x="1262" y="466"/>
      <point x="1262" y="499" type="curve" smooth="yes"/>
      <point x="1262" y="524"/>
      <point x="1277" y="560"/>
      <point x="1319" y="560" type="curve" smooth="yes"/>
      <point x="1330" y="560" type="line"/>
      <point x="1330" y="586" type="line"/>
      <point x="1329" y="586" type="line" smooth="yes"/>
      <point x="1267" y="586"/>
      <point x="1236" y="553"/>
      <point x="1236" y="497" type="curve" smooth="yes"/>
      <point x="1236" y="435"/>
      <point x="1276" y="405"/>
      <point x="1324" y="405" type="curve" smooth="yes"/>
      <point x="1399" y="405"/>
      <point x="1456" y="487"/>
      <point x="1484" y="538" type="curve"/>
    </contour>
  </outline>
</glyph>
<glyph name="uni17D9" format="2">
  <advance width="603"/>
  <unicode hex="17D9"/>
  <note>
uni17D9
</note>
  <outline>
    <contour>
      <point x="301" y="14" type="curve" smooth="yes"/>
      <point x="440" y="14"/>
      <point x="503" y="99"/>
      <point x="503" y="293" type="curve" smooth="yes"/>
      <point x="503" y="487"/>
      <point x="443" y="572"/>
      <point x="301" y="572" type="curve" smooth="yes"/>
      <point x="162" y="572"/>
      <point x="100" y="487"/>
      <point x="100" y="293" type="curve" smooth="yes"/>
      <point x="100" y="99"/>
      <point x="162" y="14"/>
    </contour>
    <contour>
      <point x="301" y="40" type="curve" smooth="yes"/>
      <point x="178" y="40"/>
      <point x="126" y="120"/>
      <point x="126" y="293" type="curve" smooth="yes"/>
      <point x="126" y="466"/>
      <point x="178" y="547"/>
      <point x="301" y="547" type="curve" smooth="yes"/>
      <point x="424" y="547"/>
      <point x="477" y="466"/>
      <point x="477" y="293" type="curve" smooth="yes"/>
      <point x="477" y="120"/>
      <point x="424" y="40"/>
    </contour>
    <contour>
      <point x="301" y="93" type="curve" smooth="yes"/>
      <point x="363" y="93"/>
      <point x="405" y="168"/>
      <point x="405" y="293" type="curve" smooth="yes"/>
      <point x="405" y="418"/>
      <point x="363" y="492"/>
      <point x="301" y="492" type="curve" smooth="yes"/>
      <point x="238" y="492"/>
      <point x="197" y="416"/>
      <point x="197" y="293" type="curve" smooth="yes"/>
      <point x="197" y="170"/>
      <point x="238" y="93"/>
    </contour>
    <contour>
      <point x="301" y="119" type="curve" smooth="yes"/>
      <point x="251" y="119"/>
      <point x="223" y="201"/>
      <point x="223" y="293" type="curve" smooth="yes"/>
      <point x="223" y="381"/>
      <point x="247" y="466"/>
      <point x="301" y="466" type="curve" smooth="yes"/>
      <point x="353" y="466"/>
      <point x="379" y="386"/>
      <point x="379" y="293" type="curve" smooth="yes"/>
      <point x="379" y="204"/>
      <point x="354" y="119"/>
    </contour>
  </outline>
</glyph>
<glyph name="uni17DA" format="2">
  <advance width="1192"/>
  <unicode hex="17DA"/>
  <note>
uni17DA
</note>
  <outline>
    <contour>
      <point x="267" y="0" type="curve" smooth="yes"/>
      <point x="374" y="0"/>
      <point x="444" y="142"/>
      <point x="498" y="264" type="curve" smooth="yes"/>
      <point x="597" y="487" type="line"/>
      <point x="728" y="67" type="line"/>
      <point x="758" y="67" type="line"/>
      <point x="864" y="432" type="line"/>
      <point x="940" y="106" type="line"/>
      <point x="968" y="106" type="line"/>
      <point x="1024" y="269" type="line"/>
      <point x="1112" y="269" type="line"/>
      <point x="1112" y="295" type="line"/>
      <point x="1006" y="295" type="line"/>
      <point x="956" y="147" type="line"/>
      <point x="878" y="464" type="line"/>
      <point x="848" y="464" type="line"/>
      <point x="742" y="99" type="line"/>
      <point x="613" y="517" type="line"/>
      <point x="583" y="517" type="line"/>
      <point x="478" y="285" type="line" smooth="yes"/>
      <point x="437" y="195"/>
      <point x="369" y="26"/>
      <point x="267" y="26" type="curve" smooth="yes"/>
      <point x="200" y="26"/>
      <point x="126" y="118"/>
      <point x="126" y="295" type="curve" smooth="yes"/>
      <point x="126" y="464"/>
      <point x="190" y="562"/>
      <point x="295" y="562" type="curve" smooth="yes"/>
      <point x="361" y="562"/>
      <point x="403" y="517"/>
      <point x="403" y="443" type="curve" smooth="yes"/>
      <point x="403" y="370"/>
      <point x="366" y="323"/>
      <point x="293" y="323" type="curve"/>
      <point x="293" y="297" type="line"/>
      <point x="398" y="297"/>
      <point x="429" y="370"/>
      <point x="429" y="446" type="curve" smooth="yes"/>
      <point x="429" y="521"/>
      <point x="389" y="588"/>
      <point x="294" y="588" type="curve" smooth="yes"/>
      <point x="191" y="588"/>
      <point x="100" y="496"/>
      <point x="100" y="296" type="curve" smooth="yes"/>
      <point x="100" y="109"/>
      <point x="178" y="0"/>
    </contour>
  </outline>
</glyph>
<glyph name="uni17DB" format="2">
  <advance width="278"/>
  <unicode hex="17DB"/>
  <note>
uni17DB
</note>
  <outline>
    <contour>
      <point x="88" y="280" type="line"/>
      <point x="228" y="280" type="line"/>
      <point x="228" y="306" type="line"/>
      <point x="88" y="306" type="line"/>
    </contour>
    <contour>
      <point x="150" y="356" type="line"/>
      <point x="176" y="356" type="line"/>
      <point x="176" y="398" type="line"/>
      <point x="108" y="536" type="line"/>
      <point x="115" y="560" type="line"/>
      <point x="192" y="560" type="line"/>
      <point x="192" y="586" type="line"/>
      <point x="116" y="586" type="line"/>
      <point x="103" y="569"/>
      <point x="95" y="547"/>
      <point x="95" y="530" type="curve" smooth="yes"/>
      <point x="95" y="514"/>
      <point x="105" y="484"/>
      <point x="150" y="392" type="curve"/>
    </contour>
    <contour>
      <point x="176" y="372" type="line"/>
      <point x="150" y="372" type="line"/>
      <point x="150" y="178" type="line"/>
      <point x="112" y="178"/>
      <point x="70" y="148"/>
      <point x="70" y="83" type="curve" smooth="yes"/>
      <point x="70" y="30"/>
      <point x="107" y="0"/>
      <point x="145" y="0" type="curve" smooth="yes"/>
      <point x="150" y="0" type="line" smooth="yes"/>
      <point x="165" y="0"/>
      <point x="176" y="9"/>
      <point x="176" y="22" type="curve" smooth="yes"/>
    </contour>
    <contour>
      <point x="150" y="25" type="line"/>
      <point x="118" y="25"/>
      <point x="97" y="45"/>
      <point x="97" y="85" type="curve" smooth="yes"/>
      <point x="97" y="127"/>
      <point x="127" y="149"/>
      <point x="150" y="149" type="curve"/>
    </contour>
  </outline>
</glyph>
<glyph name="uni17DC" format="2">
  <advance width="647"/>
  <unicode hex="17DC"/>
  <note>
uni17DC
</note>
  <outline>
    <contour>
      <point x="314" y="0" type="curve" smooth="yes"/>
      <point x="443" y="0"/>
      <point x="527" y="70"/>
      <point x="527" y="176" type="curve" smooth="yes"/>
      <point x="527" y="274"/>
      <point x="452" y="331"/>
      <point x="334" y="358" type="curve" smooth="yes"/>
      <point x="258" y="375"/>
      <point x="146" y="402"/>
      <point x="146" y="509" type="curve" smooth="yes"/>
      <point x="146" y="627"/>
      <point x="261" y="658"/>
      <point x="330" y="658" type="curve" smooth="yes"/>
      <point x="393" y="658"/>
      <point x="492" y="643"/>
      <point x="492" y="541" type="curve" smooth="yes"/>
      <point x="492" y="472"/>
      <point x="423" y="467"/>
      <point x="401" y="467" type="curve"/>
      <point x="401" y="441" type="line"/>
      <point x="460" y="441"/>
      <point x="518" y="468"/>
      <point x="518" y="545" type="curve" smooth="yes"/>
      <point x="518" y="623"/>
      <point x="460" y="684"/>
      <point x="332" y="684" type="curve" smooth="yes"/>
      <point x="224" y="684"/>
      <point x="120" y="624"/>
      <point x="120" y="509" type="curve" smooth="yes"/>
      <point x="120" y="385"/>
      <point x="239" y="355"/>
      <point x="314" y="336" type="curve" smooth="yes"/>
      <point x="417" y="310"/>
      <point x="501" y="269"/>
      <point x="501" y="172" type="curve" smooth="yes"/>
      <point x="501" y="78"/>
      <point x="418" y="26"/>
      <point x="317" y="26" type="curve" smooth="yes"/>
      <point x="226" y="26"/>
      <point x="154" y="64"/>
      <point x="154" y="134" type="curve" smooth="yes"/>
      <point x="154" y="196"/>
      <point x="217" y="224"/>
      <point x="255" y="224" type="curve"/>
      <point x="255" y="250" type="line"/>
      <point x="207" y="250"/>
      <point x="128" y="219"/>
      <point x="128" y="129" type="curve" smooth="yes"/>
      <point x="128" y="62"/>
      <point x="195" y="0"/>
    </contour>
  </outline>
</glyph>
<glyph name="uni17DD" format="2">
  <unicode hex="17DD"/>
  <note>
uni17DD
</note>
  <outline>
    <contour>
      <point x="-463" y="687" type="curve"/>
      <point x="-437" y="687" type="line"/>
      <point x="-437" y="776"/>
      <point x="-387" y="810"/>
      <point x="-303" y="810" type="curve" smooth="yes"/>
      <point x="-219" y="810"/>
      <point x="-169" y="776"/>
      <point x="-169" y="687" type="curve"/>
      <point x="-143" y="687" type="line"/>
      <point x="-143" y="808"/>
      <point x="-228" y="836"/>
      <point x="-304" y="836" type="curve" smooth="yes"/>
      <point x="-380" y="836"/>
      <point x="-463" y="808"/>
    </contour>
  </outline>
</glyph>
<glyph name="uni17E0" format="2">
  <advance width="494"/>
  <unicode hex="17E0"/>
  <note>
uni17E0
</note>
  <outline>
    <contour>
      <point x="247" y="0" type="curve" smooth="yes"/>
      <point x="341" y="0"/>
      <point x="404" y="62"/>
      <point x="404" y="186" type="curve" smooth="yes"/>
      <point x="404" y="400" type="line" smooth="yes"/>
      <point x="404" y="524"/>
      <point x="341" y="586"/>
      <point x="247" y="586" type="curve" smooth="yes"/>
      <point x="153" y="586"/>
      <point x="90" y="524"/>
      <point x="90" y="400" type="curve" smooth="yes"/>
      <point x="90" y="186" type="line" smooth="yes"/>
      <point x="90" y="62"/>
      <point x="153" y="0"/>
    </contour>
    <contour>
      <point x="247" y="26" type="curve" smooth="yes"/>
      <point x="170" y="26"/>
      <point x="116" y="85"/>
      <point x="116" y="186" type="curve" smooth="yes"/>
      <point x="116" y="400" type="line" smooth="yes"/>
      <point x="116" y="501"/>
      <point x="170" y="560"/>
      <point x="247" y="560" type="curve" smooth="yes"/>
      <point x="324" y="560"/>
      <point x="378" y="501"/>
      <point x="378" y="400" type="curve" smooth="yes"/>
      <point x="378" y="186" type="line" smooth="yes"/>
      <point x="378" y="85"/>
      <point x="324" y="26"/>
    </contour>
  </outline>
</glyph>
<glyph name="uni17E1" format="2">
  <advance width="493"/>
  <unicode hex="17E1"/>
  <note>
uni17E1
</note>
  <outline>
    <contour>
      <point x="246" y="0" type="curve" smooth="yes"/>
      <point x="333" y="0"/>
      <point x="403" y="57"/>
      <point x="403" y="156" type="curve" smooth="yes"/>
      <point x="403" y="430" type="line" smooth="yes"/>
      <point x="403" y="534"/>
      <point x="341" y="586"/>
      <point x="246" y="586" type="curve" smooth="yes"/>
      <point x="152" y="586"/>
      <point x="90" y="534"/>
      <point x="90" y="430" type="curve" smooth="yes"/>
      <point x="90" y="356" type="line" smooth="yes"/>
      <point x="90" y="293"/>
      <point x="130" y="254"/>
      <point x="186" y="254" type="curve" smooth="yes"/>
      <point x="276" y="254" type="line"/>
      <point x="276" y="280" type="line"/>
      <point x="184" y="280" type="line" smooth="yes"/>
      <point x="137" y="280"/>
      <point x="116" y="321"/>
      <point x="116" y="356" type="curve" smooth="yes"/>
      <point x="116" y="430" type="line" smooth="yes"/>
      <point x="116" y="511"/>
      <point x="169" y="560"/>
      <point x="246" y="560" type="curve" smooth="yes"/>
      <point x="323" y="560"/>
      <point x="377" y="511"/>
      <point x="377" y="430" type="curve" smooth="yes"/>
      <point x="377" y="156" type="line" smooth="yes"/>
      <point x="377" y="75"/>
      <point x="323" y="26"/>
      <point x="246" y="26" type="curve" smooth="yes"/>
      <point x="169" y="26"/>
      <point x="116" y="75"/>
      <point x="116" y="156" type="curve"/>
      <point x="90" y="156" type="line"/>
      <point x="90" y="57"/>
      <point x="155" y="0"/>
    </contour>
  </outline>
</glyph>
<glyph name="uni17E2" format="2">
  <advance width="574"/>
  <unicode hex="17E2"/>
  <note>
uni17E2
</note>
  <outline>
    <contour>
      <point x="300" y="0" type="curve" smooth="yes"/>
      <point x="411" y="0"/>
      <point x="484" y="63"/>
      <point x="484" y="195" type="curve" smooth="yes"/>
      <point x="484" y="586" type="line"/>
      <point x="458" y="586" type="line"/>
      <point x="344" y="468" type="line"/>
      <point x="229" y="586" type="line"/>
      <point x="203" y="586" type="line"/>
      <point x="203" y="308" type="line"/>
      <point x="256" y="308" type="line"/>
      <point x="256" y="334" type="line"/>
      <point x="229" y="334" type="line"/>
      <point x="229" y="547" type="line"/>
      <point x="344" y="429" type="line"/>
      <point x="458" y="547" type="line"/>
      <point x="458" y="195" type="line" smooth="yes"/>
      <point x="458" y="88"/>
      <point x="392" y="26"/>
      <point x="300" y="26" type="curve" smooth="yes"/>
      <point x="199" y="26"/>
      <point x="134" y="88"/>
      <point x="134" y="195" type="curve" smooth="yes"/>
      <point x="134" y="682" type="line" smooth="yes"/>
      <point x="134" y="702"/>
      <point x="130" y="708"/>
      <point x="108" y="708" type="curve" smooth="yes"/>
      <point x="60" y="708" type="line"/>
      <point x="60" y="682" type="line"/>
      <point x="108" y="682" type="line"/>
      <point x="108" y="195" type="line" smooth="yes"/>
      <point x="108" y="65"/>
      <point x="183" y="0"/>
    </contour>
  </outline>
</glyph>
<glyph name="uni17E3" format="2">
  <advance width="681"/>
  <unicode hex="17E3"/>
  <note>
uni17E3
</note>
  <outline>
    <contour>
      <point x="90" y="0" type="line"/>
      <point x="155" y="0" type="line"/>
      <point x="155" y="26" type="line"/>
      <point x="116" y="26" type="line"/>
      <point x="116" y="443" type="line" smooth="yes"/>
      <point x="116" y="517"/>
      <point x="153" y="560"/>
      <point x="226" y="560" type="curve" smooth="yes"/>
      <point x="283" y="560"/>
      <point x="328" y="533"/>
      <point x="328" y="501" type="curve" smooth="yes"/>
      <point x="328" y="0" type="line"/>
      <point x="354" y="0" type="line"/>
      <point x="354" y="501" type="line" smooth="yes"/>
      <point x="354" y="533"/>
      <point x="397" y="560"/>
      <point x="459" y="560" type="curve" smooth="yes"/>
      <point x="539" y="560"/>
      <point x="565" y="513"/>
      <point x="565" y="440" type="curve" smooth="yes"/>
      <point x="565" y="0" type="line"/>
      <point x="591" y="0" type="line"/>
      <point x="591" y="440" type="line" smooth="yes"/>
      <point x="591" y="537"/>
      <point x="547" y="586"/>
      <point x="459" y="586" type="curve" smooth="yes"/>
      <point x="419" y="586"/>
      <point x="372" y="576"/>
      <point x="340" y="542" type="curve"/>
      <point x="309" y="571"/>
      <point x="268" y="586"/>
      <point x="226" y="586" type="curve" smooth="yes"/>
      <point x="152" y="586"/>
      <point x="90" y="544"/>
      <point x="90" y="443" type="curve" smooth="yes"/>
    </contour>
  </outline>
</glyph>
<glyph name="uni17E4" format="2">
  <advance width="497"/>
  <unicode hex="17E4"/>
  <note>
uni17E4
</note>
  <outline>
    <contour>
      <point x="275" y="0" type="curve" smooth="yes"/>
      <point x="383" y="0" type="line"/>
      <point x="404" y="31" type="line"/>
      <point x="296" y="227" type="line"/>
      <point x="296" y="432" type="line"/>
      <point x="407" y="432" type="line"/>
      <point x="407" y="458" type="line"/>
      <point x="322" y="458" type="line" smooth="yes"/>
      <point x="274" y="458"/>
      <point x="270" y="449"/>
      <point x="270" y="418" type="curve" smooth="yes"/>
      <point x="270" y="219" type="line"/>
      <point x="376" y="26" type="line"/>
      <point x="275" y="26" type="line" smooth="yes"/>
      <point x="168" y="26"/>
      <point x="125" y="88"/>
      <point x="125" y="195" type="curve" smooth="yes"/>
      <point x="125" y="678" type="line" smooth="yes"/>
      <point x="125" y="708"/>
      <point x="116" y="713"/>
      <point x="99" y="713" type="curve" smooth="yes"/>
      <point x="60" y="713" type="line"/>
      <point x="60" y="687" type="line"/>
      <point x="99" y="687" type="line"/>
      <point x="99" y="195" type="line" smooth="yes"/>
      <point x="99" y="65"/>
      <point x="151" y="0"/>
    </contour>
  </outline>
</glyph>
<glyph name="uni17E5" format="2">
  <advance width="483"/>
  <unicode hex="17E5"/>
  <note>
uni17E5
</note>
  <outline>
    <contour>
      <point x="279" y="0" type="curve" smooth="yes"/>
      <point x="386" y="0" type="line"/>
      <point x="408" y="31" type="line"/>
      <point x="289" y="227" type="line"/>
      <point x="289" y="365" type="line"/>
      <point x="423" y="365" type="line"/>
      <point x="423" y="391" type="line"/>
      <point x="297" y="391" type="line" smooth="yes"/>
      <point x="265" y="391"/>
      <point x="263" y="382"/>
      <point x="263" y="351" type="curve" smooth="yes"/>
      <point x="263" y="219" type="line"/>
      <point x="380" y="26" type="line"/>
      <point x="276" y="26" type="line" smooth="yes"/>
      <point x="169" y="26"/>
      <point x="116" y="88"/>
      <point x="116" y="195" type="curve" smooth="yes"/>
      <point x="116" y="407" type="line" smooth="yes"/>
      <point x="116" y="471"/>
      <point x="154" y="513"/>
      <point x="186" y="525" type="curve"/>
      <point x="226" y="499"/>
      <point x="256" y="485"/>
      <point x="297" y="485" type="curve" smooth="yes"/>
      <point x="361" y="485"/>
      <point x="405" y="529"/>
      <point x="405" y="590" type="curve" smooth="yes"/>
      <point x="405" y="714" type="line"/>
      <point x="379" y="714" type="line"/>
      <point x="379" y="590" type="line" smooth="yes"/>
      <point x="379" y="551"/>
      <point x="354" y="511"/>
      <point x="297" y="511" type="curve" smooth="yes"/>
      <point x="259" y="511"/>
      <point x="239" y="519"/>
      <point x="214" y="537" type="curve"/>
      <point x="224" y="545"/>
      <point x="231" y="554"/>
      <point x="231" y="571" type="curve" smooth="yes"/>
      <point x="231" y="589"/>
      <point x="215" y="608"/>
      <point x="191" y="608" type="curve" smooth="yes"/>
      <point x="171" y="608"/>
      <point x="154" y="592"/>
      <point x="154" y="571" type="curve" smooth="yes"/>
      <point x="154" y="559"/>
      <point x="158" y="552"/>
      <point x="166" y="543" type="curve"/>
      <point x="105" y="515"/>
      <point x="90" y="454"/>
      <point x="90" y="413" type="curve" smooth="yes"/>
      <point x="90" y="195" type="line" smooth="yes"/>
      <point x="90" y="65"/>
      <point x="159" y="0"/>
    </contour>
  </outline>
</glyph>
<glyph name="uni17E6" format="2">
  <advance width="494"/>
  <unicode hex="17E6"/>
  <note>
uni17E6
</note>
  <outline>
    <contour>
      <point x="244" y="0" type="curve" smooth="yes"/>
      <point x="329" y="0"/>
      <point x="404" y="57"/>
      <point x="404" y="195" type="curve" smooth="yes"/>
      <point x="404" y="391" type="line" smooth="yes"/>
      <point x="404" y="521"/>
      <point x="333" y="586"/>
      <point x="245" y="586" type="curve" smooth="yes"/>
      <point x="199" y="586"/>
      <point x="145" y="570"/>
      <point x="116" y="522" type="curve"/>
      <point x="116" y="714" type="line"/>
      <point x="90" y="714" type="line"/>
      <point x="90" y="420" type="line"/>
      <point x="116" y="420" type="line"/>
      <point x="116" y="508"/>
      <point x="161" y="560"/>
      <point x="243" y="560" type="curve" smooth="yes"/>
      <point x="325" y="560"/>
      <point x="378" y="498"/>
      <point x="378" y="391" type="curve" smooth="yes"/>
      <point x="378" y="195" type="line" smooth="yes"/>
      <point x="378" y="80"/>
      <point x="321" y="26"/>
      <point x="244" y="26" type="curve" smooth="yes"/>
      <point x="165" y="26"/>
      <point x="116" y="70"/>
      <point x="116" y="181" type="curve" smooth="yes"/>
      <point x="116" y="250"/>
      <point x="135" y="316"/>
      <point x="217" y="316" type="curve" smooth="yes"/>
      <point x="262" y="316" type="line"/>
      <point x="262" y="342" type="line"/>
      <point x="223" y="342" type="line" smooth="yes"/>
      <point x="137" y="342"/>
      <point x="91" y="295"/>
      <point x="91" y="181" type="curve" smooth="yes"/>
      <point x="91" y="47"/>
      <point x="159" y="0"/>
    </contour>
  </outline>
</glyph>
<glyph name="uni17E7" format="2">
  <advance width="586"/>
  <unicode hex="17E7"/>
  <note>
uni17E7
</note>
  <outline>
    <contour>
      <point x="90" y="0" type="line"/>
      <point x="175" y="0" type="line"/>
      <point x="175" y="26" type="line"/>
      <point x="116" y="26" type="line"/>
      <point x="116" y="501" type="line" smooth="yes"/>
      <point x="116" y="534"/>
      <point x="125" y="560"/>
      <point x="151" y="560" type="curve" smooth="yes"/>
      <point x="172" y="560"/>
      <point x="192" y="541"/>
      <point x="213" y="510" type="curve" smooth="yes"/>
      <point x="219" y="500"/>
      <point x="227" y="495"/>
      <point x="235" y="495" type="curve" smooth="yes"/>
      <point x="243" y="495"/>
      <point x="251" y="500"/>
      <point x="258" y="510" type="curve" smooth="yes"/>
      <point x="280" y="540"/>
      <point x="299" y="560"/>
      <point x="320" y="560" type="curve" smooth="yes"/>
      <point x="346" y="560"/>
      <point x="359" y="535"/>
      <point x="359" y="503" type="curve" smooth="yes"/>
      <point x="359" y="61" type="line" smooth="yes"/>
      <point x="359" y="21"/>
      <point x="388" y="0"/>
      <point x="428" y="0" type="curve" smooth="yes"/>
      <point x="468" y="0"/>
      <point x="496" y="21"/>
      <point x="496" y="61" type="curve" smooth="yes"/>
      <point x="496" y="714" type="line"/>
      <point x="470" y="714" type="line"/>
      <point x="470" y="59" type="line" smooth="yes"/>
      <point x="470" y="30"/>
      <point x="444" y="26"/>
      <point x="428" y="26" type="curve" smooth="yes"/>
      <point x="415" y="26"/>
      <point x="385" y="30"/>
      <point x="385" y="59" type="curve" smooth="yes"/>
      <point x="385" y="477" type="line" smooth="yes"/>
      <point x="385" y="545"/>
      <point x="366" y="586"/>
      <point x="315" y="586" type="curve" smooth="yes"/>
      <point x="291" y="586"/>
      <point x="264" y="566"/>
      <point x="235" y="525" type="curve"/>
      <point x="207" y="566"/>
      <point x="180" y="586"/>
      <point x="156" y="586" type="curve" smooth="yes"/>
      <point x="103" y="586"/>
      <point x="90" y="547"/>
      <point x="90" y="482" type="curve" smooth="yes"/>
    </contour>
  </outline>
</glyph>
<glyph name="uni17E8" format="2">
  <advance width="492"/>
  <unicode hex="17E8"/>
  <note>
uni17E8
</note>
  <outline>
    <contour>
      <point x="90" y="0" type="line"/>
      <point x="133" y="0" type="line"/>
      <point x="247" y="114" type="line"/>
      <point x="359" y="0" type="line"/>
      <point x="402" y="0" type="line"/>
      <point x="402" y="296" type="line" smooth="yes"/>
      <point x="402" y="335"/>
      <point x="391" y="346"/>
      <point x="343" y="346" type="curve" smooth="yes"/>
      <point x="258" y="346" type="line"/>
      <point x="258" y="320" type="line"/>
      <point x="344" y="320" type="line" smooth="yes"/>
      <point x="369" y="320"/>
      <point x="376" y="309"/>
      <point x="376" y="289" type="curve" smooth="yes"/>
      <point x="376" y="19" type="line"/>
      <point x="247" y="150" type="line"/>
      <point x="116" y="19" type="line"/>
      <point x="116" y="430" type="line" smooth="yes"/>
      <point x="116" y="511"/>
      <point x="160" y="560"/>
      <point x="249" y="560" type="curve" smooth="yes"/>
      <point x="331" y="560"/>
      <point x="376" y="508"/>
      <point x="376" y="430" type="curve"/>
      <point x="402" y="430" type="line"/>
      <point x="402" y="714" type="line"/>
      <point x="376" y="714" type="line"/>
      <point x="376" y="527" type="line"/>
      <point x="345" y="567"/>
      <point x="301" y="586"/>
      <point x="249" y="586" type="curve" smooth="yes"/>
      <point x="153" y="586"/>
      <point x="90" y="534"/>
      <point x="90" y="430" type="curve" smooth="yes"/>
    </contour>
  </outline>
</glyph>
<glyph name="uni17E9" format="2">
  <advance width="493"/>
  <unicode hex="17E9"/>
  <note>
uni17E9
</note>
  <outline>
    <contour>
      <point x="247" y="0" type="curve" smooth="yes"/>
      <point x="351" y="0"/>
      <point x="403" y="60"/>
      <point x="403" y="142" type="curve" smooth="yes"/>
      <point x="403" y="219"/>
      <point x="352" y="240"/>
      <point x="288" y="240" type="curve" smooth="yes"/>
      <point x="247" y="240" type="line"/>
      <point x="247" y="214" type="line"/>
      <point x="288" y="214" type="line" smooth="yes"/>
      <point x="350" y="214"/>
      <point x="377" y="196"/>
      <point x="377" y="138" type="curve" smooth="yes"/>
      <point x="377" y="72"/>
      <point x="339" y="26"/>
      <point x="247" y="26" type="curve" smooth="yes"/>
      <point x="158" y="26"/>
      <point x="118" y="71"/>
      <point x="118" y="146" type="curve" smooth="yes"/>
      <point x="118" y="257" type="line" smooth="yes"/>
      <point x="118" y="320"/>
      <point x="141" y="333"/>
      <point x="167" y="333" type="curve" smooth="yes"/>
      <point x="369" y="333" type="line"/>
      <point x="369" y="359" type="line"/>
      <point x="167" y="359" type="line" smooth="yes"/>
      <point x="137" y="359"/>
      <point x="116" y="400"/>
      <point x="116" y="443" type="curve" smooth="yes"/>
      <point x="116" y="515"/>
      <point x="160" y="560"/>
      <point x="247" y="560" type="curve" smooth="yes"/>
      <point x="344" y="560"/>
      <point x="377" y="519"/>
      <point x="377" y="460" type="curve"/>
      <point x="403" y="460" type="line"/>
      <point x="403" y="714" type="line"/>
      <point x="377" y="714" type="line"/>
      <point x="377" y="546" type="line"/>
      <point x="331" y="578"/>
      <point x="297" y="586"/>
      <point x="247" y="586" type="curve" smooth="yes"/>
      <point x="168" y="586"/>
      <point x="90" y="546"/>
      <point x="90" y="442" type="curve" smooth="yes"/>
      <point x="90" y="385"/>
      <point x="113" y="365"/>
      <point x="120" y="349" type="curve"/>
      <point x="101" y="324"/>
      <point x="92" y="290"/>
      <point x="92" y="257" type="curve" smooth="yes"/>
      <point x="92" y="146" type="line" smooth="yes"/>
      <point x="92" y="49"/>
      <point x="143" y="0"/>
    </contour>
  </outline>
</glyph>
<glyph name="uni17F1" format="2">
  <advance width="375"/>
  <unicode hex="17F1"/>
  <note>
uni17F1
</note>
  <outline>
    <contour>
      <point x="60" y="0" type="line"/>
      <point x="86" y="0" type="line"/>
      <point x="189" y="303" type="line"/>
      <point x="289" y="0" type="line"/>
      <point x="315" y="0" type="line"/>
      <point x="197" y="342" type="line"/>
      <point x="181" y="342" type="line"/>
    </contour>
  </outline>
</glyph>
<glyph name="uni17F3" format="2">
  <advance width="526"/>
  <unicode hex="17F3"/>
  <note>
uni17F3
</note>
  <outline>
    <contour>
      <point x="359" y="342" type="line"/>
      <point x="341" y="342" type="line"/>
      <point x="264" y="35" type="line"/>
      <point x="184" y="342" type="line"/>
      <point x="166" y="342" type="line"/>
      <point x="76" y="0" type="line"/>
      <point x="102" y="0" type="line"/>
      <point x="175" y="303" type="line"/>
      <point x="251" y="0" type="line"/>
      <point x="275" y="0" type="line"/>
      <point x="350" y="303" type="line"/>
      <point x="424" y="0" type="line"/>
      <point x="450" y="0" type="line"/>
    </contour>
  </outline>
</glyph>
<glyph name="uni17F4" format="2">
  <advance width="353"/>
  <unicode hex="17F4"/>
  <note>
uni17F4
</note>
  <outline>
    <contour>
      <point x="164" y="0" type="line"/>
      <point x="190" y="0" type="line"/>
      <point x="277" y="342" type="line"/>
      <point x="251" y="342" type="line"/>
      <point x="178" y="39" type="line"/>
      <point x="102" y="342" type="line"/>
      <point x="76" y="342" type="line"/>
    </contour>
  </outline>
</glyph>
<glyph name="uni17F5" format="2">
  <advance width="354"/>
  <unicode hex="17F5"/>
  <note>
uni17F5
</note>
  <outline>
    <contour>
      <point x="178" y="6" type="curve" smooth="yes"/>
      <point x="215" y="6"/>
      <point x="244" y="36"/>
      <point x="244" y="98" type="curve" smooth="yes"/>
      <point x="244" y="143"/>
      <point x="233" y="187"/>
      <point x="194" y="231" type="curve"/>
      <point x="278" y="342" type="line"/>
      <point x="250" y="342" type="line"/>
      <point x="177" y="247" type="line"/>
      <point x="104" y="342" type="line"/>
      <point x="76" y="342" type="line"/>
      <point x="160" y="231" type="line"/>
      <point x="122" y="186"/>
      <point x="111" y="142"/>
      <point x="111" y="98" type="curve" smooth="yes"/>
      <point x="111" y="30"/>
      <point x="139" y="6"/>
    </contour>
    <contour>
      <point x="137" y="98" type="curve" smooth="yes"/>
      <point x="137" y="129"/>
      <point x="140" y="169"/>
      <point x="177" y="212" type="curve"/>
      <point x="215" y="167"/>
      <point x="218" y="130"/>
      <point x="218" y="98" type="curve" smooth="yes"/>
      <point x="218" y="64"/>
      <point x="203" y="32"/>
      <point x="177" y="32" type="curve" smooth="yes"/>
      <point x="150" y="32"/>
      <point x="137" y="66"/>
    </contour>
  </outline>
</glyph>
<glyph name="uni17F8" format="2">
  <advance width="261"/>
  <unicode hex="17F8"/>
  <note>
uni17F8
</note>
  <outline>
    <contour>
      <point x="68" y="0" type="line"/>
      <point x="94" y="0" type="line"/>
      <point x="193" y="342" type="line"/>
      <point x="165" y="342" type="line"/>
    </contour>
  </outline>
</glyph>
<glyph name="uni17F9" format="2">
  <advance width="439"/>
  <unicode hex="17F9"/>
  <note>
uni17F9
</note>
  <outline>
    <contour>
      <point x="214" y="-165" type="line"/>
      <point x="289" y="-165"/>
      <point x="347" y="-141"/>
      <point x="347" y="-54" type="curve" smooth="yes"/>
      <point x="347" y="-13"/>
      <point x="334" y="49"/>
      <point x="238" y="49" type="curve" smooth="yes"/>
      <point x="121" y="49" type="line"/>
      <point x="306" y="229" type="line"/>
      <point x="292" y="252" type="line"/>
      <point x="60" y="36" type="line"/>
      <point x="71" y="23" type="line"/>
      <point x="219" y="23" type="line" smooth="yes"/>
      <point x="285" y="23"/>
      <point x="321" y="0"/>
      <point x="321" y="-54" type="curve" smooth="yes"/>
      <point x="321" y="-111"/>
      <point x="288" y="-141"/>
      <point x="214" y="-141" type="curve"/>
    </contour>
  </outline>
</glyph>
<glyph name="uni19E0" format="2">
  <advance width="514"/>
  <unicode hex="19E0"/>
  <note>
uni19E0
</note>
  <outline>
    <contour>
      <point x="247" y="441" type="curve" smooth="yes"/>
      <point x="341" y="441"/>
      <point x="404" y="503"/>
      <point x="404" y="627" type="curve" smooth="yes"/>
      <point x="404" y="841" type="line" smooth="yes"/>
      <point x="404" y="965"/>
      <point x="341" y="1027"/>
      <point x="247" y="1027" type="curve" smooth="yes"/>
      <point x="153" y="1027"/>
      <point x="90" y="965"/>
      <point x="90" y="841" type="curve" smooth="yes"/>
      <point x="90" y="627" type="line" smooth="yes"/>
      <point x="90" y="503"/>
      <point x="153" y="441"/>
    </contour>
    <contour>
      <point x="247" y="467" type="curve" smooth="yes"/>
      <point x="170" y="467"/>
      <point x="116" y="526"/>
      <point x="116" y="627" type="curve" smooth="yes"/>
      <point x="116" y="841" type="line" smooth="yes"/>
      <point x="116" y="942"/>
      <point x="170" y="1001"/>
      <point x="247" y="1001" type="curve" smooth="yes"/>
      <point x="324" y="1001"/>
      <point x="378" y="942"/>
      <point x="378" y="841" type="curve" smooth="yes"/>
      <point x="378" y="627" type="line" smooth="yes"/>
      <point x="378" y="526"/>
      <point x="324" y="467"/>
    </contour>
    <contour>
      <point x="90" y="-288" type="line"/>
      <point x="133" y="-288" type="line"/>
      <point x="247" y="-174" type="line"/>
      <point x="359" y="-288" type="line"/>
      <point x="402" y="-288" type="line"/>
      <point x="402" y="8" type="line" smooth="yes"/>
      <point x="402" y="47"/>
      <point x="391" y="58"/>
      <point x="343" y="58" type="curve" smooth="yes"/>
      <point x="258" y="58" type="line"/>
      <point x="258" y="32" type="line"/>
      <point x="344" y="32" type="line" smooth="yes"/>
      <point x="369" y="32"/>
      <point x="376" y="21"/>
      <point x="376" y="1" type="curve" smooth="yes"/>
      <point x="376" y="-269" type="line"/>
      <point x="247" y="-138" type="line"/>
      <point x="116" y="-269" type="line"/>
      <point x="116" y="142" type="line" smooth="yes"/>
      <point x="116" y="223"/>
      <point x="160" y="272"/>
      <point x="249" y="272" type="curve" smooth="yes"/>
      <point x="331" y="272"/>
      <point x="376" y="220"/>
      <point x="376" y="142" type="curve"/>
      <point x="402" y="142" type="line"/>
      <point x="402" y="426" type="line"/>
      <point x="376" y="426" type="line"/>
      <point x="376" y="239" type="line"/>
      <point x="345" y="279"/>
      <point x="301" y="298"/>
      <point x="249" y="298" type="curve" smooth="yes"/>
      <point x="153" y="298"/>
      <point x="90" y="246"/>
      <point x="90" y="142" type="curve" smooth="yes"/>
    </contour>
  </outline>
</glyph>
